<svg width="48" height="18" viewBox="0 0 48 18" fill="none" xmlns="http://www.w3.org/2000/svg">
<g clip-path="url(#clip0_49_480)">
<path d="M34.554 2.56006L33.673 4.69906H35.444L34.554 2.56006Z" fill="#7C7A80"/>
<path d="M4.10501 2.56006L3.23401 4.69906H4.98301L4.10501 2.56006Z" fill="#7C7A80"/>
<path d="M24.3201 2.86311C24.1681 2.77711 23.9341 2.76611 23.7121 2.76611H22.1321V3.95711H23.6911C23.9381 3.95711 24.1461 3.95311 24.3251 3.84711C24.4901 3.76011 24.5891 3.57111 24.5891 3.33711C24.5891 3.10711 24.4861 2.94111 24.3201 2.86311Z" fill="#7C7A80"/>
<path d="M29.816 12.0931C29.66 12.0001 29.43 11.9961 29.204 11.9961H27.624V13.2011H29.183C29.433 13.2011 29.646 13.1931 29.819 13.0921C29.985 12.9901 30.084 12.8071 30.084 12.5761C30.081 12.3451 29.982 12.1791 29.816 12.0931Z" fill="#7C7A80"/>
<path d="M23.571 11.9941H21.899V13.3611H23.555C24.048 13.3611 24.355 13.1171 24.355 12.6541C24.354 12.1821 24.035 11.9941 23.571 11.9941Z" fill="#7C7A80"/>
<path d="M47.2621 12.8C47.2531 12.791 47.2431 12.781 47.2341 12.774C47.4771 12.616 47.6391 12.342 47.6391 12.03V10.887C47.6391 10.396 47.2421 10 46.7521 10H44.1821C43.3811 10 42.7771 10.236 42.3371 10.592C42.2141 10.248 41.8981 10 41.5111 10H38.9411C38.2341 10 37.6771 10.175 37.2531 10.463C37.0991 10.188 36.8221 10 36.4901 10H32.2101C31.8651 10 31.5741 10.201 31.4271 10.488C31.3661 10.445 31.3211 10.395 31.2571 10.357C30.6361 10.025 29.9761 10 29.2961 10H26.3331C25.9881 10 25.6961 10.203 25.5501 10.492C25.0991 10.199 24.4681 10 23.5711 10H19.4731C19.2261 10 18.9911 10.1 18.8221 10.282L17.8511 11.329L16.9191 10.294C16.7521 10.103 16.5131 9.99902 16.2601 9.99902H11.1021C10.6121 9.99902 10.2161 10.396 10.2161 10.886V16.253C10.2161 16.744 10.6131 17.14 11.1021 17.14H16.1831C16.4301 17.14 16.6651 17.037 16.8331 16.855L17.8121 15.796L18.7411 16.841C18.9091 17.031 19.1511 17.138 19.4041 17.138H21.8971C22.3881 17.138 22.7841 16.741 22.7841 16.253V15.337H23.4971C24.3641 15.337 24.9911 15.159 25.4471 14.888V16.253C25.4471 16.742 25.8441 17.138 26.3341 17.138H27.6231C28.1141 17.138 28.5101 16.741 28.5101 16.253V15.177H28.9931C29.1111 15.177 29.1941 15.181 29.2541 15.185C29.2581 15.281 29.2581 15.396 29.2561 15.472V16.253C29.2561 16.742 29.6551 17.138 30.1431 17.138H31.4301C31.5741 17.138 31.7041 17.099 31.8221 17.038C31.9421 17.097 32.0711 17.138 32.2131 17.138H36.4941C36.6331 17.138 36.7621 17.099 36.8791 17.042C36.9961 17.099 37.1221 17.138 37.2641 17.138H39.7621C40.5571 17.138 41.2051 16.943 41.6901 16.599C41.8231 16.915 42.1371 17.138 42.5041 17.138H45.0021C46.8191 17.138 47.9021 16.173 47.9021 14.558C47.9021 13.81 47.7001 13.253 47.2621 12.8ZM23.4981 14.45H21.8981V16.251H19.4051L17.8251 14.475L16.1831 16.251H11.1021V10.883H16.2601L17.8401 12.643L19.4721 10.883H23.5701C24.5871 10.883 25.7321 11.168 25.7321 12.654C25.7321 14.143 24.6201 14.453 23.4981 14.45ZM30.5911 13.759C30.8751 13.863 31.1081 14.052 31.2161 14.21C31.3991 14.472 31.4231 14.716 31.4291 15.189V16.253H30.1421V15.581C30.1421 15.259 30.1731 14.78 29.9331 14.53C29.7491 14.339 29.4641 14.294 28.9941 14.294H27.6241V16.253H26.3351V10.886H29.2981C29.9461 10.886 30.4181 10.913 30.8411 11.138C31.2451 11.382 31.5001 11.718 31.5001 12.329C31.5001 13.187 30.9271 13.624 30.5911 13.759ZM36.4921 11.995H33.4881V12.972H36.4181V14.068H33.4881V15.134L36.4921 15.14V16.253H32.2121V10.886H36.4921V11.995ZM39.7631 16.247H37.2651V15.094H39.7521C39.9941 15.094 40.1671 15.064 40.2751 14.961C40.3631 14.879 40.4251 14.756 40.4251 14.61C40.4251 14.454 40.3591 14.331 40.2691 14.256C40.1691 14.174 40.0371 14.137 39.8121 14.137C38.6141 14.098 37.1111 14.174 37.1111 12.477C37.1111 11.696 37.5991 10.879 38.9451 10.879H41.5151V12.021H39.1621C38.9271 12.021 38.7761 12.031 38.6481 12.119C38.5071 12.207 38.4541 12.336 38.4541 12.506C38.4541 12.709 38.5731 12.844 38.7341 12.906C38.8711 12.953 39.0151 12.967 39.2341 12.967L39.9231 12.987C40.6181 13.006 41.0971 13.126 41.3861 13.419C41.6381 13.678 41.7711 14.006 41.7711 14.557C41.7711 15.714 41.0521 16.253 39.7631 16.247ZM45.0041 16.247H42.5061V15.094H44.9941C45.2361 15.094 45.4091 15.064 45.5161 14.961C45.6041 14.879 45.6661 14.756 45.6661 14.61C45.6661 14.454 45.6001 14.331 45.5101 14.256C45.4111 14.174 45.2791 14.137 45.0531 14.137C43.8541 14.098 42.3521 14.174 42.3521 12.477C42.3521 11.696 42.8401 10.879 44.1861 10.879H46.7561V12.021H44.4041C44.1681 12.021 44.0161 12.031 43.8891 12.119C43.7481 12.207 43.6961 12.336 43.6961 12.506C43.6961 12.709 43.8161 12.844 43.9751 12.906C44.1131 12.953 44.2561 12.967 44.4751 12.967L45.1641 12.987C45.8601 13.006 46.3401 13.126 46.6291 13.419C46.8791 13.678 47.0141 14.006 47.0141 14.557C47.0141 15.714 46.2931 16.253 45.0041 16.247Z" fill="#7C7A80"/>
<path d="M43.236 0.762207H41.923C41.432 0.762207 41.036 1.15921 41.036 1.64821V2.20221L40.427 1.19121C40.265 0.926207 39.978 0.763207 39.669 0.763207H37.714C37.224 0.763207 36.828 1.16021 36.828 1.64921V2.40221L36.357 1.30021C36.218 0.975207 35.898 0.763207 35.544 0.763207H33.622C33.427 0.763207 33.241 0.827207 33.093 0.939207C32.946 0.828207 32.761 0.763207 32.562 0.763207H31.323C30.269 0.763207 29.489 1.01821 28.915 1.51621C28.849 1.09321 28.498 0.763207 28.056 0.763207H26.746C26.396 0.763207 26.103 0.970207 25.957 1.26221C25.902 1.22221 25.86 1.17421 25.798 1.13821C25.196 0.790207 24.563 0.763207 23.8 0.763207H20.85C20.684 0.763207 20.539 0.821207 20.405 0.900207C20.274 0.821207 20.127 0.763207 19.961 0.763207H15.677C15.496 0.763207 15.339 0.830207 15.199 0.922207C15.058 0.830207 14.901 0.763207 14.721 0.763207H12.583C12.229 0.763207 11.908 0.976207 11.769 1.30421L11.007 3.10021L10.168 1.27821C10.022 0.964207 9.70703 0.763207 9.36303 0.763207H7.26903C6.77903 0.763207 6.38303 1.16021 6.38303 1.64921V2.42021L5.90203 1.29821C5.76203 0.973207 5.44203 0.762207 5.08703 0.762207H3.18303C2.82803 0.762207 2.50803 0.974207 2.36803 1.29921L0.0720266 6.66621C-0.0459734 6.94121 -0.0169734 7.25321 0.146027 7.50321C0.310027 7.75121 0.588027 7.90121 0.886027 7.90121H2.28003C2.63603 7.90121 2.95903 7.68521 3.09603 7.35521L3.36703 6.70321H4.85303L5.12003 7.35121C5.25603 7.68321 5.58003 7.90021 5.94003 7.90021H8.54903C9.03903 7.90021 9.43503 7.50321 9.43503 7.01421V6.99321L9.60303 7.37421C9.74503 7.69421 10.063 7.90121 10.413 7.90121L11.54 7.90321C11.892 7.90321 12.208 7.69621 12.35 7.37521L12.52 6.99521V7.01721C12.52 7.50621 12.916 7.90221 13.406 7.90221H14.721C14.901 7.90221 15.058 7.83421 15.199 7.74321C15.339 7.83421 15.496 7.90221 15.677 7.90221H19.961C20.127 7.90221 20.274 7.84421 20.405 7.76521C20.538 7.84421 20.684 7.90221 20.85 7.90221H22.134C22.624 7.90221 23.02 7.50521 23.02 7.01621V5.95021H23.51C23.621 5.95021 23.7 5.95321 23.759 5.95721C23.765 6.04821 23.763 6.15621 23.763 6.22821L23.761 6.34621L23.766 7.02321C23.77 7.50921 24.167 7.90221 24.653 7.90221H25.947C26.092 7.90221 26.223 7.85721 26.344 7.79521C26.467 7.85821 26.599 7.90221 26.745 7.90221H28.055C28.485 7.90221 28.825 7.59221 28.908 7.18821C29.635 7.79921 30.659 7.90221 31.229 7.90221H32.732C33.09 7.90221 33.414 7.68221 33.549 7.34721L33.81 6.70421H35.288L35.559 7.35621C35.696 7.68521 36.018 7.90121 36.377 7.90121H38.987C39.477 7.90121 39.873 7.50421 39.873 7.01521V6.16821L40.66 7.47321C40.821 7.73821 41.108 7.90121 41.42 7.90121H43.236C43.726 7.90121 44.122 7.50421 44.122 7.01521V1.64821C44.122 1.15921 43.724 0.762207 43.236 0.762207ZM14.72 7.01421H13.405L13.4 2.81121L11.54 7.01421H10.413L8.55003 2.80721V7.01421H5.93903L5.44603 5.81721H2.77603L2.27803 7.01421H0.884027L3.18103 1.64721H5.08503L7.26803 6.72921V1.64721H9.36203L11.041 5.28821L12.582 1.64721H14.72V7.01421ZM19.96 2.76521H16.958V3.73221H19.889V4.83221H16.958V5.90421H19.96V7.01421H15.676V1.64721H19.96V2.76521ZM25.097 4.52421C25.378 4.63221 25.618 4.82021 25.732 4.97621C25.914 5.24321 25.945 5.48121 25.945 5.96021V7.01321H24.651L24.645 6.33621C24.645 6.01421 24.676 5.55021 24.443 5.29121C24.256 5.10321 23.97 5.06221 23.508 5.06221H22.133V7.01421H20.849H20.848V1.64821H23.798C24.454 1.64821 24.937 1.66521 25.351 1.90521C25.757 2.14521 26 2.49521 26 3.09421C26 3.94921 25.429 4.39221 25.097 4.52421ZM28.056 7.01421H26.746V1.64721H28.056V7.01421ZM43.236 7.01421H41.419L38.986 2.98621V7.01421H36.376L35.876 5.81721H33.21L32.728 7.01421H31.226C30.603 7.01421 29.816 6.87621 29.37 6.42121C28.916 5.96521 28.682 5.34721 28.682 4.37221C28.682 3.57621 28.823 2.84821 29.369 2.27221C29.782 1.84421 30.431 1.64721 31.317 1.64721H32.556V2.79721H31.341C30.874 2.79721 30.609 2.86621 30.355 3.11521C30.136 3.34121 29.987 3.76821 29.987 4.33121C29.987 4.90521 30.101 5.31921 30.341 5.59021C30.54 5.80321 30.9 5.86721 31.235 5.86721H31.81L33.622 1.64721H35.544L37.714 6.72321V1.64721H39.669L41.923 5.38521V1.64721H43.236V7.01421ZM31.788 3.68421L31.231 4.98321C31.108 4.98321 31.025 4.96921 30.979 4.95721C30.936 4.87721 30.877 4.70021 30.877 4.33221C30.877 3.96021 30.967 3.76721 30.979 3.75021C31.016 3.71421 31.047 3.68321 31.348 3.68321L31.788 3.68421Z" fill="#7C7A80"/>
<path d="M18.651 13.5784L20.621 15.7664V11.4634L18.651 13.5784Z" fill="#7C7A80"/>
<path d="M15.5971 11.9961H12.3831V12.9711H15.1981V14.0671H12.3831V15.1351H15.5351L17.0001 13.5581L15.5971 11.9961Z" fill="#7C7A80"/>
</g>
<defs>
<clipPath id="clip0_49_480">
<rect width="48" height="18" fill="white"/>
</clipPath>
</defs>
</svg>
