<svg width="51" height="15" viewBox="0 0 51 15" fill="none" xmlns="http://www.w3.org/2000/svg">
<g clip-path="url(#clip0_49_461)">
<path d="M9.03506 2.604C8.87006 2.273 8.60906 2 8.28506 1.795C7.94706 1.588 7.54806 1.443 7.09206 1.357C6.62806 1.273 6.09206 1.235 5.47106 1.229L2.60406 1.231C2.30606 1.235 2.01406 1.467 1.94406 1.755L0.0150578 10.157C-0.0549422 10.441 0.132058 10.679 0.430058 10.679H1.80306C2.10106 10.679 2.39606 10.448 2.46206 10.157L2.93306 8.117C2.99606 7.833 3.29006 7.596 3.59106 7.596H3.98406C5.66306 7.594 6.96306 7.251 7.89706 6.564C8.83606 5.876 9.29906 4.967 9.29906 3.841C9.29806 3.348 9.21706 2.934 9.03506 2.604ZM6.07406 5.349C5.65906 5.653 5.08206 5.805 4.33806 5.805H4.00206C3.70306 5.805 3.52006 5.569 3.58506 5.281L3.99806 3.497C4.05606 3.211 4.35706 2.974 4.65206 2.976L5.10206 2.973C5.62706 2.973 6.02806 3.064 6.29606 3.24C6.56106 3.414 6.69406 3.691 6.69206 4.058C6.70006 4.616 6.48706 5.045 6.07406 5.349Z" fill="#7C7A80"/>
<path d="M48.1751 1.88686L48.0891 1.91286L47.9741 1.92886L47.8331 1.90686L47.7611 1.83686L47.7281 1.72686L47.7261 1.56186V0.950859H48.1851V0.761859H47.7261V0.380859H47.4991V0.761859H47.3451V0.950859H47.4991V1.66186L47.6051 2.01386L47.9171 2.12586L48.0481 2.11486L48.1871 2.08786V1.88686H48.1751Z" fill="#7C7A80"/>
<path d="M50.3041 0.858633L49.9761 0.723633L49.7341 0.772633L49.4881 0.938633L49.3451 0.779633L49.1131 0.724633L48.8901 0.773633L48.6791 0.909633V0.761633H48.4561V2.09663H48.6781V1.09963L48.8651 0.983633L49.0511 0.937633L49.2031 0.964633L49.2781 1.04163L49.3111 1.16963L49.3221 1.33463V2.09763H49.5451V1.24363L49.5411 1.17263L49.5371 1.10763L49.7271 0.986633L49.9151 0.939633L50.0621 0.966633L50.1421 1.04363L50.1701 1.17263L50.1851 1.33563V2.09863H50.4091V1.23163L50.3041 0.858633Z" fill="#7C7A80"/>
<path d="M15.6561 3.8047C15.1381 3.5127 14.3201 3.3667 13.2021 3.3667C12.6491 3.3667 12.0981 3.4097 11.5411 3.4957C11.1301 3.5587 11.0901 3.5707 10.8371 3.6257C10.3151 3.7397 10.2331 4.2607 10.2331 4.2607L10.0651 4.9517C9.97011 5.3927 10.2241 5.3757 10.3301 5.3387C10.5581 5.2707 10.6851 5.2007 11.1511 5.0967C11.5961 4.9957 12.0651 4.9197 12.4371 4.9247C12.9861 4.9247 13.4061 4.9827 13.6861 5.1007C13.9621 5.2207 14.1001 5.4267 14.1001 5.7247L14.0761 5.9187L13.8781 6.0407C13.0991 6.0897 12.5361 6.1617 11.8531 6.2607C11.1851 6.3537 10.5991 6.5167 10.1121 6.7397C9.58911 6.9697 9.20111 7.2787 8.93011 7.6717C8.66811 8.0667 8.53711 8.5457 8.53711 9.1077C8.53711 9.6367 8.72711 10.0737 9.09611 10.4117C9.46711 10.7437 9.95711 10.9057 10.5431 10.9057C10.9141 10.9037 11.2011 10.8747 11.4051 10.8257L12.0701 10.5967L12.6331 10.2847L13.1511 9.9427L13.1581 9.9527L13.1061 10.1727L13.1031 10.1817V10.1837C13.0471 10.4517 13.2091 10.6717 13.4701 10.6977L13.4751 10.7037H13.4991H14.5521H14.7501L14.7681 10.6957C15.0421 10.6637 15.2991 10.4437 15.3591 10.1817L16.3601 5.8487L16.4121 5.4957L16.4361 5.1647C16.4401 4.5507 16.1751 4.0957 15.6561 3.8047ZM13.4421 8.6767L13.2281 8.9587L12.6881 9.2377C12.4341 9.3407 12.1931 9.3927 11.9701 9.3927C11.6321 9.3927 11.3671 9.3437 11.1881 9.2437L10.9231 8.7287C10.9231 8.4497 10.9871 8.2287 11.1241 8.0587L11.7061 7.6627C11.9551 7.5787 12.2591 7.5077 12.6111 7.4587C12.9251 7.4197 13.5451 7.3487 13.6261 7.3467L13.7211 7.5137C13.7021 7.6087 13.5261 8.3447 13.4421 8.6767Z" fill="#7C7A80"/>
<path d="M40.5941 3.81107C40.0731 3.51907 39.2561 3.37207 38.1411 3.37207C37.5881 3.37207 37.0361 3.41507 36.4811 3.50407C36.0691 3.56407 36.0281 3.57707 35.7741 3.63107C35.2531 3.74407 35.1721 4.26707 35.1721 4.26707L35.0041 4.95707C34.9101 5.39807 35.1581 5.37807 35.2741 5.34407C35.5031 5.27607 35.6261 5.20907 36.0881 5.10107C36.5311 5.00107 37.0041 4.92707 37.3771 4.92907C37.9241 4.92907 38.3441 4.98807 38.6231 5.10607C38.9011 5.22607 39.0371 5.43407 39.0371 5.72907L39.0161 5.92207L38.8201 6.04707C38.0331 6.09407 37.4691 6.16607 36.7931 6.26507C36.1271 6.35807 35.5391 6.52007 35.0511 6.74407C34.5301 6.97507 34.1371 7.28407 33.8691 7.67807C33.6041 8.07307 33.4751 8.55107 33.4751 9.10807C33.4751 9.64107 33.6631 10.0781 34.0371 10.4141C34.4101 10.7451 34.8951 10.9111 35.4811 10.9111C35.8501 10.9071 36.1371 10.8831 36.3421 10.8301L37.0051 10.6041L37.5731 10.2921L38.0871 9.94607L38.0961 9.95707L38.0491 10.1791L38.0441 10.1831L38.0461 10.1871C37.9841 10.4551 38.1471 10.6771 38.4111 10.7011L38.4131 10.7061H38.4371C38.6101 10.7061 39.2081 10.7061 39.4931 10.7061H39.6871L39.7081 10.6991C39.9791 10.6661 40.2351 10.4461 40.2921 10.1811L41.2961 5.85407L41.3491 5.49907L41.3781 5.16707C41.3791 4.55507 41.1171 4.10207 40.5941 3.81107ZM38.3851 8.68307L38.1621 8.96807L37.6271 9.24507C37.3731 9.34707 37.1311 9.40007 36.9121 9.40007C36.5631 9.40007 36.3051 9.35007 36.1311 9.25007L35.8631 8.73707C35.8631 8.45707 35.9281 8.23807 36.0591 8.06507C36.1921 7.90207 36.3951 7.76807 36.6471 7.67007C36.8931 7.58607 37.1971 7.51807 37.5511 7.46707C37.8631 7.42807 38.4811 7.35507 38.5611 7.35407L38.6581 7.52107C38.6441 7.61607 38.4671 8.34907 38.3851 8.68307Z" fill="#7C7A80"/>
<path d="M33.969 2.63479C33.797 2.30179 33.539 2.03279 33.213 1.82279C32.879 1.61479 32.483 1.46879 32.02 1.38479C31.565 1.30379 31.022 1.25979 30.405 1.25879L27.534 1.26079C27.235 1.26579 26.948 1.49779 26.879 1.78279L24.948 10.1888C24.878 10.4738 25.07 10.7098 25.362 10.7098L26.737 10.7078C27.029 10.7098 27.328 10.4758 27.397 10.1878L27.862 8.14679C27.93 7.86279 28.225 7.62379 28.522 7.62579H28.915C30.596 7.62579 31.899 7.27979 32.837 6.59479C33.764 5.90179 34.233 4.99479 34.233 3.86779C34.228 3.37679 34.143 2.96179 33.969 2.63479ZM31.008 5.38379C30.594 5.68179 30.016 5.83379 29.276 5.83379H28.934C28.639 5.83679 28.448 5.59679 28.514 5.31079L28.93 3.52979C28.991 3.24479 29.289 3.00579 29.586 3.00879L30.031 3.00579C30.559 3.00879 30.955 3.09579 31.225 3.27179C31.494 3.44779 31.621 3.72379 31.624 4.08979C31.627 4.64779 31.42 5.07779 31.008 5.38379Z" fill="#7C7A80"/>
<path d="M45.7421 1.85004C45.8051 1.56304 45.6251 1.33004 45.3301 1.33404H44.1001C43.8481 1.33404 43.6211 1.52104 43.5101 1.75104L43.4421 1.85704L43.3801 2.12904L41.6611 9.94304L41.6051 10.183L41.6071 10.189C41.5501 10.446 41.7081 10.64 41.9521 10.677L41.9731 10.706H43.2501C43.5001 10.706 43.7351 10.516 43.8421 10.282L43.9081 10.182L45.7461 1.85104L45.7421 1.85004Z" fill="#7C7A80"/>
<path d="M24.9861 3.47179C24.6611 3.47579 23.3401 3.47179 23.3401 3.47179C23.0441 3.47179 22.6641 3.71079 22.4761 3.99579C22.4761 3.99579 20.5101 7.36979 20.3191 7.70879L20.0911 7.70579L19.4791 4.01879C19.4111 3.72879 19.1081 3.48079 18.7311 3.48079L17.5011 3.48279C17.2051 3.48279 17.0231 3.71879 17.0901 4.00679C17.0901 4.00679 18.0241 9.32179 18.2111 10.5728C18.2981 11.2628 18.2001 11.3858 18.2001 11.3858L16.9841 13.5038C16.8041 13.7918 16.9011 14.0268 17.1961 14.0268L18.6181 14.0248C18.9141 14.0248 19.3031 13.7918 19.4791 13.5028L24.9491 4.25079C24.9491 4.25179 25.4751 3.46079 24.9861 3.47179Z" fill="#7C7A80"/>
</g>
<defs>
<clipPath id="clip0_49_461">
<rect width="51" height="15" fill="white"/>
</clipPath>
</defs>
</svg>
