<svg width="48" height="16" viewBox="0 0 48 16" fill="none" xmlns="http://www.w3.org/2000/svg">
<g clip-path="url(#clip0_49_472)">
<path d="M19.153 0.799316L16.722 15.0653H20.61L23.043 0.799316H19.153Z" fill="#7C7A80"/>
<path d="M13.4621 0.815012L9.65406 10.544L9.24806 9.07501C8.49706 7.30501 6.36506 4.76301 3.86206 3.16101L7.34406 15.058L11.4581 15.051L17.5811 0.812012L13.4621 0.815012Z" fill="#7C7A80"/>
<path d="M7.772 1.83625C7.546 0.967246 6.891 0.708246 6.078 0.677246H0.05L0 0.961246C4.691 2.09925 7.795 4.84125 9.083 8.13825L7.772 1.83625Z" fill="#7C7A80"/>
<path d="M30.923 3.5342C32.195 3.5142 33.117 3.7922 33.833 4.0802L34.184 4.2452L34.71 1.1532C33.94 0.864199 32.733 0.554199 31.227 0.554199C27.385 0.554199 24.677 2.4892 24.656 5.2622C24.631 7.3112 26.585 8.4552 28.061 9.1382C29.576 9.8382 30.084 10.2832 30.077 10.9082C30.065 11.8632 28.869 12.3012 27.752 12.3012C26.195 12.3012 25.368 12.0862 24.091 11.5542L23.59 11.3262L23.043 14.5192C23.953 14.9182 25.632 15.2612 27.375 15.2792C31.462 15.2792 34.118 13.3672 34.146 10.4042C34.163 8.7832 33.126 7.5462 30.879 6.5312C29.519 5.8692 28.687 5.4292 28.695 4.7612C28.695 4.1682 29.401 3.5342 30.923 3.5342Z" fill="#7C7A80"/>
<path d="M44.688 0.81543H41.684C40.751 0.81543 40.057 1.06943 39.647 1.99943L33.874 15.0734H37.957C37.957 15.0734 38.623 13.3154 38.774 12.9304C39.221 12.9304 43.188 12.9364 43.753 12.9364C43.869 13.4344 44.227 15.0734 44.227 15.0734H47.834L44.688 0.81543ZM39.893 10.0104C40.213 9.19143 41.442 6.02343 41.442 6.02343C41.421 6.06243 41.759 5.19843 41.96 4.66143L42.222 5.89143C42.222 5.89143 42.967 9.29743 43.123 10.0104H39.893Z" fill="#7C7A80"/>
</g>
<defs>
<clipPath id="clip0_49_472">
<rect width="48" height="16" fill="white"/>
</clipPath>
</defs>
</svg>
