<svg width="72" height="48" viewBox="0 0 72 48" fill="none" xmlns="http://www.w3.org/2000/svg">
<g clip-path="url(#clip0_80_683)">
<path d="M47.1241 31.483L32.3196 6.04082L42.9552 0L61.3645 31.483H47.1241Z" fill="black"/>
<path d="M7.69116 27.9184L18.3267 21.8367L23.9541 31.483H9.75499L7.69116 27.9184Z" fill="black"/>
<path d="M28.5632 47.7142H31.5902V35.6054H28.5632V47.7142Z" fill="black"/>
<path d="M66.4964 48C63.1117 48 61.0754 46.2721 60.9653 43.8367H64.1574C64.1574 44.5986 64.639 45.7143 66.7028 45.7551C68.0787 45.7551 68.7253 44.9523 68.7253 44.3537C68.6428 43.4013 67.432 43.3197 66.1387 43.1156C64.8453 42.9115 63.7446 42.6802 62.9466 42.2721C61.9284 41.7551 61.2405 40.6394 61.2405 39.3605C61.2405 37.1972 63.1392 35.483 66.3038 35.483C69.372 35.483 71.312 37.0748 71.5184 39.4421H68.4364C68.4089 38.8027 68.285 37.7959 66.4689 37.7959C65.2443 37.7959 64.4326 38.0408 64.3638 38.8843C64.3638 40.1224 66.9092 40.0408 68.8904 40.5578C70.7891 41.034 71.9999 42.2041 71.9999 43.8367C71.9999 46.8435 69.5371 48 66.4964 48Z" fill="black"/>
<path d="M20.1567 17.1156L30.7923 11.0476L42.7212 31.483H31.5903V34.4762H28.5634V31.4694L20.1567 17.1156Z" fill="black"/>
<path fill-rule="evenodd" clip-rule="evenodd" d="M20.432 48C16.9097 48 14.0479 45.1564 14.0479 41.7143C14.0479 38.2313 16.9097 35.483 20.432 35.483C21.7666 35.483 22.9773 35.8367 24.0368 36.5578V31.483H27.0637V47.7143H24.0368V46.9115C22.9773 47.5918 21.7666 48 20.432 48ZM16.951 41.7143C16.951 43.5918 18.5745 45.1564 20.5145 45.1564C22.4132 45.1564 24.0368 43.5918 24.0368 41.7143C24.0368 39.8367 22.4132 38.2313 20.5145 38.2313C18.5745 38.2313 16.951 39.8367 16.951 41.7143Z" fill="black"/>
<path fill-rule="evenodd" clip-rule="evenodd" d="M42.8036 31.483H45.7893V47.7143H42.8036V46.9115C41.7855 47.5918 40.5334 48 39.1575 48C35.6765 48 32.8147 45.1564 32.8147 41.7143C32.8147 38.2313 35.6765 35.483 39.1575 35.483C40.5334 35.483 41.7442 35.8367 42.8036 36.5578V31.483ZM35.7591 41.7143C35.7591 43.5918 37.3826 45.1564 39.2401 45.1564C41.1801 45.1564 42.8036 43.5918 42.8036 41.7143C42.8036 39.8367 41.1801 38.2313 39.2401 38.2313C37.3826 38.2313 35.7591 39.8367 35.7591 41.7143Z" fill="black"/>
<path fill-rule="evenodd" clip-rule="evenodd" d="M53.1504 48C49.6832 48 46.8076 45.1564 46.8076 41.7143C46.8076 38.2313 49.6832 35.483 53.1504 35.483C54.4851 35.483 55.7371 35.8367 56.7553 36.5578V35.5918H59.7822V47.7142H56.7553V46.9115C55.7371 47.5918 54.5263 48 53.1504 48ZM49.752 41.7143C49.752 43.5918 51.3755 45.1564 53.2743 45.1564C55.173 45.1564 56.7553 43.5918 56.7553 41.7143C56.7553 39.8367 55.173 38.2313 53.2743 38.2313C51.3755 38.2313 49.752 39.8367 49.752 41.7143Z" fill="black"/>
<path fill-rule="evenodd" clip-rule="evenodd" d="M2.91687 41.7143C2.91687 43.5918 4.54042 45.1564 6.43914 45.1564C8.37913 45.1564 10.0027 43.5918 10.0027 41.7143C10.0027 39.8367 8.37913 38.2313 6.43914 38.2313C4.54042 38.2313 2.91687 39.8367 2.91687 41.7143ZM6.35658 48C2.8756 48 0 45.1564 0 41.7143C0 38.2313 2.8756 35.483 6.35658 35.483C7.69119 35.483 8.94324 35.8367 10.0027 36.5578V35.5918H12.9883V47.7142H10.0027V46.9115C8.98452 47.5918 7.73247 48 6.35658 48Z" fill="black"/>
</g>
<defs>
<clipPath id="clip0_80_683">
<rect width="72" height="48" fill="white"/>
</clipPath>
</defs>
</svg>
