<svg width="153" height="24" viewBox="0 0 153 24" fill="none" xmlns="http://www.w3.org/2000/svg">
<path d="M112.893 21.3228L108.286 13.3112C110.327 12.3427 111.626 10.3005 111.628 8.05786C111.628 4.8342 108.982 2.21137 105.729 2.21137H95.8773V21.322H100.259V13.9043H103.746L108.011 21.3228H112.893ZM100.187 10.2152V5.90973H104.909L104.89 5.91709C106.328 5.99357 107.244 6.81943 107.244 8.06668C107.244 9.30033 106.262 10.1648 104.8 10.2163H100.187V10.2152ZM77.9845 21.3228V2.21137H92.3887V5.85789H82.4842V9.68127H91.1683V13.409H82.4842V17.4858H92.8787V21.3228H77.9845ZM57.4403 21.3228L52.8338 13.3112C54.8739 12.3427 56.1732 10.3001 56.1751 8.05786C56.1751 4.8342 53.5293 2.21137 50.2773 2.21137H40.4244V21.322H44.8062V13.9043H48.2944L52.5585 21.3228H57.4403ZM44.7331 10.2152V5.90973H49.4557L49.4372 5.91709C50.8745 5.99357 51.7911 6.81943 51.7911 8.06668C51.7911 9.30033 50.8096 10.1648 49.3467 10.2163H44.7331V10.2152ZM28.7484 21.7938C34.0196 21.7938 37.1677 18.7893 37.1677 13.7576V2.22535H32.6683V13.4594C32.6683 16.1801 31.2395 17.7406 28.7487 17.7406H28.7461C26.2554 17.7406 24.8273 16.1804 24.8273 13.4594V2.22535H20.3261V13.7584C20.3261 18.7896 23.4741 21.7942 28.7461 21.7942H28.7484V21.7938ZM14.4413 10.738C17.0378 11.6158 18.3034 13.8054 18.3034 15.9168C18.3034 18.8915 15.8668 21.3132 12.8686 21.3228H2.22559V2.2099H12.0281C14.5797 2.23343 16.6368 4.28926 16.6398 6.81906C16.6432 8.4149 15.8108 9.89821 14.4413 10.7373V10.738ZM6.64259 17.7568H11.5618C13.1082 17.7568 13.9172 16.6136 13.9172 15.4833C13.9172 14.5728 13.1869 13.291 11.5618 13.291H6.64259V17.7568ZM10.2447 9.72613C11.3775 9.72613 12.2662 8.85872 12.2662 7.75119C12.2662 6.68044 11.3389 5.77626 10.2439 5.77626H6.64259V9.72613H10.2447Z" fill="black"/>
<path d="M71.7066 10.7344C74.3031 11.6114 75.5687 13.8018 75.5687 15.9131C75.5687 18.8882 73.1321 21.3088 70.1339 21.3191L59.4912 21.3184V2.20624L69.2922 2.20587C71.8446 2.22977 73.9017 4.28597 73.9047 6.81613C73.9077 8.41197 73.0757 9.89491 71.7062 10.7336L71.7066 10.7344ZM63.9078 17.7531H68.8267C70.3731 17.7531 71.1821 16.6099 71.1821 15.4796C71.1821 14.5695 70.451 13.2873 68.8267 13.2873H63.9078V17.7531ZM67.5088 9.72246C68.6431 9.72246 69.5318 8.85505 69.5318 7.74753C69.5318 6.67678 68.6045 5.77259 67.5088 5.77259H63.9078V9.72246H67.5088Z" fill="black"/>
<path d="M131.96 21.3228L127.353 13.3112C129.393 12.3427 130.692 10.3001 130.694 8.05785C130.694 4.8342 128.048 2.21136 124.797 2.21136H114.944V21.322H119.326V13.9043H122.814L127.078 21.3228H131.96H131.96ZM119.252 10.2152V5.90973H123.975L123.956 5.91708C125.394 5.99356 126.311 6.81943 126.311 8.06668C126.311 9.30032 125.329 10.1648 123.866 10.2163H119.252V10.2152ZM138.362 21.3228V13.5352L130.714 2.21136H136.332L140.735 8.78186L145.156 2.21136H150.774L143.108 13.5352V21.3228H138.362Z" fill="black"/>
</svg>
