<svg width="91" height="44" viewBox="0 0 91 44" fill="none" xmlns="http://www.w3.org/2000/svg">
<g clip-path="url(#clip0_80_696)">
<path fill-rule="evenodd" clip-rule="evenodd" d="M58.7564 15.9898C58.3296 15.4177 58.2556 14.4062 57.3896 14.3163C56.5491 14.0878 55.7123 13.8443 54.8639 13.6465C53.2026 13.9186 51.5412 14.1906 49.8799 14.4626C49.6852 15.3633 49.4906 16.2639 49.2959 17.1645C51.9822 17.517 54.6685 17.8694 57.3549 18.2218C58.0556 18.6917 58.7564 19.1616 59.4572 19.6315C61.287 19.8273 63.1168 20.0231 64.9467 20.2189C65.8032 19.9056 66.6597 19.5924 67.5162 19.2791C64.8532 18.4147 62.1259 17.7259 59.5377 16.6494C59.2195 16.502 58.9987 16.2325 58.7564 15.9898Z" fill="#DB0026"/>
<path d="M68.5478 19.1622C68.3678 18.9262 68.0777 18.8318 67.877 18.7413C67.6808 18.648 67.709 18.4555 67.5449 18.3997C67.3769 18.3454 67.0832 18.6897 66.855 18.6182C66.627 18.543 66.6438 18.1146 66.4533 18.0512C66.2583 17.9894 65.9193 18.3107 65.742 18.2537C65.5635 18.2015 65.5287 17.7513 65.3565 17.694C65.1861 17.6418 64.8243 17.9619 64.6479 17.907C64.4706 17.8469 64.4592 17.4085 64.2624 17.3433C64.0665 17.283 63.7221 17.6107 63.5512 17.5515C63.3745 17.4966 63.3574 17.0591 63.1696 16.9954C62.9797 16.9348 62.6314 17.2561 62.4562 17.1982C62.2756 17.1397 62.2264 16.6901 62.062 16.6358C61.894 16.5842 61.5661 16.8494 61.2994 16.834C59.4488 16.6605 58.7408 15.4895 58.6148 15.8359C58.4912 16.1753 59.0006 17.0012 59.6408 17.28C60.1514 17.5033 65.664 19.0382 65.8086 19.1067C65.9493 19.1767 66.2976 19.3327 66.1737 19.5348C65.9817 19.7934 65.4435 19.5375 65.3064 19.4235C65.1678 19.3076 65.1993 19.2654 65.0694 19.2304C64.7736 19.1598 64.6098 19.7014 64.2975 19.629C64.0131 19.5647 64.0329 18.9899 63.744 18.9229C63.4255 18.8451 63.2812 19.39 62.9779 19.3188C62.7262 19.2618 62.6917 18.6764 62.4217 18.6109C62.1115 18.5355 61.9708 19.0816 61.6477 19.0059C61.3699 18.9404 61.3855 18.3695 61.0948 18.2992C60.8044 18.2301 60.6019 18.7594 60.3278 18.6969C60.0527 18.6326 60.0125 18.0494 59.7683 17.9912C59.5184 17.9353 59.3216 18.2319 58.9859 18.276C58.9859 18.276 58.0214 18.5382 56.4969 16.9363C54.969 15.3377 54.3426 15.0269 53.4733 15.6784C52.0537 16.7417 51.172 16.0386 50.9152 15.7224C50.6066 15.36 50.9296 15.0269 50.9296 15.0269C50.9296 15.0269 51.3805 15.727 51.9481 15.7396C52.8625 15.7671 53.5522 14.5119 55.1193 14.4896C57.1047 14.4177 57.6221 15.1271 58.1648 15.1835C58.6676 15.233 58.8353 15.1516 59.1833 14.9485H59.1812C59.4626 14.8477 59.7074 15.3947 60.0023 15.2843C60.314 15.166 60.086 14.6148 60.4216 14.4877C60.7354 14.3749 60.9403 14.9289 61.2406 14.8163C61.5565 14.7005 61.3552 14.1338 61.6585 14.0234C61.9708 13.9099 62.1532 14.4696 62.4772 14.3501C62.8027 14.2337 62.5924 13.6728 62.8888 13.5599C63.1945 13.4477 63.4156 13.9986 63.7158 13.8912C64.0002 13.7889 63.8376 13.2024 64.1337 13.0955C64.4412 12.9845 64.6398 13.5373 64.9674 13.4163C65.2368 13.3218 65.0877 12.7347 65.367 12.6282C65.646 12.5235 65.9052 13.0678 66.1956 12.9586C66.468 12.8575 66.3087 12.2739 66.5985 12.1647C66.9054 12.0534 67.142 12.5977 67.4321 12.4951C67.7192 12.3913 67.5014 11.9206 67.8758 11.7335C67.8758 11.7335 68.3942 11.5621 68.3615 11.1795C68.3573 11.1153 68.2502 10.2973 67.3964 10.1238C66.5754 9.95782 60.0917 11.7616 60.0077 11.6575C59.411 10.4717 58.6463 10.8012 58.5299 10.8277C58.4111 10.8579 57.6872 11.1678 56.8857 10.8579C55.311 10.1413 54.054 11.964 53.1916 11.7242C52.3975 11.4997 51.7903 11.6291 51.4573 11.7432C51.1525 11.8494 50.6585 12.2486 49.6109 11.8862C41.5153 9.10603 35.1882 11.5365 35.1882 11.5365C31.6207 12.7353 31.1645 11.5365 31.1645 11.5365C31.1645 11.5365 29.9903 9.93248 38.2565 8.01919C50.138 5.27402 50.4962 0.731129 50.3555 0.443879C50.1605 0.027186 50.0861 0.518106 49.6949 0.9698C49.3664 1.34516 48.9848 1.15959 48.9848 1.15959C48.611 0.979154 48.3719 1.40852 48.3719 1.40852C48.3719 1.40852 47.891 2.15923 47.4657 1.73228C47.0571 1.32132 46.5144 2.24885 46.3116 2.28566C46.0689 2.32881 45.9504 2.20962 45.6246 2.05906C45.1365 1.84211 44.6127 2.73645 44.3445 2.79981C43.9339 2.89425 43.6456 2.31312 43.2925 2.55842C42.2368 3.29164 42.0706 3.39362 41.7862 3.10818C41.5762 2.89244 41.5453 2.6583 40.8401 3.3375C40.2398 3.91652 39.9524 4.02485 39.7115 3.65673C39.4634 3.2862 39.5273 2.7805 38.4959 3.77592C38.0036 4.25145 37.7516 4.2605 37.4697 4.04687C37.2573 3.88635 37.2588 3.12085 36.519 3.81394C35.8485 4.43792 35.3616 4.71129 35.1717 4.15731C34.962 3.53483 34.1719 4.27197 33.9892 4.44546C33.7996 4.61896 33.3934 5.07789 33.1087 4.60417C32.8243 4.12774 32.1427 4.83892 31.7374 5.29031C31.4248 5.64093 31.172 5.37027 30.8423 5.1479C30.4673 4.88931 29.345 6.46496 29.2433 6.5594C29.1407 6.64902 29.0624 6.5594 28.8053 6.34004C28.4102 6.00331 27.3444 7.87526 27.1719 7.99746C27.1719 7.99746 27.099 8.15889 26.8083 7.87979C26.3946 7.48422 24.1996 10.3908 23.371 13.6794C22.3111 17.8952 23.9998 21.128 23.9998 21.128C23.9998 21.128 24.5071 21.1437 24.7231 20.7988L25.0518 20.0535C25.3182 19.4322 25.755 19.6278 25.755 19.6278L24.7201 22.7272C24.5566 23.1354 24.6553 23.7129 25.017 24.2588C25.3578 24.8073 25.5927 25.1781 25.866 25.4331C26.7063 26.2291 26.6205 25.2877 26.6424 25.17C26.7408 24.6661 27.2955 25.0532 27.7314 25.2946C28.5218 25.7409 28.4339 24.7554 28.6073 24.4341C28.7276 24.2038 29.1164 24.1936 29.5382 24.549C29.8667 24.8251 30.1931 23.8897 30.1931 23.8897C30.6029 21.8968 29.6402 21.6663 29.1194 21.637L28.0652 21.5884C28.0652 21.5884 28.1345 21.2852 28.2443 21.0012L28.2914 20.8C29.441 17.9187 27.5199 17.3627 26.9451 17.4085C26.3109 17.4655 26.3553 17.0591 26.3553 17.0591C26.3553 17.0591 29.8277 16.3715 29.1803 20.0752C29.1803 20.0752 29.0525 20.7203 28.9757 21.0568L29.93 21.1687C30.7511 21.2719 30.8969 22.2489 30.8969 22.2489C30.8969 22.2489 33.9172 23.0518 35.6301 22.7308C35.6301 22.7308 36.3957 22.5473 36.6084 22.0682C36.6084 22.0682 37.7177 19.4392 40.9564 19.3281C40.9564 19.3281 41.0704 19.6685 40.553 19.8456C39.9326 20.0559 37.8653 20.221 37.4358 22.6095V22.6188C37.389 23.0108 37.4934 23.8454 38.3387 24.2319C39.0587 24.5587 39.3125 25.8776 39.4619 26.2336C39.8813 27.2447 40.5092 26.2783 40.5092 26.2783C40.5092 26.2783 40.907 25.4624 41.2483 25.915C41.8252 26.6784 42.0931 26.2936 42.2242 25.8076C42.3676 25.2828 42.5764 25.0541 43.1803 25.692C43.4383 25.969 43.9447 25.7551 43.9951 25.281C44.1019 24.2376 44.8026 25.0674 44.9028 25.1075C45.0228 25.1534 45.7566 24.9874 45.3459 23.8107C45.3459 23.8107 44.7912 22.6894 42.2905 22.2058C41.7037 22.0938 41.797 21.6666 41.797 21.6666L42.3478 21.7444C42.5122 21.7713 43.9666 21.9336 44.1214 21.9583C50.2217 22.5639 54.8502 20.4826 54.9894 20.3341C59.7281 21.2475 66.1716 20.9361 67.3811 20.4977C68.597 20.0668 68.6876 19.3526 68.5478 19.1622ZM58.7636 11.5564C58.8626 11.3959 58.9562 11.3051 59.0423 11.2613C59.4101 11.051 59.6447 11.7094 59.6 11.7335C59.5979 11.7347 59.5895 11.7374 59.5859 11.739C59.5853 11.7399 59.5853 11.7423 59.5847 11.7432C59.5268 11.7712 58.8173 11.9737 58.7474 11.9272C58.607 11.8292 58.7636 11.5564 58.7636 11.5564ZM56.0694 11.7646C56.0694 11.7646 56.1609 11.6484 56.3382 11.5893C56.5131 11.5253 56.7774 11.5145 57.1275 11.7414C57.53 11.9987 57.5198 12.1997 57.5198 12.1997C57.5066 12.2063 57.4886 12.213 57.4685 12.2202C57.1767 12.3337 55.9794 12.4815 55.9794 12.4815C55.7466 12.05 56.0694 11.7646 56.0694 11.7646ZM33.7357 5.93663C33.937 6.09262 33.7441 6.99088 33.6007 6.85842L32.5666 6.30836C32.5666 6.30836 33.5296 5.78516 33.7357 5.93663ZM32.0539 6.51022C32.2573 6.6626 32.0668 7.56297 31.9225 7.429L30.8915 6.87773C30.8918 6.87773 31.8496 6.35423 32.0539 6.51022ZM31.4722 8.26661C31.6765 8.42019 31.4848 9.32207 31.339 9.19172L30.3062 8.63382C30.3062 8.63382 31.2667 8.11423 31.4722 8.26661ZM30.488 10.625L29.4539 10.0725C29.4539 10.0725 30.4157 9.54837 30.6197 9.70256C30.8264 9.85614 30.629 10.7574 30.488 10.625ZM30.2933 12.4037L29.2622 11.8512C29.2622 11.8512 30.2219 11.3295 30.4265 11.4804C30.6308 11.6324 30.4403 12.5301 30.2933 12.4037ZM30.2744 7.13632C30.4796 7.2896 30.2861 8.18605 30.1418 8.05841L29.1071 7.50413C29.1074 7.50413 30.0707 6.98092 30.2744 7.13632ZM29.3774 8.50558C29.5799 8.65856 29.3882 9.55531 29.2454 9.42768L28.2128 8.8752C28.2125 8.8752 29.1731 8.35019 29.3774 8.50558ZM27.5343 10.6539C27.5343 10.6539 28.4978 10.128 28.6994 10.2837C28.9049 10.4361 28.7114 11.3343 28.5671 11.2043L27.5343 10.6539ZM28.3259 12.9039L27.2952 12.3494C27.2952 12.3494 28.2566 11.8292 28.4594 11.9828C28.6646 12.1354 28.4723 13.0331 28.3259 12.9039ZM27.591 9.12926C27.7944 9.27892 27.6021 10.179 27.4578 10.0489L26.4285 9.49466C26.4285 9.49466 27.3846 8.97447 27.591 9.12926ZM26.6619 10.9409C26.8665 11.0932 26.6748 11.9969 26.5272 11.8639L25.4967 11.3123C25.497 11.3123 26.4579 10.793 26.6619 10.9409ZM25.3044 13.0871C25.3044 13.0871 26.2653 12.5675 26.469 12.7205C26.6751 12.872 26.4789 13.7729 26.3373 13.6423L25.3044 13.0871ZM27.1467 15.1172L26.115 14.5641C26.115 14.5641 27.0765 14.0403 27.2808 14.1939C27.4851 14.348 27.2901 15.2457 27.1467 15.1172ZM28.6265 16.3229L27.5946 15.7722C27.5946 15.7722 28.5566 15.2484 28.7606 15.4005C28.9631 15.5513 28.7678 16.4559 28.6265 16.3229ZM29.0891 14.4407L28.0565 13.8858C28.0565 13.8858 29.0183 13.3662 29.2223 13.515C29.4266 13.6688 29.2331 14.5671 29.0891 14.4407ZM30.4619 17.1351L29.4317 16.583C29.4317 16.583 30.3878 16.0604 30.5942 16.2137C30.7979 16.3678 30.6083 17.2619 30.4619 17.1351ZM30.9575 15.4014L29.9264 14.8492C29.9264 14.8492 30.8861 14.3296 31.0895 14.4829C31.2934 14.6341 31.1036 15.5338 30.9575 15.4014ZM31.2988 13.7627L30.2678 13.2093C30.2678 13.2093 31.2274 12.6897 31.4335 12.8424C31.6381 12.9969 31.4428 13.8918 31.2988 13.7627ZM32.7496 16.9257L31.7182 16.3699C31.7182 16.3699 32.6782 15.8513 32.884 16.0018C33.0907 16.1548 32.8951 17.057 32.7496 16.9257ZM33.1963 15.1995L32.1655 14.6483C32.1655 14.6483 33.127 14.1229 33.3313 14.2783C33.5323 14.4268 33.3388 15.3284 33.1963 15.1995ZM33.5704 13.3707L32.539 12.8179C32.539 12.8179 33.4993 12.2999 33.7054 12.4501C33.9082 12.6037 33.7147 13.5011 33.5704 13.3707ZM35.0193 16.602L33.9847 16.0495C33.9847 16.0495 34.9464 15.5263 35.1525 15.6787C35.355 15.8359 35.1597 16.735 35.0193 16.602ZM35.3658 14.7554L34.3348 14.2002C34.3348 14.2002 35.2965 13.6791 35.4999 13.8306C35.7045 13.9857 35.5107 14.8803 35.3658 14.7554ZM35.7255 12.8596L34.6941 12.3062C34.6941 12.3062 35.6541 11.7857 35.8593 11.9372C36.063 12.0941 35.8704 12.9899 35.7255 12.8596ZM37.2783 15.8721L36.2457 15.3244C36.2457 15.3244 37.2072 14.8015 37.4088 14.9536C37.6161 15.106 37.4226 16.0033 37.2783 15.8721ZM37.5606 14.0532L36.5265 13.5035C36.5265 13.5035 37.4874 12.9815 37.6902 13.1321C37.8998 13.2862 37.7034 14.1884 37.5606 14.0532ZM37.9187 12.2706L36.8841 11.7211C36.8841 11.7211 37.8473 11.1958 38.0498 11.3473C38.2538 11.5024 38.0609 12.4037 37.9187 12.2706ZM39.4991 15.4877L38.4671 14.9343C38.4671 14.9343 39.4259 14.4114 39.6323 14.5644C39.8387 14.7189 39.644 15.6153 39.4991 15.4877ZM39.7808 13.7895L38.7479 13.2386C38.7479 13.2386 39.7106 12.712 39.9131 12.8689C40.1171 13.0174 39.9242 13.9208 39.7808 13.7895ZM40.1207 11.9779L39.0866 11.4264C39.0866 11.4264 40.0484 10.8986 40.2545 11.0558C40.4585 11.2097 40.2674 12.1062 40.1207 11.9779ZM41.5507 15.5197L40.5209 14.9672C40.5209 14.9672 41.4808 14.4425 41.6848 14.5991C41.8894 14.7502 41.6956 15.6485 41.5507 15.5197ZM41.8915 13.6963L40.8569 13.145C40.8569 13.145 41.8201 12.6191 42.0247 12.7751C42.2272 12.9293 42.0337 13.826 41.8915 13.6963ZM42.2779 11.8814L41.245 11.3298C41.245 11.3298 42.2068 10.8039 42.4114 10.9605C42.6175 11.1126 42.4222 12.0126 42.2779 11.8814ZM43.7014 15.5197L42.6685 14.9645C42.6685 14.9645 43.6288 14.4428 43.8331 14.5994C44.0371 14.7502 43.8472 15.6485 43.7014 15.5197ZM44.0317 13.7974L43.0015 13.2431C43.0015 13.2431 43.9606 12.7256 44.1646 12.8732C44.3694 13.028 44.1769 13.9286 44.0317 13.7974ZM44.4222 12.035L43.393 11.4831C43.393 11.4831 44.3529 10.962 44.5581 11.1126C44.7594 11.2655 44.5665 12.165 44.4222 12.035ZM45.723 15.7798L44.6904 15.2216C44.6904 15.2216 45.6522 14.7041 45.8562 14.8583C46.0626 15.0079 45.8697 15.9083 45.723 15.7798ZM46.0881 14.1097L45.0561 13.559C45.0561 13.559 46.0188 13.037 46.2213 13.1897C46.4277 13.3454 46.2285 14.2421 46.0881 14.1097ZM46.4823 12.4037L45.4476 11.8539C45.4476 11.8539 46.41 11.331 46.6155 11.4804C46.8189 11.6324 46.6227 12.5301 46.4823 12.4037ZM48.0911 14.4699L47.0604 13.9232C47.0604 13.9232 48.02 13.3991 48.2261 13.5493C48.4289 13.7038 48.2357 14.6021 48.0911 14.4699Z" fill="#004526"/>
<path d="M20.9689 30.2017C20.7535 29.6263 20.344 29.3782 19.594 29.3668C19.5256 29.3646 16.056 29.3701 16.056 29.3701L10.9204 43.4348C10.9204 43.4348 13.4184 43.4348 13.4202 43.4348C13.6356 43.4505 13.836 43.4164 14.016 43.3349C14.5026 43.1119 14.7411 42.5446 14.8104 42.3512C14.8104 42.3561 15.5091 40.3918 15.5571 40.2632C15.9147 40.2632 20.4487 40.2614 20.7238 40.2614C20.8318 40.5927 21.7735 43.4284 21.7735 43.4284H25.1568L23.0106 36.5836L20.9689 30.2017ZM19.927 37.3748C19.414 37.3748 16.6478 37.3754 16.4456 37.3754C16.8212 36.3413 17.756 33.7253 18.1553 32.6662C18.5003 33.7343 19.918 37.3401 19.927 37.3748Z" fill="black"/>
<path d="M45.3144 29.2576H45.3126C41.3104 29.263 38.4077 32.2846 38.4077 36.4388C38.4077 40.5092 41.3746 43.5799 45.3144 43.5799C49.2521 43.5799 52.3396 40.4452 52.3396 36.4388C52.3396 32.4113 49.2521 29.2576 45.3144 29.2576ZM45.4146 40.4422C43.3747 40.4422 41.776 38.6677 41.776 36.4008C41.776 34.1547 43.3402 32.4626 45.4122 32.4626C47.4692 32.4626 48.9611 34.1176 48.9611 36.4008C48.9608 38.7063 47.4353 40.4422 45.4146 40.4422Z" fill="black"/>
<path d="M61.3932 35.1769L61.2618 35.1383C61.2654 35.1401 59.9605 34.7409 59.9572 34.7373L59.7622 34.6676C58.6963 34.2802 57.9394 33.9555 57.9394 33.3312C57.9394 33.3158 57.9394 33.2998 57.9394 33.2854C58.0453 32.2495 59.9575 32.2383 59.9761 32.2383C61.0302 32.2383 61.8408 32.4007 62.8677 32.8156L62.8896 32.8237L62.9337 32.8367C63.1707 32.885 63.3783 32.8916 63.5463 32.8542L63.8307 32.7459C64.2386 32.5202 64.6445 31.3244 64.8002 30.8208L64.8506 30.6594L64.7249 30.5435C64.6757 30.4958 64.3766 30.2481 63.2889 29.8399C62.1825 29.4232 60.6157 29.358 60.6157 29.358L59.8426 29.3547C55.8053 29.3547 54.264 31.8606 54.2151 33.5436C54.1818 35.2204 55.1306 36.0833 56.5652 36.8672C57.1652 37.2015 58.2613 37.509 59.056 37.7326C59.0518 37.729 59.8786 37.9752 59.8786 37.9752C61.3824 38.4504 61.9572 38.9781 61.8504 39.7967C61.8024 40.0674 61.2942 40.5152 60.1396 40.5152C59.2609 40.5152 58.4671 40.3794 57.6407 40.0894C57.2438 39.9307 56.8331 39.7258 56.3993 39.467L56.3786 39.4537L56.3342 39.4344C56.0942 39.3444 55.8791 39.3067 55.6946 39.3224L55.3769 39.3912C54.9134 39.5656 54.2688 40.7493 54.0111 41.2499L53.9097 41.4475L54.0849 41.5872C54.1161 41.6084 54.8333 42.1819 55.4426 42.5407C56.1602 42.9405 56.9657 43.2302 57.9169 43.4236C58.3003 43.4939 58.9093 43.5829 59.8636 43.5829C62.9919 43.5829 65.2646 41.9888 65.5259 39.6154C65.6396 37.4619 64.3259 36.0568 61.3932 35.1769Z" fill="black"/>
<path d="M68.0813 29.3873C67.9514 29.3852 67.2689 29.3988 66.8766 29.7639C66.696 29.9307 66.6015 30.1537 66.6015 30.4051L66.5994 32.6303C66.5994 32.6303 70.3735 32.6273 70.8679 32.6273C70.8679 33.1505 70.8679 43.4402 70.8679 43.4402L74.3643 43.4372C74.3643 43.4372 74.3643 33.1496 74.3643 32.6273C74.8305 32.6267 77.1116 32.6267 77.1116 32.6267C77.2409 32.6267 77.9219 32.6119 78.3158 32.2486C78.4943 32.0782 78.5915 31.8603 78.5915 31.6053V29.3873H68.0813Z" fill="black"/>
<path d="M8.10477 40.2572C8.10477 40.2572 5.16876 40.2572 4.17969 40.2572C4.17969 39.7385 4.16859 30.6703 4.16859 30.6703C4.16859 30.2723 4.05039 29.9564 3.8122 29.7355C3.43181 29.3764 2.86573 29.3782 2.65453 29.3828L0.591797 29.3782L0.597197 43.4348H9.34733L9.35393 41.201C9.35393 40.915 9.23243 40.2572 8.10477 40.2572Z" fill="black"/>
<path d="M33.1237 32.3753C33.9717 32.3186 34.6854 32.3753 35.3586 32.5606C35.7201 32.6819 36.0465 32.706 36.3231 32.6276C36.324 32.627 36.6021 32.503 36.6021 32.503C36.9935 32.2604 37.2737 31.0248 37.406 30.3127L37.4363 30.1458L37.2938 30.0427C37.2581 30.0164 37.1468 29.9383 35.8797 29.5943C34.7256 29.2814 33.6984 29.2431 33.1921 29.2467L33.1363 29.2473C30.2405 29.2473 25.8795 31.1699 25.7544 36.4638V36.494C25.8795 41.7897 30.2408 43.7118 33.1384 43.7118L33.1921 43.7139C33.6984 43.716 34.7238 43.6743 35.8797 43.362C37.1471 43.0211 37.2581 42.942 37.295 42.9152L37.4366 42.8144L37.4063 42.6466C37.274 41.9306 36.9938 40.6977 36.6024 40.4533V40.4515L36.3243 40.3284C36.0468 40.2524 35.7201 40.2771 35.3535 40.4008C34.6839 40.5819 33.9705 40.6404 33.1135 40.5837C30.9202 40.368 29.603 38.8665 29.5037 36.4668C29.6027 34.0904 30.9202 32.5893 33.1237 32.3753Z" fill="black"/>
<path d="M88.9509 43.4284C89.4909 43.4164 90.4086 43.0962 90.4086 42.0163L90.3981 40.2524L84.2362 40.2551C84.2362 40.2551 84.2467 38.2335 84.2467 37.8986C84.7522 37.8986 89.3331 37.8986 89.3331 37.8986L89.3244 34.6465C89.3244 34.6465 84.7588 34.6519 84.2554 34.6519C84.2542 34.2675 84.2554 33.0174 84.2554 32.6306C84.7591 32.6306 88.9248 32.6249 88.9248 32.6249C89.0529 32.627 89.7501 32.6276 90.1278 32.2486C90.3914 31.9828 90.4035 31.4988 90.4035 31.2469V29.39H80.7104L80.7122 43.4396L88.9509 43.4284Z" fill="black"/>
</g>
<defs>
<clipPath id="clip0_80_696">
<rect width="91" height="44" fill="white"/>
</clipPath>
</defs>
</svg>
