<svg width="73" height="26" viewBox="0 0 73 26" fill="none" xmlns="http://www.w3.org/2000/svg">
<g clip-path="url(#clip0_79_651)">
<path d="M8.05245 25.9891C5.87735 25.9027 4.09779 25.3079 2.70632 24.2032C2.44077 23.9922 1.80798 23.3594 1.59568 23.0925C1.03142 22.3835 0.6478 21.6934 0.391927 20.9277C-0.395429 18.5709 0.00979528 15.4782 1.55099 12.084C2.87057 9.17809 4.90675 6.29605 8.45916 2.30444C8.98245 1.71708 10.5408 -0.000671387 10.5508 -0.000671387C10.5546 -0.000671387 10.4696 0.146352 10.3627 0.325388C9.43907 1.87156 8.64874 3.69279 8.21819 5.26949C7.52655 7.79941 7.60998 9.97053 8.46251 11.654C9.05061 12.8139 10.0588 13.8185 11.1926 14.3738C13.1773 15.3457 16.0832 15.4261 19.6319 14.609C19.8762 14.5525 31.983 11.3406 46.5361 7.47149C61.0891 3.60197 72.9982 0.438539 73 0.441143C73.0041 0.444499 39.1891 14.905 21.6353 22.4069C18.8553 23.5946 18.1119 23.8946 16.805 24.3532C13.4641 25.5257 10.4715 26.0851 8.05245 25.9891Z" fill="black"/>
</g>
<defs>
<clipPath id="clip0_79_651">
<rect width="73" height="26" fill="white"/>
</clipPath>
</defs>
</svg>
