<svg width="93" height="35" viewBox="0 0 93 35" fill="none" xmlns="http://www.w3.org/2000/svg">
<g clip-path="url(#clip0_80_655)">
<path fill-rule="evenodd" clip-rule="evenodd" d="M45.6614 0.000104328C51.0437 -0.00593738 55.2725 0.249414 59.8532 1.03128C64.8542 1.88495 69.5183 3.03642 73.2742 5.19617C73.5517 5.35574 73.7637 5.45987 74.124 5.69195C75.588 6.63535 77.4104 8.14648 77.761 10.1742C78.0442 11.8136 77.2804 13.149 76.4563 14.101C75.6009 15.089 74.5518 15.841 73.4322 16.4809C68.8649 19.0921 62.8431 20.4821 56.5918 21.2011C53.6868 21.5352 50.6405 21.7763 47.0649 21.7763C43.5886 21.7763 40.5189 21.6354 37.5575 21.3399C31.5349 20.7391 25.2268 19.4722 20.4801 17.0559C19.298 16.4544 18.192 15.7976 17.1989 14.9141C16.256 14.0754 15.3572 13.0351 15.1038 11.6022C14.6779 9.19473 16.3688 7.44368 17.7721 6.3663C19.2761 5.21146 21.2114 4.24673 23.0693 3.55016C26.931 2.10192 31.6007 1.13968 36.2333 0.575135C39.3208 0.198947 42.0604 0.00401361 45.6614 0.000104328ZM45.8 2.1618C41.6219 2.1618 37.654 2.92288 34.1777 4.20462C32.4753 4.83225 30.9623 5.6031 29.6314 6.72331C28.4701 7.701 27.0967 9.26864 27.4177 11.4236C27.6946 13.2823 29.1675 14.6081 30.4221 15.4893C31.8227 16.4729 33.5027 17.2165 35.2056 17.7699C38.8844 18.9657 43.0058 19.4806 47.2625 19.4359C51.3066 19.3933 55.5603 18.6896 58.9044 17.3735C60.5534 16.7243 62.1354 15.9297 63.4306 14.8349C64.6234 13.8268 65.8895 12.1985 65.5655 10.1742C65.2751 8.36098 63.8971 7.03516 62.5611 6.10846C61.0918 5.0892 59.5342 4.41839 57.7778 3.82772C55.0883 2.92341 52.0324 2.38694 49.1007 2.24123C48.1811 2.19539 46.9713 2.10778 45.8393 2.1618C45.8263 2.16251 45.813 2.1618 45.8 2.1618Z" fill="black"/>
<path fill-rule="evenodd" clip-rule="evenodd" d="M4.2129 25.8617C5.9968 25.8579 7.58394 25.8415 9.03562 26.1396C9.52228 26.2393 10.0692 26.4281 10.2413 26.7937C10.4028 27.1369 10.3401 27.7059 10.3401 28.5391C10.3401 30.0856 10.3401 31.504 10.3401 33.1204C10.3401 33.4135 10.3771 33.7834 10.3006 33.9932C10.0628 34.6434 8.76927 34.7971 8.10657 34.8657C6.32212 35.0508 4.19926 35.0386 2.37463 34.8657C1.65915 34.7979 0.37926 34.6438 0.101571 34.0325C-0.0636621 33.6692 0.0224073 32.811 0.0224073 32.2677C0.0224073 30.9474 0.0224073 29.9813 0.0224073 28.6186C0.0224073 27.9748 -0.0737568 27.1247 0.180555 26.7344C0.438233 26.339 1.28405 26.1194 1.97934 26.0204C2.75502 25.9099 3.34671 25.8635 4.2129 25.8617ZM4.05474 26.9922C3.9832 27.1383 4.01508 27.5549 4.01508 27.8054C4.01508 29.3361 4.01508 30.6224 4.01508 32.1288C4.01508 32.6409 3.91449 33.5292 4.0744 33.8146C4.23999 34.1097 4.69761 34.1062 5.1616 34.1121C5.52891 34.1166 6.08907 34.1388 6.26846 33.8344C6.43086 33.5585 6.3278 32.7361 6.3278 32.1884C6.3278 30.7854 6.3278 30.089 6.3278 28.7374C6.3278 28.3662 6.42041 27.3174 6.30796 27.0319C6.16451 26.6674 5.21403 26.6916 4.88481 26.7146C4.64855 26.7309 4.17748 26.7415 4.05474 26.9922Z" fill="black"/>
<path fill-rule="evenodd" clip-rule="evenodd" d="M19.6498 25.9608C21.2515 25.9605 23.0227 25.961 24.69 25.9608C25.8472 28.9117 27.0087 31.8582 28.149 34.826C26.6337 34.826 25.1183 34.826 23.6028 34.826C23.3529 34.0984 23.1248 33.3492 22.8716 32.6245C22.02 32.5928 21.0347 32.5906 20.1835 32.6245C19.9401 33.3258 19.7542 34.0845 19.5511 34.826C18.5165 34.826 17.4822 34.826 16.4478 34.826C17.2176 32.6216 18.0315 30.414 18.8196 28.2021C19.0842 27.4595 19.389 26.6164 19.6498 25.9608ZM20.3812 31.5931C21.0735 31.5605 21.9025 31.5605 22.5949 31.5931C22.201 30.4284 21.8216 29.2489 21.3891 28.1227C21.0719 29.2984 20.7003 30.4196 20.3812 31.5931Z" fill="black"/>
<path fill-rule="evenodd" clip-rule="evenodd" d="M39.1584 29.5308C40.099 28.5555 41.0825 27.4586 42.0639 26.3774C42.1827 26.2464 42.394 25.9896 42.4988 25.9609C42.7344 25.8961 43.154 25.9609 43.4279 25.9609C44.3308 25.9609 45.2872 25.9772 46.1751 25.941C46.2134 26.0478 46.0672 26.1037 46.017 26.1592C44.9922 27.2916 43.8907 28.4934 42.8347 29.6101C43.8809 31.3437 44.9998 33.11 45.9974 34.8261C44.4753 34.8261 42.9533 34.8261 41.4314 34.8261C40.6249 33.5858 39.9418 32.2218 39.1584 30.9588C39.1584 32.2478 39.1584 33.5369 39.1584 34.8261C37.7221 34.8261 36.2858 34.8261 34.8495 34.8261C34.8361 31.9633 34.8758 28.8766 34.8296 25.9807C36.2004 25.9347 37.7613 25.9738 39.0989 25.9609C39.2073 25.9494 39.1584 26.2005 39.1584 26.3377C39.1584 27.3458 39.1584 28.5107 39.1584 29.5308Z" fill="black"/>
<path fill-rule="evenodd" clip-rule="evenodd" d="M52.7771 25.9608C54.2067 25.9608 55.6366 25.9608 57.0663 25.9608C57.0661 28.5061 57.0663 31.1569 57.0663 33.636C58.4894 33.6491 59.9652 33.6096 61.3554 33.6558C61.3554 34.046 61.3554 34.4359 61.3554 34.826C58.4827 34.826 55.6101 34.826 52.7375 34.826C52.7832 32.1073 52.7446 28.8897 52.7573 26.0005C52.7176 25.9828 52.766 25.9135 52.7771 25.9608Z" fill="black"/>
<path fill-rule="evenodd" clip-rule="evenodd" d="M67.7791 25.9609C70.5925 25.9609 73.4056 25.9609 76.219 25.9609C76.219 26.3377 76.219 26.7145 76.219 27.0914C74.8486 27.0914 73.4783 27.0914 72.1079 27.0914C72.0616 27.9575 72.1012 28.9092 72.0881 29.8085C73.1423 29.8216 74.2491 29.7821 75.2704 29.8283C75.2778 30.2108 75.2561 30.5767 75.2902 30.8597C74.2293 30.8597 73.1686 30.8597 72.1079 30.8597C72.1079 31.7982 72.1079 32.737 72.1079 33.6759C73.4321 33.7219 74.8421 33.6824 76.1995 33.6957C76.1995 34.0724 76.1995 34.4492 76.1995 34.8261C73.386 34.8261 70.5728 34.8261 67.7595 34.8261C67.7595 31.8843 67.7595 28.9423 67.7595 26.0005C67.751 25.9625 67.7729 25.9288 67.7791 25.9609Z" fill="black"/>
<path fill-rule="evenodd" clip-rule="evenodd" d="M92.9802 25.941C92.997 25.9374 92.9987 25.9488 92.9999 25.9608C91.8348 27.8128 90.5249 29.6918 89.3037 31.5536C89.3166 32.6188 89.2779 33.84 89.3236 34.8062C87.9135 34.8524 86.4179 34.8128 84.9751 34.826C84.974 34.0503 84.9751 33.2311 84.9751 32.3867C84.9751 32.1163 85.0251 31.8087 84.9751 31.5735C84.9312 31.3671 84.6547 31.0856 84.5007 30.8596C83.3914 29.2291 82.2879 27.5665 81.2395 25.9608C82.7614 25.9608 84.2833 25.9608 85.8051 25.9608C86.4785 27.0239 87.0898 28.1491 87.7225 29.2531C88.3855 28.1731 89.0008 27.0451 89.6595 25.9608C90.7599 25.9477 91.9128 25.9872 92.9802 25.941Z" fill="black"/>
</g>
<defs>
<clipPath id="clip0_80_655">
<rect width="93" height="35" fill="white"/>
</clipPath>
</defs>
</svg>
