<svg width="73" height="73" viewBox="0 0 73 73" fill="none" xmlns="http://www.w3.org/2000/svg">
<g clip-path="url(#clip0_80_713)">
<path fill-rule="evenodd" clip-rule="evenodd" d="M71.9206 59.7203V48.2289H1.07324V59.7203H71.9206Z" fill="#001C4E"/>
<path fill-rule="evenodd" clip-rule="evenodd" d="M10.1978 56.4281H9.8225V54.1395H6.59886V56.4281H6.22355V51.5964H6.59886V53.8282H9.8225V51.5964H10.1978V56.4281ZM16.5387 56.4281H16.1634V51.5964H16.5387V56.4281ZM22.8727 56.116H25.2601V56.4281H22.497V51.5964H22.8727V56.116ZM33.1526 51.9077H31.0413V53.743H32.9473V54.0543H31.0413V56.4281H30.666V51.5964H33.1526V51.9077ZM38.9977 56.4281H38.6217V51.5964H38.9977V56.4281ZM49.0012 52.3686C48.413 52.0357 47.8673 51.8797 47.2867 51.8797C46.0612 51.8797 45.1542 52.7867 45.1542 54.0123C45.1542 55.0958 45.8696 56.1448 47.3924 56.1448C47.9525 56.1448 48.3354 56.0384 48.7179 55.8475V54.5436H47.6972V54.2323H49.0932V56.0816C48.5191 56.3576 47.9385 56.4921 47.3787 56.4921C45.8771 56.4921 44.7508 55.4298 44.7508 53.9986C44.7508 52.5815 45.8491 51.5332 47.3443 51.5332C47.8893 51.5332 48.3214 51.6388 49.0019 51.9437V52.3686H49.0012ZM57.545 51.9077H55.2852V53.8422H57.4882V54.1535H55.2852V56.116H57.6022V56.4281H54.9095V51.5964H57.545V51.9077ZM63.6022 51.9077H64.3884C65.2746 51.9077 65.6636 52.305 65.6636 52.85C65.6636 53.4313 65.2531 53.7998 64.4025 53.7998H63.6022V51.9077ZM63.2273 51.5964V56.4281H63.6022V54.1115H64.254C64.8353 54.1115 65.0194 54.1891 65.6003 55.1033L66.4437 56.4281H66.883L65.792 54.7564C65.5647 54.4163 65.3735 54.1395 65.147 54.0198C65.7632 53.7926 66.068 53.4029 66.068 52.8439C66.068 52.1989 65.6499 51.5968 64.4672 51.5968H63.2273V51.5964ZM1.12109 24.7711V48.2289H36.3342V24.7711H1.12109Z" fill="white"/>
<path fill-rule="evenodd" clip-rule="evenodd" d="M36.3342 48.2289H71.9208V50.4587H71.9268V24.7711H36.3342V48.2289Z" fill="#B81D37"/>
<path fill-rule="evenodd" clip-rule="evenodd" d="M71.9266 24.7711V13.2797H1.07886V24.7711H71.9266Z" fill="#001C4E"/>
<path fill-rule="evenodd" clip-rule="evenodd" d="M10.1708 17.1729H8.35709V21.6929H7.9814V17.1729H6.16772V16.8609H10.1708V17.1729ZM23.8091 19.2767C23.8091 20.481 22.8741 21.4093 21.6626 21.4093C20.451 21.4093 19.5016 20.481 19.5016 19.2767C19.5016 18.0724 20.4507 17.1445 21.6626 17.1445C22.8737 17.1445 23.8091 18.0724 23.8091 19.2767ZM24.2128 19.2767C24.2128 17.8879 23.0862 16.7972 21.6485 16.7972C20.2174 16.7972 19.0979 17.8883 19.0979 19.2767C19.0979 20.6651 20.2174 21.7562 21.6485 21.7562C23.0862 21.7565 24.2128 20.6655 24.2128 19.2767ZM38.2409 16.8609H38.6166V21.6929H38.2409V17.4062H38.2269L36.3988 19.6664L34.5711 17.4062H34.5567V21.6929H34.181V16.8609H34.5567L36.3988 19.107L38.2409 16.8609ZM52.842 16.8609H53.2176V21.6929H52.842V17.4062H52.8279L51.0003 19.6664L49.1726 17.4062H49.1586V21.6929H48.7829V16.8609H49.1586L51.0003 19.107L52.842 16.8609ZM65.0919 19.0998V21.6929H64.7163V19.0998L62.839 16.8609H63.2923L64.9079 18.7738L66.5159 16.8609H66.9692L65.0919 19.0998Z" fill="white"/>
</g>
<defs>
<clipPath id="clip0_80_713">
<rect width="73" height="73" fill="white"/>
</clipPath>
</defs>
</svg>
