<svg width="45" height="45" viewBox="0 0 45 45" fill="none" xmlns="http://www.w3.org/2000/svg">
<path d="M13.125 12.1875V8.4375C13.125 7.40197 13.9644 6.5625 15 6.5625H39.375C40.4106 6.5625 41.25 7.40197 41.25 8.4375V25.3125C41.25 26.3481 40.4106 27.1875 39.375 27.1875H37.5" stroke="#7C7A80" stroke-width="2" stroke-linecap="round" stroke-linejoin="round"/>
<path d="M30 17.8125H5.625C4.58947 17.8125 3.75 18.652 3.75 19.6875V36.5625C3.75 37.598 4.58947 38.4375 5.625 38.4375H30C31.0355 38.4375 31.875 37.598 31.875 36.5625V19.6875C31.875 18.652 31.0355 17.8125 30 17.8125Z" stroke="#7C7A80" stroke-width="2" stroke-linecap="round" stroke-linejoin="round"/>
<path d="M3.75 26.25H31.875" stroke="#7C7A80" stroke-width="2" stroke-linecap="round" stroke-linejoin="round"/>
<path d="M31.875 21.5625V32.8125" stroke="#7C7A80" stroke-width="2" stroke-linecap="round" stroke-linejoin="round"/>
<path d="M3.75 21.5625V32.8125" stroke="#7C7A80" stroke-width="2" stroke-linecap="round" stroke-linejoin="round"/>
<path d="M10.3125 31.875H17.8125" stroke="#7C7A80" stroke-width="2" stroke-linecap="round" stroke-linejoin="round"/>
<path d="M23.4375 31.875H25.3125" stroke="#7C7A80" stroke-width="2" stroke-linecap="round" stroke-linejoin="round"/>
</svg>
