<svg width="187" height="264" viewBox="0 0 187 264" fill="none" xmlns="http://www.w3.org/2000/svg">
<path d="M90.0979 140.177C90.2361 140.534 90.4466 141.033 90.7419 141.603C91.1 142.293 91.3482 142.773 91.7565 143.2C92.3 143.767 92.721 143.814 93.5377 144.244C93.9775 144.473 95.3911 145.213 96.2739 146.498C96.4561 146.765 96.7733 147.668 97.411 149.474C97.744 150.418 97.9514 151.055 98.4854 151.836C99.0948 152.723 99.566 152.974 99.7137 153.046C99.8959 153.137 100.848 153.576 101.68 153.153C102.104 152.936 102.428 152.535 102.695 151.804C103.534 149.499 102.214 148.333 102.833 145.699C103.034 144.849 103.229 144.021 103.939 143.397C104.649 142.776 105.296 142.858 105.799 142.093C105.984 141.814 105.805 141.942 106.276 140.497C106.461 139.923 106.65 139.412 106.738 138.656C106.766 138.408 106.779 138.286 106.769 138.242C106.628 137.693 102.99 137.85 90.0979 140.177Z" fill="#D1E5C3"/>
<path d="M90.6351 170.801C89.6455 174.213 88.3859 179.368 87.767 185.771C87.4215 189.33 87.4246 191.717 87.3241 196.395C87.1387 204.878 86.922 206.383 86.6204 215.138C86.3817 222.118 86.1178 232.893 86.0455 249.086C96.5346 248.977 107.024 248.867 117.513 248.76C117.55 232.056 117.66 220.369 117.758 212.52C117.896 201.435 118.075 192.112 115.216 179.798C114.321 175.947 113.366 172.817 112.675 170.716" fill="#FCFCFC"/>
<path d="M67.0339 84.6636C68.8308 83.864 70.323 83.5661 71.2968 83.4375C73.8256 83.102 75.0256 83.6163 78.4277 83.4375C79.8068 83.3654 80.7775 83.218 82.034 83.0299C88.3262 82.0797 98.0865 79.292 102.44 78.0408C103.081 77.8558 108.312 76.3506 114.488 76.1593C116.184 76.106 118.49 76.1342 119.567 77.6332C120.111 78.3889 120.397 79.593 119.894 80.3331C119.313 81.1954 117.968 80.9853 115.468 81.07C115.044 81.0857 113.247 81.2989 109.65 81.7254C107.294 82.0045 105.12 82.2616 102.519 82.8699C100.838 83.2619 98.9126 83.8953 95.0613 85.1591C92.0016 86.1657 91.7032 86.3256 90.3901 86.6329C88.4236 87.0907 86.9723 87.2162 84.3272 87.4513C82.5586 87.6081 81.0728 87.6646 78.0979 87.7775C71.5387 88.0283 75.2235 87.6426 72.035 87.7775C71.2811 87.8088 69.7324 87.8904 68.1837 87.1221C66.9805 86.5263 66.8266 85.9399 66.792 85.7329C66.7135 85.2814 66.8989 84.8863 67.0339 84.6636Z" fill="#B7D4E8"/>
<path d="M137.234 248.553C137.225 248.462 137.222 248.374 137.218 248.283C137.212 248.123 137.206 247.973 137.174 247.851C135.475 240.939 134.69 233.793 133.929 226.881C133.719 224.953 133.499 222.959 133.263 220.999L133.238 220.798C133.163 220.221 133.059 219.462 133.618 218.917C133.615 218.907 133.612 218.901 133.612 218.891C129.481 222.526 125.872 225.433 121.741 227.775C121.562 227.879 121.458 227.948 121.402 227.995C121.455 228.051 121.552 228.139 121.738 228.277C123.217 229.365 124.483 230.428 125.614 231.529C127.245 233.115 128.328 234.777 129.374 236.386C130.486 238.092 131.536 239.704 133.198 241.256C133.999 242.005 133.845 243.297 133.741 243.818C133.465 245.198 133.622 246.493 133.807 247.992L133.923 248.97L117.663 248.951L117.685 239.268L117.723 238.885C117.846 237.7 117.959 236.584 117.604 235.489L117.582 235.42L117.572 234.721L117.575 234.674C117.949 231.071 117.827 227.389 117.707 223.827L117.679 222.952L117.67 212.018C117.689 211.676 117.717 211.362 117.745 211.046C117.852 209.845 117.956 208.709 117.478 207.624L117.443 207.549L117.026 201.061L116.966 200.578L116.463 191.199L116.438 190.998C116.357 190.374 116.269 189.732 116.423 189.051C116.438 188.841 116.46 188.631 116.482 188.421C116.583 187.458 116.677 186.546 116.253 185.699L116.228 185.652L116.215 185.602C116.08 185.053 115.961 184.398 116.108 183.701L116.118 183.654C116.237 183.021 116.341 182.475 115.995 182.005L115.926 181.911L115.911 181.795C115.593 179.575 114.748 176.988 113.928 174.485C113.526 173.262 113.149 172.105 112.845 171.023C112.731 170.622 112.763 170.302 112.942 170.07C113.052 169.926 113.265 169.753 113.661 169.753C114.161 169.753 114.811 170.026 115.383 170.271C115.606 170.365 115.835 170.462 115.945 170.49C122.319 172.13 128.388 174.805 134.256 177.389L135.88 178.104C140.357 180.07 142.034 183.579 143.175 187.076C144.62 191.5 145.311 196.129 145.977 200.607C146.077 201.284 146.178 201.964 146.281 202.642L146.586 204.639C148.015 214.018 149.495 223.717 151.461 233.172C152.153 236.499 152.517 239.942 152.872 243.272C152.988 244.364 153.104 245.455 153.23 246.546C153.305 247.205 153.525 247.785 153.745 248.321L154.009 248.967L137.272 248.983L137.234 248.553ZM127.15 193.328C127.97 195.266 128.721 197.22 129.422 199.164C128.891 197.308 128.206 195.436 127.232 193.491C127.207 193.438 127.179 193.382 127.15 193.328ZM117.776 173.062C117.808 173.168 117.908 173.347 117.959 173.441L118.022 173.554C119.85 176.956 121.427 180.534 122.953 183.996C123.535 185.31 124.128 186.655 124.735 187.994C124.719 187.944 124.706 187.891 124.694 187.841C123.777 184.338 122.049 181.121 120.374 178.007C119.602 176.574 118.807 175.091 118.094 173.592L118.078 173.554C118.015 173.422 117.871 173.121 117.776 173.062Z" fill="#FCFCFC"/>
<path d="M113.661 170.227C114.274 170.227 115.405 170.838 115.826 170.948C122.737 172.726 129.177 175.68 135.689 178.537C139.782 180.334 141.485 183.429 142.725 187.226C144.371 192.268 145.019 197.508 145.813 202.717C147.375 212.93 148.892 223.144 151 233.269C151.911 237.647 152.241 242.146 152.759 246.599C152.841 247.292 153.057 247.885 153.306 248.496C148.103 248.503 142.901 248.506 137.702 248.512C137.68 248.252 137.693 247.985 137.63 247.738C135.462 238.932 134.809 229.907 133.732 220.942C133.647 220.249 133.468 219.515 134.162 219.092C134.046 218.697 133.939 218.333 133.838 218.004C134.41 217.305 134.504 216.565 134.2 215.583C133.386 212.974 132.598 210.362 131.784 207.756C130.779 202.852 130.169 198.292 127.659 193.284C126.748 191.466 125.671 189.703 125.152 187.725C123.799 182.544 120.78 178.148 118.521 173.394C118.364 173.062 118.154 172.594 117.786 172.594C117.704 172.594 117.616 172.616 117.519 172.67C117.063 172.911 117.425 173.444 117.61 173.786C120.478 179.123 122.674 184.774 125.25 190.227C127.942 195.928 129.927 201.823 131.784 207.762C132.177 209.678 132.632 211.648 133.282 213.714C132.585 214.495 132.824 214.667 133.842 218.01C133.716 218.164 133.565 218.318 133.392 218.471C129.664 221.754 125.85 224.915 121.512 227.377C120.695 227.841 120.682 228.089 121.465 228.666C122.803 229.65 124.1 230.716 125.291 231.874C128.548 235.044 129.55 238.5 132.88 241.61C133.455 242.146 133.405 243.125 133.282 243.736C132.965 245.332 133.191 246.787 133.395 248.512C128.31 248.506 123.224 248.5 118.138 248.493C118.144 245.43 118.15 242.366 118.16 239.302C118.289 237.982 118.48 236.662 118.056 235.357C118.053 235.151 118.05 234.944 118.05 234.737C118.458 230.811 118.282 226.881 118.157 222.952C118.154 219.312 118.15 215.674 118.147 212.033C118.235 210.497 118.571 208.948 117.915 207.452C117.777 205.316 117.641 203.184 117.503 201.049C117.484 200.882 117.462 200.719 117.444 200.553C117.28 197.527 117.117 194.498 116.957 191.472C117.186 191.356 117.17 191.252 116.938 191.161C116.853 190.49 116.734 189.819 116.894 189.142C116.988 187.919 117.274 186.687 116.68 185.508C116.542 184.953 116.454 184.391 116.577 183.817C116.712 183.109 116.862 182.397 116.382 181.745C115.901 178.386 114.23 174.197 113.3 170.914C113.159 170.396 113.338 170.227 113.661 170.227ZM113.661 169.286C113.042 169.286 112.709 169.603 112.568 169.788C112.298 170.145 112.238 170.603 112.395 171.155C112.703 172.243 113.083 173.407 113.485 174.636C114.299 177.116 115.138 179.681 115.449 181.864L115.483 182.099L115.625 182.29C115.829 182.566 115.794 182.877 115.662 183.573L115.653 183.623C115.49 184.407 115.618 185.125 115.766 185.721L115.791 185.821L115.838 185.915C116.203 186.64 116.118 187.446 116.021 188.377C115.999 188.581 115.977 188.785 115.961 188.988C115.801 189.735 115.895 190.44 115.977 191.064L116.005 191.268L116.008 191.287L116.017 191.513L116.156 194.103L116.504 200.594L116.507 200.625L116.511 200.657L116.567 201.124L116.975 207.502L116.985 207.668L117.051 207.822C117.478 208.797 117.384 209.873 117.28 211.011C117.252 211.325 117.224 211.648 117.205 211.971V211.999V212.027L117.214 222.946V222.962V222.977L117.243 223.849C117.362 227.396 117.484 231.065 117.114 234.633L117.107 234.686V234.74L117.114 235.361L117.117 235.505L117.161 235.643C117.484 236.64 117.374 237.712 117.258 238.844L117.221 239.208L117.217 239.252V239.296L117.205 244.627L117.195 248.487L117.192 249.428H118.135L133.389 249.447H134.451L134.328 248.393L134.275 247.941C134.096 246.48 133.942 245.22 134.203 243.915C134.35 243.172 134.46 241.795 133.518 240.917C131.897 239.406 130.864 237.816 129.767 236.135C128.705 234.505 127.609 232.817 125.941 231.196C124.848 230.133 123.629 229.102 122.215 228.051C125.872 225.947 129.126 223.404 132.711 220.306C132.723 220.509 132.748 220.701 132.77 220.864C132.78 220.93 132.789 220.992 132.795 221.058C133.031 223.012 133.248 225.006 133.461 226.932C134.222 233.859 135.01 241.024 136.716 247.963C136.735 248.042 136.741 248.17 136.747 248.305C136.75 248.402 136.757 248.5 136.763 248.594L136.835 249.456H137.702L153.306 249.44H154.707L154.179 248.145C153.921 247.512 153.758 247.038 153.695 246.496C153.569 245.408 153.45 244.298 153.337 243.225C152.982 239.886 152.618 236.433 151.92 233.084C149.957 223.639 148.477 213.943 147.048 204.564L146.746 202.579C146.643 201.902 146.542 201.224 146.442 200.547C145.773 196.05 145.078 191.4 143.621 186.938C142.443 183.335 140.715 179.719 136.066 177.681C135.525 177.442 134.982 177.204 134.442 176.966C128.555 174.372 122.467 171.691 116.058 170.042C115.98 170.023 115.738 169.92 115.562 169.844C114.824 169.524 114.214 169.286 113.661 169.286Z" fill="black"/>
<path d="M51.4433 249.011C50.9784 249.011 50.3815 248.939 49.9134 248.365L49.8223 248.252L49.8098 248.108C49.659 246.415 50.0799 244.828 50.4852 243.291C50.6737 242.573 50.8716 241.833 51.0004 241.102C52.1752 234.473 53.4004 227.738 54.5878 221.228C56.5355 210.535 58.5522 199.478 60.3868 188.578C61.1219 184.21 63.7858 181.996 66.5533 180.255C71.2371 177.311 77.5073 173.655 84.4906 171.513C84.9712 171.365 85.4519 171.227 85.9356 171.093C86.4979 170.933 87.0791 170.766 87.6414 170.588C87.8016 170.538 87.9869 170.465 88.1817 170.393C88.7095 170.193 89.2561 169.989 89.6802 169.989C90.0571 169.989 90.2582 170.152 90.3587 170.29C90.5189 170.506 90.5472 170.792 90.4435 171.143C88.9545 176.144 87.2267 182.588 87.0508 188.064C86.8937 192.955 86.7053 197.929 86.5231 202.736C86.4445 204.834 86.3629 206.935 86.2843 209.033L86.2812 209.092L86.2623 209.149C85.8602 210.472 86.0142 211.871 86.1618 213.219L86.165 213.247L85.9168 228.606L85.832 228.725C85.7283 228.873 85.6875 229.042 85.832 229.387L85.8697 229.475L85.8602 233.219C85.8477 237.631 85.8382 242.043 85.8288 246.455C85.8288 246.916 85.8351 247.377 85.8445 247.841L85.8602 248.958H85.3325C82.7911 248.958 81.1482 248.701 79.5618 248.45C77.9377 248.196 76.4047 247.954 73.9387 247.954H73.5115L73.4267 247.587C73.3136 247.089 73.3952 246.578 73.4706 246.126C73.546 245.662 73.6183 245.223 73.4644 244.906C71.9062 241.72 71.8403 240.237 74.5827 238.265C75.2141 237.81 75.1764 237.518 75.0979 236.882C75.0256 236.298 74.9345 235.574 75.3932 234.63C76.8476 231.642 79.4518 229.638 81.7796 227.995C81.9932 227.844 82.0937 227.747 82.144 227.691C82.0874 227.637 81.9649 227.546 81.7105 227.402C79.2225 225.982 77.7555 223.473 76.3356 221.052C75.2361 219.174 74.0989 217.233 72.5031 215.853C71.3848 214.887 70.7219 213.934 71.1272 212.432C74.5764 199.584 77.3691 189.183 83.2686 177.719C77.4696 188.587 74.7617 197.797 71.0518 211.165C70.8947 211.733 70.6622 212.222 70.4581 212.651C69.9586 213.702 69.8455 214.025 70.5397 214.492C71.7146 215.282 70.8067 220.87 70.7973 220.927C70.3701 223.116 69.8832 225.706 69.4905 228.302C68.7617 233.141 68.0455 238.067 67.3512 242.83C67.0716 244.749 66.4528 248.992 66.4528 248.992H62.724C59.2056 248.992 55.6873 248.992 52.169 248.98C52.0496 248.98 51.9396 248.986 51.8297 248.989C51.6946 249.005 51.5689 249.011 51.4433 249.011ZM85.81 172.971C85.7126 173.021 85.5524 173.432 85.477 173.629C85.455 173.683 85.4361 173.736 85.4142 173.792C85.4487 173.742 85.4833 173.695 85.5178 173.642C85.6435 173.466 85.8634 173.153 85.9011 172.999C85.8382 172.971 85.81 172.971 85.81 172.971Z" fill="#FCFCFC"/>
<path d="M89.677 170.456C89.9597 170.456 90.1105 170.597 89.9911 171.005C88.4267 176.263 86.7523 182.591 86.5796 188.045C86.3565 195.034 86.0707 202.024 85.8131 209.011C85.3859 210.419 85.5398 211.845 85.6937 213.269C85.612 218.33 85.5304 223.394 85.4487 228.456C85.1942 228.816 85.2414 229.189 85.3984 229.569C85.3827 235.198 85.3701 240.826 85.3576 246.455C85.3576 247.132 85.3733 247.81 85.3827 248.487C85.367 248.487 85.3482 248.487 85.3325 248.487C80.322 248.487 78.9492 247.487 73.9387 247.487C73.923 247.487 73.9041 247.487 73.8884 247.487C73.6811 246.574 74.2874 245.524 73.8884 244.705C72.3774 241.62 72.4057 240.416 74.8591 238.653C76.4141 237.534 74.9282 236.671 75.8172 234.84C77.1837 232.027 79.568 230.136 82.0529 228.384C82.9356 227.76 82.7848 227.48 81.9429 226.998C77.6549 224.548 76.524 218.713 72.8109 215.502C71.79 214.617 71.2402 213.824 71.5826 212.557C75.4026 198.333 78.4057 187.176 85.6434 174.307C85.945 173.77 86.8089 172.93 86.1209 172.579C86.0078 172.522 85.9073 172.494 85.8162 172.494C85.2571 172.494 85.1 173.473 84.8204 173.955C77.4193 186.806 74.5481 196.803 70.5994 211.039C70.103 212.824 68.7711 213.868 70.2758 214.884C71.0046 215.373 70.5051 219.954 70.3324 220.839C69.8549 223.297 69.3931 225.759 69.0224 228.236C68.0046 234.997 67.0308 241.761 66.0412 248.525C61.4171 248.522 56.7899 248.525 52.1658 248.512C52.1626 248.512 52.1595 248.512 52.1563 248.512C51.9239 248.512 51.682 248.534 51.4433 248.534C51.0192 248.534 50.6077 248.462 50.2778 248.061C50.0673 245.665 51.0569 243.467 51.4621 241.178C54.5626 223.664 57.8956 206.188 60.8485 188.65C61.5177 184.683 63.8329 182.516 66.8015 180.647C72.4214 177.113 78.2267 173.918 84.6256 171.955C85.6717 171.632 86.7366 171.359 87.7796 171.03C88.3356 170.86 89.1963 170.456 89.677 170.456ZM89.677 169.515C89.1681 169.515 88.5806 169.738 88.0121 169.951C87.8204 170.023 87.6382 170.092 87.4969 170.136C86.9408 170.312 86.366 170.475 85.8068 170.635C85.3293 170.769 84.8361 170.911 84.3492 171.061C77.3157 173.222 71.0078 176.897 66.2988 179.857C63.437 181.657 60.6852 183.949 59.9187 188.499C58.0841 199.396 56.0674 210.453 54.1197 221.146C52.9323 227.659 51.7071 234.392 50.5323 241.021C50.4066 241.733 50.2213 242.432 50.0265 243.172C49.6118 244.746 49.1815 246.374 49.3385 248.148L49.3637 248.437L49.5459 248.66C50.1459 249.393 50.9155 249.478 51.4401 249.478C51.5752 249.478 51.7103 249.472 51.8422 249.466C51.9459 249.459 52.0495 249.456 52.1532 249.456C55.6716 249.466 59.237 249.466 62.6863 249.466H66.0381H66.8517L66.9711 248.66C67.2507 246.741 67.5303 244.821 67.8098 242.902C68.5041 238.139 69.2203 233.213 69.9491 228.374C70.3386 225.784 70.8287 223.203 71.2528 221.018C71.3533 220.5 71.523 219.08 71.5795 217.753C71.6203 216.797 71.5952 216.091 71.5198 215.568C71.7303 215.8 71.9596 216.013 72.1889 216.21C73.7251 217.537 74.7931 219.359 75.924 221.29C77.3502 223.724 78.8235 226.239 81.3366 227.734C79.0057 229.39 76.4329 231.413 74.969 234.429C74.4476 235.499 74.5544 236.336 74.6298 236.944C74.7052 237.549 74.7114 237.597 74.3062 237.888C71.2654 240.074 71.457 241.886 73.0371 245.119C73.1251 245.301 73.0622 245.684 73.0025 246.057C72.9209 246.549 72.8298 247.107 72.9648 247.697L73.1313 248.431H73.8853H73.9355C76.367 248.431 77.8811 248.669 79.4863 248.92C81.0916 249.171 82.7502 249.431 85.3293 249.431H85.3796H86.3314L86.3188 248.481C86.3157 248.265 86.3126 248.048 86.3094 247.832C86.3031 247.383 86.2937 246.916 86.2937 246.465C86.3031 242.15 86.3126 237.835 86.3251 233.52L86.3345 229.578V229.39L86.2623 229.215C86.2089 229.086 86.2058 229.03 86.2058 229.014C86.2058 229.014 86.2089 229.008 86.212 229.001L86.3785 228.766L86.3817 228.478L86.6267 213.291V213.231L86.6204 213.172C86.4728 211.808 86.3314 210.519 86.7052 209.286L86.7398 209.17L86.7429 209.048C86.8215 206.944 86.9 204.84 86.9817 202.736C87.1639 197.932 87.3524 192.965 87.5094 188.079C87.6822 182.657 89.4037 176.251 90.8833 171.277C91.0686 170.653 90.899 170.243 90.7231 170.011C90.5974 169.822 90.2801 169.515 89.677 169.515ZM70.6214 213.978C70.5177 213.887 70.4926 213.796 70.5554 213.601C70.5711 213.733 70.5931 213.859 70.6214 213.978Z" fill="black"/>
<path d="M97.7849 166.119C93.6288 166.119 89.6173 165.15 85.8602 163.237C78.4403 159.462 73.2978 153.623 70.5711 145.884C67.0968 136.009 64.8538 125.297 63.9083 114.043C63.459 108.693 62.9501 102.629 62.9721 96.6613C62.9878 90.0855 63.2925 83.0801 65.4098 76.3914C67.4737 69.8752 70.9292 64.7796 75.6853 61.2487C80.4256 57.7303 86.212 55.9429 92.8812 55.9429C93.6257 55.9429 94.3922 55.9648 95.1555 56.0119C102.877 56.4728 109.772 59.0693 115.65 63.7259C120.23 67.3572 123.516 72.1863 125.696 78.4987C129.227 88.7214 131.266 99.4866 131.925 111.403C132.337 118.85 132.576 125.056 131.589 131.491C129.918 142.409 126.544 150.487 120.971 156.913C117.833 160.531 113.589 162.312 109.509 163.83C105.431 165.348 101.485 166.119 97.7849 166.119ZM107.335 151.243C107.228 151.243 107.108 151.271 106.98 151.331C106.125 151.717 105.723 152.62 105.902 153.749C106.059 154.743 107.259 155.749 108.007 155.749C108.041 155.749 108.076 155.746 108.111 155.743C108.839 155.639 109.188 155.178 109.301 154.156C109.307 153.564 109.006 153.052 108.676 152.588C108.61 152.494 108.541 152.394 108.472 152.29C108.126 151.776 107.768 151.243 107.335 151.243ZM89.7115 140.569C89.9817 140.569 90.4592 140.682 90.6257 141.444C90.9618 143.008 92.2058 143.77 93.5 144.363C95.655 145.348 96.9147 146.843 97.3451 148.929C97.5776 150.048 98.0236 151.102 98.6739 152.058C99.3242 153.015 99.943 153.441 100.688 153.441C100.804 153.441 100.926 153.429 101.052 153.41C102.004 153.244 102.572 152.579 102.789 151.375C102.918 150.669 102.918 149.91 102.905 149.129C102.899 148.621 102.858 148.101 102.821 147.596C102.792 147.226 102.764 146.856 102.748 146.486C102.67 144.755 103.307 143.607 104.696 142.977C105.522 142.601 106.48 141.839 106.351 140.327C106.298 139.7 106.402 139.267 106.678 138.966C107.017 138.596 107.517 138.546 107.957 138.546C108.073 138.546 108.199 138.549 108.327 138.556C112.242 138.744 116.284 139.22 120.689 140.007C120.777 140.023 120.868 140.045 120.962 140.064C121.132 140.102 121.311 140.142 121.439 140.142C121.471 140.142 121.49 140.139 121.502 140.139C121.502 140.133 121.505 140.127 121.509 140.114C121.531 140.02 121.521 139.985 121.521 139.982C121.465 139.938 121.169 139.907 121.009 139.888C120.902 139.876 120.795 139.863 120.701 139.848C116.247 139.067 111.758 138.556 107.363 138.327C106.508 138.295 105.648 138.28 104.809 138.28C95.9221 138.28 88.2539 140.033 81.368 143.642C81.123 143.77 80.8277 143.874 80.5419 143.977C80.1806 144.106 79.5743 144.322 79.4958 144.501C79.4895 144.514 79.4989 144.545 79.5083 144.576C79.5146 144.576 79.5209 144.576 79.5303 144.576C79.857 144.576 80.5042 144.222 80.9785 143.962C81.1544 143.868 81.3178 143.777 81.4686 143.701C84.1105 142.378 86.5607 141.406 88.9639 140.729C89.0204 140.713 89.0738 140.694 89.1304 140.678C89.3126 140.631 89.5042 140.569 89.7115 140.569ZM93.1765 150.381C92.6864 150.412 92.2246 150.585 92.1492 151.657C92.1178 152.108 92.2812 152.563 92.5953 152.899C92.8686 153.19 93.2236 153.357 93.5754 153.357H93.6226C94.2822 153.331 94.5775 153.012 94.6435 152.262C94.6058 151.199 93.855 150.381 93.2236 150.381H93.1765ZM78.8298 149.553C78.8989 149.553 78.9712 149.559 79.0466 149.565C79.1031 149.568 79.1596 149.575 79.2162 149.575C79.2162 149.575 79.2193 149.575 79.2225 149.575C79.2256 149.559 79.2256 149.55 79.2256 149.54C79.1628 149.509 79.0183 149.478 78.9303 149.459C78.8204 149.434 78.7104 149.409 78.613 149.377C76.7062 148.744 75.4214 147.659 74.9031 146.235C74.3879 144.824 74.6643 143.19 75.701 141.509C75.7418 141.444 75.7889 141.378 75.8361 141.309C75.88 141.246 75.946 141.152 75.9806 141.086C75.9774 141.086 75.9711 141.086 75.968 141.086C75.9209 141.086 75.8015 141.133 75.5502 141.44C74.3565 142.886 74.0643 144.357 74.6581 145.934C75.3743 147.856 76.7408 149.042 78.8298 149.553ZM124.631 136.216C124.666 136.288 124.741 136.401 124.791 136.473C124.851 136.561 124.911 136.649 124.958 136.734C126.774 139.935 126.183 142.654 123.202 144.815C123.126 144.871 123.035 144.924 122.944 144.978C122.913 144.996 122.872 145.022 122.831 145.044C122.988 145.009 123.208 144.89 123.299 144.84C125.017 143.902 126.013 142.372 126.101 140.534C126.114 138.888 125.822 137.734 125.121 136.705L125.033 136.571C124.958 136.455 124.801 136.213 124.719 136.175C124.713 136.179 124.694 136.182 124.669 136.197C124.653 136.201 124.641 136.21 124.631 136.216ZM93.7262 114.905C93.7231 114.987 93.7419 115.128 93.7514 115.216C93.7639 115.313 93.7765 115.404 93.7796 115.492C93.7953 115.78 93.8079 116.069 93.8236 116.354C93.8582 117.138 93.8959 117.95 93.9995 118.731C94.0686 119.255 94.1283 119.778 94.1911 120.302C94.4864 122.864 94.7692 125.285 95.9472 127.536C96.698 128.969 97.3922 130.067 98.9001 130.067C98.9598 130.067 99.0226 130.064 99.0886 130.061C100.565 129.976 101.058 128.866 101.63 127.577C101.683 127.458 101.737 127.336 101.79 127.217C101.881 127.013 101.944 126.781 101.994 126.558C102.805 123.093 102.902 119.289 102.299 114.585C102.293 114.535 102.286 114.485 102.283 114.429C102.274 114.325 102.252 114.121 102.214 114.04H102.202C102.129 114.043 102.104 114.059 102.104 114.059C102.079 114.121 102.126 114.41 102.145 114.548L102.151 114.595C102.425 116.401 102.51 118.223 102.453 121.092C102.428 121.437 102.415 121.792 102.4 122.174C102.34 123.686 102.268 125.57 101.542 127.414L101.46 127.627C101.096 128.577 100.64 129.76 99.1608 129.876C99.0854 129.882 99.01 129.885 98.9378 129.885C97.4425 129.885 96.7419 128.681 96.2299 127.803C95.1178 125.89 94.7849 123.773 94.5587 121.939C94.4016 120.669 94.2854 119.377 94.1754 118.129C94.0969 117.273 94.0215 116.42 93.9335 115.567C93.9273 115.511 93.9241 115.454 93.9178 115.395C93.9084 115.257 93.8833 114.971 93.8267 114.905C93.8236 114.905 93.8079 114.902 93.7796 114.902V114.432L93.7733 114.902C93.7576 114.902 93.7419 114.905 93.7262 114.905ZM70.8884 120.584C70.8758 120.609 70.8727 120.616 70.8727 120.619C70.901 120.672 71.1209 120.813 71.2402 120.888C71.2968 120.926 71.3533 120.961 71.4067 120.998C73.3607 122.34 75.6005 123.024 78.0602 123.03C78.3649 122.996 78.6696 122.967 78.9774 122.939C79.6623 122.877 80.3063 122.817 80.9408 122.682C84.723 121.873 87.3775 120.716 89.5513 118.935C89.589 118.903 89.6299 118.872 89.6707 118.841C89.6801 118.835 89.6896 118.828 89.699 118.819C89.655 118.844 89.6142 118.866 89.589 118.882C89.3409 119.029 89.0958 119.186 88.8508 119.343C88.4361 119.609 88.0089 119.885 87.5534 120.114C85.0309 121.384 81.6822 122.839 78.1607 122.842C75.7544 122.842 73.524 122.187 71.347 120.835L71.3093 120.81C71.2025 120.741 70.9983 120.613 70.8884 120.584ZM106.455 118.399C106.537 118.461 106.776 118.533 106.911 118.571C106.973 118.59 107.033 118.609 107.09 118.624C108.431 119.057 110.13 119.553 111.387 119.553C111.497 119.553 111.601 119.549 111.704 119.54C115.204 119.452 117.635 119.092 119.862 118.336C122.071 117.586 123.469 116.614 124.392 115.184C124.436 115.115 124.493 115.043 124.549 114.968C124.59 114.915 124.653 114.833 124.691 114.771C124.628 114.83 124.543 114.943 124.49 115.009C124.446 115.068 124.402 115.125 124.358 115.175C123.557 116.125 122.721 116.806 121.798 117.254C118.873 118.675 115.892 119.396 112.936 119.396C111.035 119.396 109.1 119.098 107.187 118.508C107.102 118.483 107.011 118.449 106.92 118.414C106.766 118.358 106.593 118.292 106.493 118.292C106.483 118.308 106.474 118.333 106.458 118.377C106.458 118.389 106.455 118.392 106.455 118.399ZM68.6235 93.3875C68.5386 93.422 68.3753 93.676 68.2968 93.7983C68.2591 93.8578 68.2214 93.9174 68.1837 93.9707C65.8905 97.3041 65.4035 101.97 66.9114 106.147C68.3753 110.205 71.4664 113.168 75.3869 114.281C76.8005 114.683 78.1984 114.887 79.5398 114.887C82.6403 114.887 85.323 113.808 87.3021 111.77C89.8246 109.17 91.0718 105.144 90.9147 100.126V100.104V100.082C90.9273 99.9099 90.9744 99.75 91.0466 99.6026C90.9712 99.6026 90.8927 99.6026 90.811 99.6026C90.3115 99.6058 89.7995 99.634 89.3 99.6622L89.2655 99.6653C81.6131 100.092 74.6769 101.39 68.0612 103.632C67.7187 103.748 67.4612 103.83 67.213 103.83C66.3491 103.83 66.2706 102.873 66.236 102.466C65.9721 99.2828 66.6601 96.5076 68.3376 93.9833C68.391 93.9049 68.457 93.8202 68.5292 93.7324C68.5889 93.6572 68.6926 93.5317 68.7334 93.4533C68.7271 93.4502 68.7208 93.4439 68.7146 93.4377C68.6674 93.4032 68.636 93.3906 68.6235 93.3875ZM102.861 88.7873C102.777 88.8218 102.616 89.013 102.525 89.1197L102.44 89.2169C102.258 89.427 102.067 89.6339 101.875 89.8377C101.423 90.3238 100.995 90.7816 100.669 91.299C98.7304 94.3815 98.2592 97.2665 99.3116 99.6434C100.637 102.648 104.385 104.846 109.857 105.837C110.495 105.953 111.148 106.078 111.814 106.21C114.287 106.693 116.844 107.191 119.149 107.191C122.652 107.191 126.676 106.213 126.701 98.5866C126.843 96.4762 126.337 94.1777 125.278 92.083C123.598 88.7653 121.025 86.7427 117.632 86.0748C117.497 86.0466 117.356 86.0215 117.243 86.0215C117.151 86.0215 117.123 86.0372 117.123 86.0403C117.12 86.0434 117.111 86.0591 117.098 86.0936C117.095 86.103 117.092 86.1156 117.089 86.1218C117.164 86.1469 117.287 86.1657 117.368 86.1783L117.497 86.2002C121.207 86.8838 123.802 89.1228 125.661 93.2526C125.913 93.8108 126.133 94.3941 125.834 94.855C125.545 95.3003 124.933 95.3568 124.43 95.3568H124.333C123.893 95.3505 123.456 95.3474 123.016 95.3474C115.716 95.3474 108.224 96.3539 100.75 98.3358C100.436 98.4204 100.175 98.4612 99.9619 98.4612C99.6132 98.4612 99.3461 98.3546 99.1577 98.1445C98.8404 97.7839 98.8812 97.2508 98.9503 96.7334C99.3587 93.6321 100.527 91.1861 102.519 89.2514C102.582 89.1886 102.66 89.1259 102.745 89.0601C102.808 89.0099 102.905 88.9315 102.959 88.8751C102.949 88.8657 102.937 88.85 102.918 88.8374C102.893 88.8061 102.871 88.7935 102.861 88.7873ZM85.0277 89.0883C85.1031 89.1102 85.2068 89.1291 85.2791 89.1416C85.4016 89.1636 85.5304 89.1855 85.6529 89.2263C89.1492 90.352 91.6152 92.7478 92.9786 96.3539C93.1262 96.7459 93.2519 97.0783 93.3493 97.3637C93.3995 97.2226 93.3869 97.1034 93.3461 96.9811C91.8979 92.8074 89.4351 90.2611 85.8131 89.1918L85.7408 89.1698C85.5366 89.1102 85.3042 89.0413 85.1408 89.0413C85.0686 89.0413 85.0466 89.0538 85.0466 89.0538C85.0466 89.0569 85.0372 89.0663 85.0277 89.0883ZM74.5921 83.2526C72.4088 83.2526 70.0936 83.3655 67.9355 84.1933C67.4863 84.3658 66.924 84.6731 66.7795 85.1654C66.635 85.664 66.9491 86.2316 67.2413 86.6204C67.6873 87.2162 68.3439 87.3197 69.1072 87.4389L69.3051 87.4702C71.2528 87.7838 73.2821 87.8089 75.1952 87.8089C75.1984 87.8089 77.0518 87.8058 77.4539 87.8058H77.9911C78.5094 87.7869 79.0623 87.7681 79.634 87.7524C82.4675 87.6678 85.6749 87.5737 88.8162 86.9246C91.6906 86.3319 94.5336 85.4194 97.2823 84.5382C97.9953 84.3093 98.7084 84.0804 99.4247 83.8578C105.038 82.0986 110.683 81.2049 116.203 81.2049C116.627 81.2049 117.054 81.2112 117.481 81.2206C117.547 81.2237 117.613 81.2237 117.679 81.2237C119.8 81.2237 120.199 80.352 120.312 79.499C120.425 78.6492 120.305 77.4325 118 76.6642C116.922 76.3068 115.757 76.1468 114.221 76.1468C113.935 76.1468 113.649 76.1531 113.36 76.1625C108.151 76.3193 103.11 77.859 98.2372 79.3485C92.2561 81.1735 84.3241 83.262 75.8266 83.262C75.6633 83.262 75.4999 83.262 75.3397 83.2588C75.0853 83.2557 74.8403 83.2526 74.5921 83.2526ZM77.6141 77.9123C77.6863 77.9248 77.812 77.9248 77.8842 77.9248L78.0947 77.928C78.478 77.928 78.8581 77.8966 79.2602 77.8653C79.4455 77.8496 79.634 77.8339 79.8193 77.8245C83.7743 77.6144 88.4236 77.1973 92.9377 75.6702C94.2257 75.2343 95.5168 74.7263 96.7671 74.234C98.966 73.3654 101.244 72.4685 103.615 71.9229C103.678 71.9104 103.744 71.8947 103.81 71.8822C103.936 71.8571 104.152 71.8132 104.244 71.763C104.244 71.7599 104.24 71.7536 104.24 71.7504C104.225 71.6877 104.206 71.6658 104.206 71.6626C104.206 71.6626 104.184 71.6564 104.137 71.6564C103.989 71.6564 103.775 71.7222 103.603 71.7755L103.499 71.8069C103.172 71.9072 102.842 72.0044 102.513 72.1017C101.074 72.5313 99.5849 72.9734 98.1933 73.5473C92.611 75.8458 87.8613 77.0625 83.2497 77.3761C81.8895 77.4701 80.5042 77.5862 79.1659 77.6991L77.9565 77.7994C77.7052 77.8214 77.6329 77.8621 77.6141 77.8747C77.6141 77.8778 77.6141 77.9123 77.6141 77.9123ZM83.589 74.2528C83.6078 74.3155 83.6644 74.3594 84.0131 74.3594C84.0131 74.3594 84.1293 74.3594 84.1858 74.3563C84.2832 74.3375 84.39 74.3155 84.4969 74.2904C84.8016 74.2246 85.1503 74.1462 85.5115 74.1274C88.3545 73.9706 91.0372 72.964 93.6288 71.9919C95.0487 71.4588 96.5158 70.9101 98.0079 70.4961C98.4226 70.3801 98.5137 70.2986 98.5357 70.2672C98.5357 70.2672 98.5325 70.2547 98.5262 70.2359C98.4289 70.2421 98.2812 70.2829 98.1524 70.3237C98.0865 70.3425 98.0236 70.3613 97.9639 70.377C97.8634 70.4021 97.7629 70.4365 97.6655 70.4679C97.5681 70.4993 97.4739 70.5306 97.3765 70.5588C95.9817 70.954 94.5838 71.462 93.2299 71.9543C90.2676 73.0299 87.2016 74.1431 83.8686 74.2089C83.7241 74.2089 83.633 74.234 83.589 74.2528Z" fill="#D3CBBE"/>
<path d="M92.8843 56.4163C93.6225 56.4163 94.3702 56.4383 95.1304 56.4853C102.673 56.9369 109.461 59.4236 115.361 64.099C120.148 67.8934 123.261 72.8824 125.256 78.6554C128.928 89.2889 130.842 100.227 131.46 111.431C131.831 118.107 132.148 124.78 131.131 131.422C129.714 140.672 126.915 149.352 120.623 156.608C117.579 160.117 113.536 161.836 109.351 163.391C105.488 164.827 101.624 165.649 97.788 165.649C93.8456 165.649 89.9314 164.78 86.0769 162.82C78.8486 159.142 73.7187 153.394 71.0203 145.73C67.4046 135.464 65.2936 124.846 64.3826 114.005C63.8988 108.239 63.4276 102.462 63.4496 96.6643C63.4653 89.8597 63.792 83.0863 65.8653 76.5356C69.9554 63.6067 79.7156 56.4163 92.8843 56.4163ZM84.013 74.8266C84.0853 74.8266 84.1607 74.8235 84.2361 74.8235C84.613 74.7545 85.0748 74.6228 85.5397 74.5946C90.0193 74.3468 93.9241 72.1141 98.1367 70.9476C98.5419 70.8347 99.1859 70.6309 98.9597 70.0382C98.8812 69.8282 98.7273 69.7592 98.5451 69.7592C98.3252 69.7592 98.0613 69.8595 97.8445 69.916C97.6435 69.9693 97.4456 70.0445 97.2445 70.1041C92.7963 71.3647 88.6246 73.6413 83.856 73.7354C83.4884 73.7416 83.0266 73.8608 83.1209 74.3374C83.2057 74.7702 83.5827 74.8266 84.013 74.8266ZM78.0947 78.3983C78.679 78.3983 79.2633 78.3293 79.8507 78.2917C84.346 78.0534 88.8005 77.5642 93.0885 76.1123C96.6477 74.9081 100.037 73.2242 103.719 72.3776C104.171 72.2741 104.844 72.2302 104.696 71.6344C104.611 71.2863 104.388 71.1797 104.134 71.1797C103.876 71.1797 103.587 71.2832 103.358 71.3521C101.561 71.8978 99.7419 72.3964 98.011 73.1082C93.2518 75.0681 88.3827 76.5513 83.2151 76.9025C81.4465 77.0217 79.6811 77.1816 77.9156 77.329C77.5355 77.3603 77.1303 77.4544 77.1397 77.9185C77.1491 78.4391 77.6455 78.3889 77.9722 78.3952C78.0161 78.3983 78.057 78.3983 78.0947 78.3983ZM75.8203 82.7884C75.6601 82.7884 75.4968 82.7884 75.3366 82.7853C75.0884 82.7821 74.8402 82.7821 74.5889 82.7821C72.2926 82.7821 69.9617 82.9107 67.7627 83.7542C66.1355 84.3783 65.8433 85.5385 66.8611 86.9026C67.4674 87.7148 68.3627 87.7963 69.2266 87.9343C71.1302 88.2384 73.0496 88.2792 75.1889 88.2792C75.9146 88.2792 76.6685 88.2761 77.4538 88.2761C77.6298 88.2761 77.8057 88.2761 77.9879 88.2761C81.2266 88.1538 85.0968 88.1726 88.9073 87.3855C92.5387 86.636 96.0319 85.4099 99.5597 84.303C104.982 82.6034 110.517 81.6721 116.196 81.6721C116.617 81.6721 117.038 81.6783 117.462 81.6877C117.535 81.6909 117.604 81.6909 117.673 81.6909C119.671 81.6909 120.588 80.9571 120.773 79.5554C120.984 77.9561 120.098 76.8649 118.144 76.2126C116.856 75.783 115.543 75.6701 114.217 75.6701C113.925 75.6701 113.636 75.6764 113.344 75.6858C108.063 75.8458 103.059 77.376 98.077 78.8969C90.8047 81.1202 83.4759 82.7884 75.8203 82.7884ZM124.433 94.8863C124.405 94.8863 124.373 94.8863 124.342 94.8863C123.902 94.8801 123.459 94.8769 123.02 94.8769C115.433 94.8769 107.969 95.9337 100.631 97.881C100.354 97.9532 100.135 97.9908 99.9618 97.9908C99.3587 97.9908 99.3178 97.5612 99.4184 96.7929C99.7828 94.0177 100.807 91.5687 102.849 89.5837C103.135 89.3077 103.81 88.9942 103.232 88.4799C103.097 88.3607 102.974 88.3137 102.858 88.3137C102.55 88.3137 102.302 88.6524 102.082 88.9064C101.467 89.6119 100.76 90.2642 100.267 91.0481C95.4853 98.6556 99.6257 104.46 109.769 106.298C112.772 106.84 116.162 107.658 119.146 107.658C123.598 107.658 127.144 105.84 127.169 98.5866C127.317 96.3884 126.783 94.0177 125.693 91.8697C124.037 88.6022 121.439 86.3444 117.717 85.6106C117.56 85.5793 117.393 85.5479 117.236 85.5479C116.972 85.5479 116.74 85.6326 116.643 85.9524C116.454 86.5671 117.013 86.589 117.409 86.6611C121.355 87.3855 123.664 89.9725 125.228 93.4439C125.674 94.4222 125.702 94.8863 124.433 94.8863ZM93.1105 98.3671C92.8026 98.6211 92.4476 98.8563 92.1398 99.0977C91.8005 99.1259 91.3607 99.1322 90.811 99.1354C90.2895 99.1385 89.7649 99.1667 89.2434 99.1981C81.9586 99.6026 74.8308 100.844 67.9135 103.19C67.6182 103.29 67.392 103.362 67.2192 103.362C66.9114 103.362 66.77 103.134 66.7135 102.428C66.4684 99.4395 67.0842 96.7365 68.7397 94.2435C68.969 93.8986 69.5564 93.4407 68.9878 93.0519C68.8527 92.9578 68.7334 92.9202 68.6234 92.9202C68.2496 92.9202 68.0203 93.3843 67.7972 93.7073C63.0161 100.656 66.1417 112.149 75.2612 114.739C76.725 115.153 78.1638 115.363 79.5429 115.363C86.3596 115.363 91.7094 110.283 91.389 100.12C91.4141 99.7437 91.7377 99.4207 92.1429 99.104C92.8686 99.035 93.145 98.8657 93.1105 98.3671C93.6288 97.9375 94.0089 97.4608 93.789 96.8305C92.4319 92.9202 90.0822 89.9663 85.945 88.7464C85.6937 88.6712 85.3984 88.5771 85.1408 88.5771C84.8863 88.5771 84.6727 88.6712 84.5722 88.9659C84.3586 89.6088 85.1031 89.5461 85.5083 89.6746C88.989 90.7941 91.2602 93.1428 92.5356 96.5201C92.8686 97.3981 93.0822 97.9814 93.1105 98.3671ZM98.9377 129.418C97.7534 129.418 97.1723 128.486 96.6382 127.571C95.6173 125.815 95.2686 123.855 95.0267 121.886C94.766 119.769 94.6246 117.64 94.4016 115.52C94.3545 115.084 94.3859 114.435 93.7796 114.435C93.7764 114.435 93.7702 114.435 93.767 114.435C93.0508 114.444 93.2832 115.084 93.3084 115.523C93.3712 116.614 93.3869 117.715 93.5314 118.797C93.9335 121.842 94.056 124.949 95.5262 127.759C96.2707 129.179 97.0875 130.544 98.8969 130.544C98.966 130.544 99.0382 130.54 99.1105 130.537C101.033 130.428 101.567 128.841 102.214 127.417C102.321 127.182 102.39 126.925 102.45 126.671C103.389 122.648 103.282 118.593 102.764 114.532C102.717 114.168 102.733 113.576 102.211 113.576C102.198 113.576 102.186 113.576 102.17 113.576C101.495 113.613 101.614 114.222 101.68 114.67C101.963 116.536 102.029 118.411 101.975 121.086C101.859 122.632 101.975 125.006 101.096 127.248C100.713 128.22 100.392 129.311 99.1168 129.412C99.0602 129.415 99.0006 129.418 98.9377 129.418ZM112.936 118.932C111.089 118.932 109.219 118.649 107.325 118.066C107.061 117.985 106.75 117.828 106.49 117.828C106.279 117.828 106.1 117.928 106.006 118.251C105.839 118.819 106.508 118.929 106.945 119.07C108.538 119.584 110.14 120.023 111.39 120.023C111.51 120.023 111.629 120.02 111.742 120.01C114.937 119.929 117.525 119.628 120.016 118.781C121.92 118.135 123.654 117.198 124.791 115.442C125.002 115.115 125.47 114.727 124.989 114.375C124.889 114.3 124.794 114.272 124.706 114.272C124.405 114.272 124.191 114.648 124 114.877C123.318 115.686 122.545 116.373 121.593 116.837C118.766 118.21 115.882 118.932 112.936 118.932ZM78.1606 122.365C76.0025 122.365 73.8193 121.807 71.5952 120.431C71.3721 120.293 71.0894 120.108 70.8475 120.108C70.7124 120.108 70.5868 120.167 70.4925 120.324C70.1721 120.86 70.7753 121.133 71.1397 121.384C73.2287 122.817 75.547 123.497 78.0884 123.497C79.0748 123.381 80.0738 123.344 81.0413 123.137C84.2329 122.453 87.2801 121.403 89.8529 119.292C90.1136 119.079 90.5502 118.847 90.2047 118.421C90.1104 118.305 90.0036 118.264 89.8906 118.264C89.7084 118.264 89.5167 118.373 89.3534 118.471C88.678 118.869 88.0434 119.336 87.346 119.687C84.3115 121.215 81.2643 122.365 78.1606 122.365ZM122.762 145.52C123.01 145.52 123.296 145.376 123.525 145.25C125.545 144.147 126.481 142.394 126.572 140.553C126.585 138.8 126.268 137.552 125.511 136.436C125.303 136.128 125.077 135.699 124.719 135.699C124.634 135.699 124.54 135.724 124.436 135.78C123.821 136.125 124.326 136.574 124.546 136.959C126.243 139.948 125.705 142.413 122.925 144.429C122.608 144.658 122.008 144.824 122.379 145.326C122.479 145.467 122.614 145.52 122.762 145.52ZM79.5271 145.056C80.1083 145.056 81.0539 144.445 81.6758 144.134C84.0664 142.939 86.5136 141.92 89.0895 141.196C89.3094 141.133 89.5293 141.042 89.7146 141.042C89.9188 141.042 90.0822 141.155 90.167 141.547C90.5377 143.275 91.8476 144.128 93.3052 144.796C95.1775 145.652 96.456 146.953 96.8864 149.029C97.1314 150.211 97.6089 151.331 98.2875 152.328C98.8718 153.19 99.6163 153.918 100.691 153.918C100.832 153.918 100.98 153.905 101.137 153.877C102.456 153.648 103.04 152.657 103.257 151.462C103.395 150.7 103.392 149.907 103.383 149.129C103.37 148.242 103.263 147.358 103.223 146.473C103.16 145.122 103.524 144.037 104.894 143.416C106.191 142.826 106.948 141.77 106.823 140.299C106.731 139.227 107.171 139.029 107.96 139.029C108.07 139.029 108.186 139.032 108.308 139.038C112.443 139.239 116.539 139.757 120.607 140.484C120.865 140.531 121.179 140.628 121.439 140.628C121.691 140.628 121.898 140.54 121.967 140.23C122.153 139.418 121.298 139.49 120.783 139.399C116.354 138.625 111.893 138.107 107.388 137.872C106.527 137.841 105.667 137.825 104.812 137.825C96.5566 137.825 88.6089 139.333 81.1512 143.244C80.3376 143.67 78.6915 143.877 79.0842 144.793C79.1596 144.981 79.3198 145.056 79.5271 145.056ZM78.7764 150.023C78.7889 150.023 78.8046 150.023 78.8172 150.023C78.9397 150.023 79.0811 150.045 79.2162 150.045C79.4266 150.045 79.6151 149.992 79.6748 149.716C79.8224 149.032 79.1722 149.07 78.7607 148.932C75.1795 147.743 74.1397 144.94 76.0999 141.757C76.3104 141.418 76.7376 141.02 76.2413 140.694C76.147 140.631 76.0528 140.606 75.9648 140.606C75.6633 140.606 75.3868 140.895 75.1858 141.139C73.97 142.61 73.5271 144.266 74.2151 146.097C75.0036 148.208 76.5428 149.493 78.7764 150.023ZM93.5722 153.827C93.5942 153.827 93.6162 153.827 93.6382 153.827C94.6969 153.783 95.0487 153.087 95.1115 152.275C95.0801 150.992 94.1628 149.91 93.2204 149.91C93.1953 149.91 93.1702 149.91 93.145 149.913C92.0707 149.979 91.7377 150.744 91.678 151.626C91.5963 152.798 92.523 153.827 93.5722 153.827ZM108.007 156.219C108.063 156.219 108.123 156.216 108.177 156.207C109.311 156.044 109.662 155.194 109.772 154.184C109.788 153.469 109.449 152.864 109.062 152.315C108.604 151.666 108.136 150.769 107.338 150.769C107.171 150.769 106.986 150.81 106.788 150.898C105.679 151.397 105.239 152.566 105.44 153.817C105.623 154.987 106.977 156.219 108.007 156.219ZM92.8874 55.4756V56.4163V55.4756C86.1146 55.4756 80.234 57.2912 75.4088 60.8723C70.5742 64.4628 67.059 69.6369 64.9669 76.2503C62.8307 82.9985 62.5229 90.0478 62.5072 96.6612C62.4852 102.651 62.9941 108.725 63.4433 114.084C64.392 125.379 66.6412 136.132 70.1281 146.041C72.8926 153.896 78.1135 159.823 85.6466 163.658C89.4696 165.602 93.5534 166.59 97.7848 166.59C101.539 166.59 105.541 165.809 109.678 164.272C113.815 162.736 118.122 160.923 121.333 157.223C126.965 150.729 130.374 142.576 132.06 131.563C133.053 125.084 132.814 118.853 132.4 111.378C131.737 99.4176 129.692 88.6147 126.145 78.3481C123.937 71.9511 120.601 67.0467 115.945 63.3621C109.992 58.6427 103.006 56.0149 95.1869 55.5477C94.4141 55.4975 93.6382 55.4756 92.8874 55.4756ZM75.8203 83.7292C84.3806 83.7292 92.3565 81.6282 98.3503 79.8L98.3691 79.7937C103.213 78.3136 108.224 76.7865 113.369 76.6297C113.677 76.6203 113.954 76.6172 114.214 76.6172C115.697 76.6172 116.815 76.7708 117.843 77.1126C119.784 77.7586 119.941 78.6523 119.834 79.4394C119.746 80.1042 119.507 80.7564 117.67 80.7564C117.61 80.7564 117.547 80.7564 117.484 80.7533C117.057 80.7439 116.624 80.7376 116.196 80.7376C110.627 80.7376 104.935 81.6376 99.277 83.4093C98.5608 83.6319 97.8477 83.864 97.1346 84.0929C94.3953 84.9709 91.5649 85.8803 88.7157 86.4667C85.6151 87.1064 82.4266 87.2005 79.6151 87.282C79.0528 87.2977 78.5031 87.3165 77.9722 87.3353C77.7994 87.3353 77.6266 87.3353 77.457 87.3353C77.0549 87.3353 76.6622 87.3353 76.279 87.3385C75.9114 87.3385 75.5502 87.3416 75.1952 87.3416C73.3009 87.3416 71.2936 87.3165 69.3805 87.0092L69.1794 86.9778C68.3941 86.8555 67.9355 86.7677 67.6213 86.3444C67.304 85.9211 67.1658 85.5416 67.2349 85.3002C67.304 85.065 67.6213 84.8235 68.1051 84.6354C70.191 83.8358 72.4559 83.726 74.5952 83.726C74.8402 83.726 75.0884 83.726 75.3334 83.7292C75.4936 83.7292 75.657 83.7292 75.8203 83.7292ZM124.433 95.8271C124.942 95.8271 125.545 95.7738 125.976 95.4037C126.211 96.4636 126.299 97.5204 126.233 98.5239L126.23 98.5552V98.5866C126.205 105.755 122.636 106.721 119.149 106.721C116.888 106.721 114.356 106.229 111.905 105.749C111.255 105.623 110.583 105.492 109.942 105.376C104.627 104.413 101.005 102.312 99.7451 99.4552C99.6634 99.2671 99.588 99.0758 99.5283 98.8813C99.6571 98.9127 99.8047 98.9315 99.9681 98.9315C100.226 98.9315 100.524 98.8845 100.879 98.7904C108.315 96.818 115.766 95.8177 123.026 95.8177C123.459 95.8177 123.899 95.8208 124.333 95.8271C124.364 95.8271 124.399 95.8271 124.433 95.8271ZM67.2161 104.297C67.5334 104.297 67.8318 104.206 68.215 104.074C74.7899 101.845 81.6821 100.556 89.2937 100.133L89.3345 100.129C89.7146 100.107 90.079 100.089 90.4434 100.079V100.095V100.142C90.5974 105.031 89.3974 108.938 86.9659 111.443C85.078 113.388 82.5115 114.416 79.5429 114.416C78.2455 114.416 76.8947 114.219 75.5187 113.83C71.746 112.757 68.7711 109.901 67.3574 105.987C67.1533 105.419 66.9836 104.839 66.8548 104.259C66.9648 104.284 67.0841 104.297 67.2161 104.297ZM90.6822 140.515C95.0424 139.339 99.7199 138.762 104.806 138.762C105.274 138.762 105.748 138.769 106.226 138.778C105.934 139.167 105.82 139.691 105.877 140.377C105.962 141.371 105.497 142.102 104.498 142.557C102.912 143.275 102.186 144.57 102.274 146.514C102.293 146.894 102.321 147.273 102.349 147.64C102.39 148.16 102.428 148.65 102.434 149.142C102.444 149.898 102.444 150.628 102.324 151.296C102.089 152.594 101.476 152.864 100.97 152.952C100.873 152.968 100.779 152.977 100.687 152.977C100.304 152.977 99.7702 152.842 99.0634 151.801C98.4477 150.895 98.0267 149.898 97.8068 148.841C97.3419 146.599 95.9974 144.996 93.6948 143.943C92.3283 143.319 91.3639 142.638 91.0874 141.353C91.0026 140.964 90.855 140.7 90.6822 140.515ZM93.5722 152.886C93.3524 152.886 93.1199 152.773 92.9377 152.579C92.7115 152.337 92.5953 152.014 92.6173 151.691C92.6738 150.885 92.9314 150.87 93.2047 150.854H93.2204C93.5723 150.854 94.1283 151.453 94.166 152.256C94.1063 152.87 93.8801 152.88 93.5974 152.892L93.5722 152.886ZM108.007 155.279C107.473 155.279 106.483 154.401 106.367 153.673C106.314 153.335 106.213 152.19 107.174 151.757C107.269 151.716 107.319 151.71 107.338 151.71C107.52 151.71 107.884 152.256 108.082 152.551C108.151 152.657 108.224 152.761 108.293 152.858C108.67 153.391 108.827 153.764 108.83 154.128C108.704 155.182 108.34 155.232 108.041 155.276C108.032 155.279 108.019 155.279 108.007 155.279Z" fill="black"/>
<path d="M102.93 14.2554C103.845 17.595 104.595 20.8845 105.023 24.2304C106.241 33.7224 108.346 43.0169 111.173 52.1547C111.89 54.4752 112.106 54.6131 114.525 53.895C122.555 51.515 130.238 48.2224 137.947 45.0019C140.259 44.0361 142.553 43.0232 144.865 42.0511C145.188 41.9131 145.672 41.7219 145.892 41.8598C146.347 42.1389 145.97 42.6281 145.864 42.9856C143.809 49.8248 141.704 56.6451 139.666 63.4875C138.503 67.3884 137.476 71.3301 136.311 75.2279C135.88 76.661 136.298 77.216 137.724 77.6707C144.607 79.8563 151.757 81.0229 158.627 83.2367C159.858 83.635 161.071 84.0928 162.613 84.6353C160.122 85.99 157.955 87.2913 155.687 88.3826C150.849 90.7094 146.759 94.1462 142.342 97.1001C141.227 97.8464 141.406 98.4454 142.461 99.0412C147.965 102.149 153.086 105.877 158.545 109.051C159.664 109.7 159.34 110.073 158.602 110.666C155.973 112.779 152.91 114.118 149.925 115.598C147.774 116.668 145.637 117.768 143.467 118.8C142.279 119.364 142.191 120.064 142.794 121.174C144.987 125.209 147.368 129.135 149.778 133.043C149.998 133.397 150.221 133.748 150.441 134.099C150.824 134.714 150.868 135.128 149.947 135.25C147.356 135.595 144.783 136.059 142.163 136.166C139.92 136.257 137.665 136.235 135.456 136.774C134.294 137.06 133.958 137.649 134.281 138.828C134.932 141.193 135.425 143.601 136.063 145.968C136.383 147.16 135.993 147.445 134.866 147.292C133 147.038 131.124 146.856 129.252 146.646C128.536 146.567 128.222 146.304 128.542 145.517C130.421 140.898 131.482 136.062 132.195 131.149C132.315 130.324 132.77 130.214 133.414 130.026C138.265 128.609 141.114 124.015 139.948 119.43C139.16 116.319 137.027 114.403 134.03 113.51C133 113.202 132.554 112.748 132.506 111.722C132.164 104.46 131.294 97.2569 129.632 90.1825C127.983 83.1709 126.309 76.1122 122.168 70.0382C117.057 62.5404 109.785 58.1691 101.014 56.2563C91.8727 54.2651 83.1648 55.3218 75.3868 60.8252C69.1983 65.2059 65.9658 71.5527 64.1815 78.7619C62.1584 86.9244 62.2212 95.2092 62.6045 103.516C62.8495 108.831 63.2799 114.137 63.9364 119.418C64.0401 120.255 63.7762 120.622 63.1008 121.014C59.438 123.143 57.8767 126.207 58.5521 129.803C59.1804 133.156 62.1553 135.912 65.9721 136.501C66.9176 136.646 67.282 136.984 67.5145 137.875C68.0736 140.045 68.7208 142.199 69.4244 144.328C69.6757 145.09 69.5941 145.454 68.815 145.724C65.4506 146.887 62.061 147.922 58.5333 148.48C57.4464 148.653 57.1762 148.418 57.4244 147.295C58.3354 143.162 58.8914 138.972 59.171 134.749C59.3155 132.547 59.0265 132.287 56.8306 132.528C51.9489 133.065 47.4002 131.76 42.9489 129.979C42.4337 129.772 41.8149 129.741 41.3625 129.192C44.8306 127.624 48.0159 125.642 51.0065 123.369C52.2914 122.39 53.5322 121.324 54.6442 120.158C56.5605 118.148 56.5888 116.655 54.8327 114.491C52.6715 111.826 50.0484 109.675 47.1175 107.906C42.8704 105.344 38.3342 103.284 34.153 100.603C33.2986 100.057 32.4912 99.4394 31.3164 98.6084C37.7593 98.5959 43.2316 96.5984 48.6097 94.3092C50.1898 93.6382 51.6914 92.7445 53.0013 91.5999C54.1448 90.5996 54.0128 90.2672 52.8097 89.4143C49.6683 87.1816 47.3123 84.1555 44.8903 81.2204C42.2012 77.9623 39.9363 74.3655 36.9834 71.3144C34.2473 68.4859 31.0713 66.1842 27.9425 63.8293C26.9656 63.0923 26.0137 62.3209 24.754 61.3332C28.1813 61.2171 31.197 61.3143 34.1467 61.9352C40.3855 63.246 46.6777 63.5282 53.0233 63.2711C55.1123 63.1864 57.2045 63.2366 59.2903 63.4781C61.1249 63.6913 61.3919 63.2209 60.9082 61.4523C59.2087 55.2528 56.3437 49.4641 54.5469 43.2929C52.6652 36.8363 51.8327 30.2354 51.2547 23.6032C51.6411 23.4025 51.795 23.6565 51.9552 23.8352C55.2662 27.548 59.438 30.1602 63.5375 32.8632C67.9354 35.7607 72.4653 38.4763 76.502 41.8881C78.4967 43.5751 80.4413 45.3029 82.1219 47.3193C83.2214 48.6363 83.6486 48.5171 84.324 46.943C87.2235 40.2073 90.723 33.8228 95.1806 27.962C97.9764 24.2868 99.8236 20.0472 101.834 15.9173C102.107 15.378 102.249 14.7477 102.93 14.2554Z" fill="#B7D4E8"/>
<path d="M102.93 14.2554C103.845 17.595 104.595 20.8845 105.023 24.2304C106.241 33.7224 108.346 43.0169 111.173 52.1547C111.89 54.4752 112.106 54.6131 114.525 53.895C122.555 51.515 130.238 48.2224 137.947 45.0019C140.259 44.0361 142.553 43.0232 144.865 42.0511C145.188 41.9131 145.672 41.7219 145.892 41.8598C146.347 42.1389 145.97 42.6281 145.864 42.9856C143.809 49.8248 141.704 56.6451 139.666 63.4875C138.503 67.3884 137.476 71.3301 136.311 75.2279C135.88 76.661 136.298 77.216 137.724 77.6707C144.607 79.8563 151.757 81.0229 158.627 83.2367C159.858 83.635 161.071 84.0928 162.613 84.6353C160.122 85.99 157.955 87.2913 155.687 88.3826C150.849 90.7094 146.759 94.1462 142.342 97.1001C141.227 97.8464 141.406 98.4454 142.461 99.0412C147.965 102.149 153.086 105.877 158.545 109.051C159.664 109.7 159.34 110.073 158.602 110.666C155.973 112.779 152.91 114.118 149.925 115.598C147.774 116.668 145.637 117.768 143.467 118.8C142.279 119.364 142.191 120.064 142.794 121.174C144.987 125.209 147.368 129.135 149.778 133.043C149.998 133.397 150.221 133.748 150.441 134.099C150.824 134.714 150.868 135.128 149.947 135.25C147.356 135.595 144.783 136.059 142.163 136.166C139.92 136.257 137.665 136.235 135.456 136.774C134.294 137.06 133.958 137.649 134.281 138.828C134.932 141.193 135.425 143.601 136.063 145.968C136.383 147.16 135.993 147.445 134.866 147.292C133 147.038 131.124 146.856 129.252 146.646C128.536 146.567 128.222 146.304 128.542 145.517C130.421 140.898 131.482 136.062 132.195 131.149C132.315 130.324 132.77 130.214 133.414 130.026C138.265 128.609 141.114 124.015 139.948 119.43C139.16 116.319 137.027 114.403 134.03 113.51C133 113.202 132.554 112.748 132.506 111.722C132.164 104.46 131.294 97.2569 129.632 90.1825C127.983 83.1709 126.309 76.1122 122.168 70.0381C117.057 62.5404 109.785 58.1691 101.014 56.2563C91.8727 54.2651 83.1648 55.3218 75.3868 60.8252C69.1983 65.2059 65.9658 71.5527 64.1815 78.7619C62.1584 86.9244 62.2212 95.2092 62.6045 103.516C62.8495 108.831 63.2799 114.137 63.9364 119.418C64.0401 120.255 63.7762 120.622 63.1008 121.014C59.438 123.143 57.8767 126.207 58.5521 129.803C59.1804 133.156 62.1553 135.912 65.9721 136.501C66.9176 136.646 67.282 136.984 67.5145 137.875C68.0736 140.045 68.7208 142.199 69.4244 144.328C69.6757 145.09 69.5941 145.454 68.815 145.724C65.4506 146.887 62.061 147.922 58.5333 148.48C57.4464 148.653 57.1762 148.418 57.4244 147.295C58.3354 143.162 58.8914 138.972 59.171 134.749C59.3155 132.547 59.0265 132.287 56.8306 132.528C51.9489 133.065 47.4002 131.76 42.9489 129.979C42.4337 129.772 41.8149 129.741 41.3625 129.192C44.8306 127.624 48.0159 125.642 51.0065 123.369C52.2914 122.39 53.5322 121.324 54.6442 120.158C56.5605 118.148 56.5888 116.655 54.8327 114.491C52.6715 111.826 50.0484 109.675 47.1175 107.906C42.8704 105.344 38.3342 103.284 34.153 100.603C33.2986 100.057 32.4912 99.4394 31.3164 98.6084C37.7593 98.5959 43.2316 96.5984 48.6097 94.3093C50.1898 93.6382 51.6914 92.7445 53.0013 91.5999C54.1448 90.5996 54.0128 90.2672 52.8097 89.4143C49.6683 87.1816 47.3123 84.1555 44.8903 81.2204C42.2012 77.9623 39.9363 74.3655 36.9834 71.3144C34.2473 68.4859 31.0713 66.1842 27.9425 63.8293C26.9656 63.0923 26.0137 62.3209 24.754 61.3332C28.1813 61.2171 31.197 61.3143 34.1467 61.9352C40.3855 63.246 46.6777 63.5282 53.0233 63.2711C55.1123 63.1864 57.2045 63.2366 59.2903 63.478C61.1249 63.6913 61.3919 63.2209 60.9082 61.4523C59.2087 55.2528 56.3437 49.4642 54.5469 43.2929C52.6652 36.8363 51.8327 30.2354 51.2547 23.6032C51.6411 23.4025 51.795 23.6565 51.9552 23.8352C55.2662 27.548 59.438 30.1602 63.5375 32.8632C67.9354 35.7607 72.4653 38.4763 76.502 41.8881C78.4967 43.5751 80.4413 45.3029 82.1219 47.3193C83.2214 48.6363 83.6486 48.5171 84.324 46.943C87.2235 40.2073 90.723 33.8228 95.1806 27.962C97.9764 24.2868 99.8236 20.0472 101.834 15.9173C102.107 15.378 102.249 14.7477 102.93 14.2554Z" stroke="black" stroke-width="3" stroke-miterlimit="10"/>
<path d="M132.953 129.543C132.62 129.543 132.422 129.402 132.315 129.283C132.064 129.004 132.067 128.602 132.104 128.248C132.538 124.127 132.478 120.063 132.249 115.225C132.227 114.733 132.321 114.381 132.544 114.152C132.664 114.027 132.88 113.876 133.235 113.876C133.477 113.876 133.716 113.942 133.948 114.005L134.052 114.033C137.052 114.836 139.603 118.198 139.622 121.374C139.647 124.93 137.043 128.392 133.571 129.427C133.323 129.508 133.125 129.543 132.953 129.543Z" fill="#D3CBBE"/>
<path d="M133.238 114.35C133.449 114.35 133.697 114.428 133.933 114.491C136.757 115.247 139.135 118.401 139.154 121.38C139.176 124.736 136.681 128.013 133.439 128.978C133.238 129.038 133.078 129.069 132.953 129.069C132.61 129.069 132.519 128.837 132.576 128.295C133.034 123.936 132.927 119.568 132.723 115.203C132.692 114.529 132.924 114.35 133.238 114.35ZM133.238 113.409C132.717 113.409 132.39 113.638 132.205 113.829C131.891 114.159 131.753 114.623 131.781 115.25C132.007 120.066 132.067 124.112 131.636 128.201C131.592 128.633 131.586 129.182 131.963 129.599C132.133 129.787 132.444 130.013 132.949 130.013C133.166 130.013 133.408 129.972 133.706 129.882C137.372 128.79 140.118 125.134 140.093 121.374C140.071 117.944 137.413 114.447 134.171 113.582L134.071 113.553C133.829 113.488 133.546 113.409 133.238 113.409Z" fill="black"/>
<path d="M66.1386 135.943C66.0161 135.943 65.8842 135.934 65.7365 135.912C61.9355 135.395 58.992 131.895 59.0391 127.947C59.0266 125.382 60.3899 123.199 62.9784 121.641C63.2392 121.484 63.5187 121.34 63.8109 121.34C64.1533 121.34 64.5899 121.525 64.7282 122.409C65.3376 126.291 66.0287 130.415 67.147 134.435C67.235 134.752 67.3198 135.213 67.0465 135.57C66.8612 135.818 66.5533 135.943 66.1386 135.943Z" fill="#D3CBBE"/>
<path d="M63.8109 121.813C64.0339 121.813 64.1847 121.992 64.2632 122.487C64.9009 126.545 65.5889 130.597 66.6947 134.567C66.8674 135.191 66.7135 135.479 66.1386 135.479C66.0381 135.479 65.925 135.47 65.7994 135.454C62.3407 134.984 59.4663 131.776 59.5103 127.959C59.4978 125.504 60.8485 123.478 63.2203 122.052C63.4528 121.907 63.6475 121.813 63.8109 121.813ZM63.8109 120.873C63.4025 120.873 63.0381 121.058 62.7334 121.243C59.9941 122.889 58.5522 125.213 58.5679 127.959C58.5208 132.127 61.6402 135.833 65.6737 136.382C65.8433 136.404 65.9973 136.417 66.1386 136.417C66.8486 136.417 67.2287 136.113 67.4235 135.859C67.8695 135.272 67.6685 134.548 67.6025 134.313C66.4905 130.321 65.8025 126.21 65.1962 122.34C64.9857 121.014 64.1564 120.873 63.8109 120.873Z" fill="black"/>
<path d="M132.434 238.672C129.403 235.232 126.855 231.35 123.045 228.638C122.507 228.255 122.602 227.941 123.151 227.587C126.393 225.489 129.466 223.163 132.651 220.378" fill="#FCFCFC"/>
<path d="M122.234 95.8301C122.652 95.8301 123.07 95.8301 123.491 95.8301C126.095 95.8332 126.089 95.8332 126.161 98.3826C126.453 109.041 117.745 113.055 109.973 111.816C103.98 110.86 100.797 107.072 99.5378 101.39C99.1043 99.43 99.2017 99.3296 101.143 98.8091C104.021 98.0408 106.958 97.5736 109.873 96.9997C110.938 96.7896 111.362 97.0687 111.582 98.1255C111.915 99.7279 112.728 100.183 114.255 99.8439C115.254 99.6213 115.71 98.508 115.084 97.5109C114.55 96.6579 114.805 96.4227 115.678 96.3506C116.771 96.2628 117.855 96.1029 118.948 96.0151C120.042 95.9273 121.138 95.8897 122.234 95.8301Z" fill="#D3CBBE"/>
<path d="M93.4466 102.277C93.343 110.631 85.8853 116.379 77.3533 114.792C72.2392 113.842 68.8967 111.023 67.2726 106.09C66.9428 105.087 67.0433 104.478 68.0863 104.18C70.6905 103.431 73.2633 102.578 75.9429 102.092C76.8224 101.932 77.2528 102.192 77.6266 103.011C78.0664 103.974 78.8486 104.83 80.0172 104.616C81.1921 104.4 81.4905 103.262 81.4403 102.28C81.3806 101.158 81.8424 100.922 82.8068 100.813C85.6591 100.483 88.5241 100.317 91.3859 100.113C93.7482 99.944 93.4435 100.546 93.4466 102.277Z" fill="#D3CBBE"/>
<path d="M102.729 173.827C102.585 173.827 102.437 173.827 102.293 173.824C99.0256 173.726 95.6455 172.942 91.9481 171.422C90.6821 170.901 90.2077 170.161 90.3114 168.86L90.324 168.7C90.481 166.712 90.5596 165.711 92.0612 165.711C92.5135 165.711 93.0978 165.799 93.9083 165.918C95.2371 166.116 96.591 166.216 97.9355 166.216C101.551 166.216 105.192 165.523 109.072 164.1C110.316 163.642 111.063 163.366 111.626 163.366C112.895 163.366 112.936 164.507 113.017 166.781C113.159 170.688 112.989 170.958 109.38 172.582C107.488 173.432 105.374 173.827 102.729 173.827Z" fill="#D3CBBE"/>
<path d="M111.623 163.839C112.436 163.839 112.464 164.639 112.543 166.799C112.678 170.544 112.625 170.606 109.182 172.155C107.115 173.084 104.947 173.356 102.729 173.356C102.585 173.356 102.443 173.356 102.299 173.353C98.7461 173.247 95.3942 172.331 92.1272 170.986C91.1156 170.569 90.6884 170.051 90.7795 168.897C90.946 166.771 90.9649 166.182 92.0612 166.182C92.4759 166.182 93.0476 166.266 93.8392 166.385C95.2183 166.589 96.5816 166.69 97.9356 166.69C101.787 166.69 105.544 165.899 109.235 164.542C110.407 164.109 111.148 163.839 111.623 163.839ZM111.623 162.898C110.979 162.898 110.2 163.184 108.908 163.66C105.082 165.065 101.495 165.749 97.9356 165.749C96.6131 165.749 95.2811 165.652 93.9774 165.457C93.145 165.335 92.545 165.244 92.0581 165.244C90.1198 165.244 90.0067 166.677 89.8497 168.665L89.8371 168.828C89.7177 170.33 90.3146 171.265 91.7659 171.861C95.5167 173.4 98.9534 174.197 102.271 174.297C102.434 174.3 102.582 174.3 102.729 174.3C105.447 174.3 107.62 173.893 109.571 173.015C113.382 171.302 113.639 170.892 113.489 166.768C113.448 165.611 113.419 164.849 113.275 164.281C112.967 163.077 112.109 162.898 111.623 162.898Z" fill="black"/>
<path d="M75.214 127.731C74.6109 127.555 73.9198 127.568 73.4234 127.997C72.9868 128.377 72.8203 129.054 73.1501 129.553C73.5271 130.123 74.1994 130.186 74.8151 130.271C75.1889 130.321 75.7983 130.5 75.5784 130.986C75.3208 131.55 74.5418 131.516 74.0234 131.509C73.5177 131.503 73.5177 132.287 74.0234 132.293C74.6297 132.3 75.2988 132.284 75.8015 131.901C76.2444 131.566 76.5554 130.957 76.3418 130.405C76.1062 129.791 75.4842 129.574 74.8842 129.496C74.5669 129.455 73.7187 129.424 73.7564 128.935C73.8004 128.339 74.5857 128.367 75.0035 128.49C75.4936 128.627 75.7009 127.872 75.214 127.731Z" fill="black"/>
<path d="M74.6988 132.117C74.7397 132.371 74.7805 132.625 74.8213 132.879C74.837 132.97 74.925 133.071 75.0004 133.115C75.0852 133.165 75.2077 133.184 75.302 133.155C75.3962 133.124 75.4873 133.064 75.5376 132.977C75.5501 132.945 75.5627 132.914 75.5784 132.883C75.5973 132.814 75.5973 132.745 75.5784 132.676C75.5376 132.422 75.4967 132.168 75.4559 131.914C75.4402 131.823 75.3522 131.722 75.2768 131.678C75.192 131.628 75.0695 131.609 74.9753 131.638C74.881 131.669 74.7899 131.729 74.7397 131.816C74.7271 131.848 74.7145 131.879 74.6988 131.91C74.68 131.979 74.68 132.048 74.6988 132.117Z" fill="black"/>
<path d="M74.4946 127.508C74.3596 127.207 74.2245 126.906 74.0894 126.608C74.0517 126.523 73.9386 126.451 73.8538 126.429C73.7596 126.404 73.6339 126.413 73.5522 126.47C73.4674 126.523 73.3952 126.605 73.3732 126.705C73.37 126.74 73.3637 126.774 73.3606 126.809C73.3606 126.881 73.3794 126.947 73.414 127.006C73.5491 127.307 73.6842 127.608 73.8192 127.906C73.8569 127.991 73.97 128.063 74.0548 128.085C74.1491 128.11 74.2747 128.101 74.3564 128.044C74.4412 127.991 74.5135 127.909 74.5355 127.809C74.5386 127.774 74.5449 127.74 74.548 127.705C74.548 127.636 74.5292 127.571 74.4946 127.508Z" fill="black"/>
<path d="M131.614 90.3206C131.473 89.9098 131.219 89.2042 130.669 88.5175C130.308 88.0691 129.811 87.4513 129.161 87.4701C129.089 87.4733 128.567 87.489 128.404 87.8872C128.281 88.1882 128.473 88.436 128.35 88.6586C128.181 88.9691 127.622 88.8279 127.188 88.7119C126.799 88.6084 126.607 88.5551 126.217 88.3325C125.41 87.8684 124.647 87.9499 123.331 87.8464C122.928 87.8151 122.771 87.7806 122.731 87.7398C122.332 87.7492 121.977 87.743 121.895 87.743C121.879 87.743 121.769 87.743 121.609 87.743C121.04 87.8558 120.418 87.9405 120.249 88.0032C119.881 88.1412 113.831 89.2952 113.322 89.4488C113.137 89.5053 112.948 89.5617 112.757 89.6213C110.407 90.3394 109.113 90.7376 107.467 91.3962C106.653 91.7223 105.698 92.13 104.636 92.6474C104.47 92.7289 104.288 92.6599 104.152 92.5C104.134 92.4749 104.108 92.4529 104.083 92.4341C103.804 92.2052 103.42 92.4184 103.251 92.5094C103.088 92.6003 101.407 93.4595 101.24 93.5975C100.022 94.6386 98.5922 95.0023 97.587 95.2595C95.5953 95.7675 93.8958 95.4414 93.1733 95.3034C92.0267 95.0839 90.9084 94.6731 90.9084 94.6731C90.0916 94.3752 89.6832 94.2247 89.5105 94.1212C89.5105 94.1212 88.9167 93.7574 88.2633 93.6006C88.1722 93.5787 87.99 93.5411 87.8173 93.6602C87.7607 93.701 87.7136 93.748 87.6759 93.8013C87.5785 93.9393 87.4214 93.9832 87.2769 93.9456C86.1492 93.6602 84.5879 93.2871 82.7094 92.8888C81.4685 92.6254 80.8497 92.4968 80.1523 92.3871C77.6926 92.0076 75.7732 92.0171 74.3502 92.0296C72.9366 92.0421 72.2297 92.0516 71.2528 92.1676C68.8088 92.4623 67.0151 92.6787 65.0768 93.4815C64.7753 93.6069 62.482 94.3846 62.4035 94.2184L62.5135 91.6502C61.3072 92.5188 61.5648 92.1362 61.1124 92.9264C60.8014 93.4721 60.7543 93.7982 60.1794 94.7734C59.7522 95.5072 59.5574 95.7016 59.4381 96.2284C59.2339 97.1504 59.5134 97.9657 59.5511 98.0692C59.8621 98.9378 60.4684 99.3611 60.6915 99.5179C61.2035 99.8754 61.4297 99.7688 61.7061 100.164C61.948 100.512 61.8915 100.766 62.0894 101.415C62.1962 101.766 62.2622 101.845 62.8747 102.996C63.4276 104.027 63.7072 104.551 63.8234 104.874C63.9616 105.25 63.9554 105.335 64.2318 106.661C64.7376 109.076 64.9323 109.631 65.0674 109.97C65.2873 110.534 65.4946 110.92 65.7428 111.381C66.2391 112.309 66.4873 112.773 66.8109 112.93C67.3198 113.174 67.8789 112.898 68.457 112.638C68.6234 112.563 68.969 112.39 69.1763 112.284C69.2831 112.23 69.4025 112.23 69.5125 112.284C69.9271 112.491 71.0235 113.039 71.9062 113.469C73.3763 114.181 74.1083 114.538 74.7711 114.802C75.28 115.006 76.546 115.489 78.2204 115.877C78.9994 116.059 79.7031 116.16 81.1073 116.363C81.7136 116.451 83.8246 116.746 86.1303 116.602C86.5324 116.577 87.0508 116.53 87.6005 116.15C88.2225 115.724 88.5681 115.097 88.9545 114.397C89.1147 114.109 89.4979 113.372 89.8152 112.284C90.0539 111.462 89.9974 111.315 90.2581 110.189C90.5094 109.104 90.5754 109.173 90.9304 107.853C91.4267 105.99 91.3513 105.573 91.8131 104.893C92.2121 104.303 92.6361 103.993 92.8403 103.848C93.2267 103.572 93.6979 103.34 95.077 103.133C96.8205 102.873 98.0613 102.945 98.5294 102.98C99.6131 103.061 100.163 103.108 100.578 103.425C101.046 103.783 101.256 104.215 102.07 106.125C102.968 108.226 103.417 109.277 103.606 109.747C104.244 111.346 104.482 112.039 105.12 112.908C105.667 113.651 106.122 113.996 106.248 114.087C106.433 114.225 107.162 114.736 108.308 114.839C109.075 114.908 109.603 114.758 110.913 114.338C112.628 113.789 113.485 113.513 114.616 113.096C116.297 112.478 117.136 112.168 117.723 111.879C118.1 111.697 119.077 111.092 121.034 109.885C122.925 108.718 123.224 108.499 123.503 108.035C123.579 107.906 123.78 107.552 124.144 107.364C124.185 107.342 124.823 107.025 125.341 107.426C125.614 107.64 125.602 107.853 125.841 107.944C126.199 108.076 126.56 107.712 126.632 107.64C126.953 107.317 127.028 106.931 127.226 106.266C127.587 105.065 127.641 105.316 127.86 104.469C128.046 103.767 128.115 103.149 128.253 101.914C128.382 100.778 128.423 100.368 128.423 100.368C128.501 99.5963 128.504 99.452 128.577 99.1698C128.721 98.596 128.847 98.6085 129.114 97.8779C129.425 97.0343 129.265 97.003 129.554 96.3601C129.755 95.9055 129.931 95.7079 129.953 95.2657C129.968 94.9208 129.874 94.8424 129.924 94.6135C130.015 94.187 130.421 94.1369 130.873 93.8013C131.017 93.6947 131.803 93.0895 131.963 92.1393C132.057 91.5937 131.897 91.1359 131.614 90.3206Z" fill="#2C2C2C"/>
<path d="M93.3241 150.484C93.3649 150.49 94.0246 150.578 94.3702 151.143C94.7911 151.832 94.5587 152.927 93.9241 153.184C93.4152 153.388 92.8466 152.971 92.8026 152.939C92.4508 152.676 92.3408 152.322 92.2497 152.033C92.1272 151.644 91.9827 151.186 92.234 150.835C92.5387 150.412 93.189 150.468 93.3241 150.484Z" fill="#D1E5C3"/>
<path d="M105.924 152.002C105.836 152.193 105.908 152.268 106.047 153.228C106.163 154.04 106.113 154.005 106.185 154.209C106.229 154.332 106.515 155.1 107.306 155.435C107.451 155.495 107.894 155.677 108.412 155.542C108.576 155.498 108.861 155.426 109.044 155.175C109.198 154.962 109.191 154.733 109.182 154.3C109.179 154.203 109.166 153.852 109.044 153.381C108.971 153.102 108.896 152.82 108.704 152.491C108.582 152.278 108.39 151.958 108.013 151.71C107.903 151.638 107.705 151.506 107.429 151.45C106.885 151.34 106.141 151.534 105.924 152.002Z" fill="#D1E5C3"/>
<path d="M77.2277 101.321C77.4821 101.192 79.5649 100.16 80.6392 100.719C80.7586 100.781 80.9848 100.897 81.1104 101.148C81.2549 101.434 81.1418 101.656 80.9156 102.559C80.6957 103.444 80.7146 103.582 80.5167 103.767C80.1429 104.115 79.6025 104.061 79.524 104.052C79.0968 104.005 78.8203 103.76 78.6444 103.604C78.2832 103.277 78.2203 103.005 77.8151 102.274C77.6706 102.02 77.479 101.694 77.2277 101.321Z" fill="black"/>
<path d="M111.359 96.4228C111.296 96.6047 111.651 96.7364 111.88 97.1911C112.075 97.5736 111.924 97.6865 112.116 98.2635C112.229 98.6116 112.323 98.8907 112.587 99.1227C113.068 99.5429 113.705 99.4394 113.756 99.43C113.894 99.4049 114.243 99.3359 114.513 99.0224C114.55 98.9785 114.821 98.6523 114.799 98.2133C114.789 98.0409 114.745 98.0409 114.594 97.5705C114.469 97.1754 114.403 96.9778 114.4 96.8022C114.387 96.2879 114.409 96.1186 114.409 96.1186C114.415 96.0622 114.422 96.0371 114.409 96.0057C114.321 95.7862 113.652 95.8709 113.159 95.9336C112.706 95.99 112.904 96.0057 111.877 96.219C111.55 96.2879 111.396 96.313 111.359 96.4228Z" fill="black"/>
<path d="M63.7637 96.6205C63.9647 96.332 64.3417 95.9118 66.2139 95.3568C67.7407 94.9052 68.8119 94.7798 68.8119 94.7798C71.9532 94.4129 73.5239 94.2279 74.3941 94.2216C78.7323 94.1965 82.0214 95.2815 83.7743 95.8773C86.9565 96.9592 88.2947 97.9626 89.1869 99.4804C89.4193 99.8786 90.0162 100.917 90.2141 102.434C90.302 103.112 90.3617 104.253 89.79 106.298C89.2999 108.054 88.5774 110.644 86.6675 112.513C84.5565 114.579 82.2036 114.57 80.3156 114.564C77.124 114.554 74.8088 113.243 71.5826 111.415C68.8716 109.879 67.7438 108.709 67.1344 108C65.8338 106.489 65.1145 105.034 64.4328 103.66C63.2328 101.233 63.1385 100.139 63.1197 99.6434C63.1008 99.0821 63.0443 97.649 63.7637 96.6205Z" fill="url(#paint0_linear_251_374)"/>
<path d="M103.53 97.3037C103.76 96.9431 104.077 96.5417 105.478 95.5257C107.712 93.9077 109.559 93.0014 109.835 92.8697C111.186 92.2175 112.785 91.4461 115 90.9475C115.556 90.822 115.323 90.9004 120.409 90.474C121.64 90.3705 123.321 90.2262 125.489 90.6307C126.981 90.9098 127.496 91.2234 127.867 91.7534C128.661 92.8979 128.479 94.6163 128.306 96.2689C128.24 96.8898 128.011 98.7211 127.078 100.784C126.497 102.07 125.913 102.845 124.904 104.187C124.311 104.977 123.488 106.062 122.237 107.229C120.956 108.423 119.878 109.097 119.061 109.599C118.157 110.157 116.762 111.004 114.852 111.556C114.711 111.597 114.041 111.788 113.14 111.939C112.044 112.124 111.312 112.249 110.463 112.136C109.219 111.97 108.312 111.374 107.787 111.026C105.861 109.734 104.815 107.834 104.061 106.426C103.251 104.917 102.767 104.011 102.575 102.572C102.522 102.199 102.186 99.4173 103.53 97.3037Z" fill="url(#paint1_linear_251_374)"/>
<path d="M87.4749 93.4623C87.321 93.5062 86.9597 93.616 86.7838 93.9797C86.5859 94.3874 86.7461 94.8609 86.7775 94.9581C86.9691 95.5288 87.3304 95.5319 87.9335 96.3755C88.1503 96.6796 88.0969 96.6702 88.3419 97.0089C88.7 97.5075 88.9168 97.6612 89.2435 98.0563C89.5639 98.442 89.7555 98.7712 89.9534 99.113C90.4561 99.9754 90.7042 100.756 90.9084 101.405C91.3419 102.798 91.3262 103.39 91.6623 103.491C91.9514 103.578 92.1681 103.199 92.633 102.851C92.8466 102.691 93.2016 102.471 95.0833 102.258C95.8875 102.167 96.0069 102.186 98.9315 102.148C99.453 102.142 99.9336 102.136 100.421 102.465C100.785 102.713 100.892 102.97 101.058 102.926C101.375 102.842 101.288 101.822 101.479 100.521C101.539 100.123 101.762 98.6709 102.481 97.2754C102.93 96.4068 103.578 95.5445 103.955 95.0428C104.561 94.2369 104.966 93.8135 104.922 93.2115C104.891 92.7599 104.665 92.2425 104.303 92.0982C103.923 91.9446 103.578 92.2738 102.993 92.6439C102.934 92.6815 102.192 92.9919 100.703 93.6097C99.3713 94.1647 98.6927 94.4438 98.1744 94.5849C97.2886 94.8264 96.5912 94.9079 96.2865 94.9361C96.1325 94.9518 95.4163 95.0177 94.433 94.9612C93.632 94.9142 93.0791 94.8107 92.0864 94.6257C90.7325 94.3717 90.0571 94.2463 89.6362 94.0801C88.6906 93.6912 88.1911 93.2554 87.4749 93.4623Z" fill="#141414"/>
<path d="M93.5094 99.4238C93.9119 99.4238 94.2382 99.098 94.2382 98.6962C94.2382 98.2945 93.9119 97.9688 93.5094 97.9688C93.1069 97.9688 92.7806 98.2945 92.7806 98.6962C92.7806 99.098 93.1069 99.4238 93.5094 99.4238Z" fill="#2C2C2C"/>
<path d="M99.0163 99.1601C99.4188 99.1601 99.7451 98.8344 99.7451 98.4326C99.7451 98.0308 99.4188 97.7051 99.0163 97.7051C98.6138 97.7051 98.2875 98.0308 98.2875 98.4326C98.2875 98.8344 98.6138 99.1601 99.0163 99.1601Z" fill="#2C2C2C"/>
<path d="M131.957 249.378H133.728C133.76 249.199 133.788 249.008 133.82 248.801C134.495 244.175 134.165 226.681 134.231 221.855C134.266 219.29 134.083 218.098 134.394 215.473C134.815 211.936 135.532 210.873 136.361 207.292C136.93 204.837 137.803 201.064 137.508 196.658C137.124 190.907 135.205 190.863 135.541 186.351C135.846 182.24 137.614 179.935 136.198 178.17C135.896 177.793 135.513 177.524 132.428 176.533C128.922 175.407 126.689 174.357 126.689 174.357C121.204 173.002 121.414 172.149 119.354 172.149C119.313 172.149 118.659 172.064 118.289 171.823C116.749 170.816 115.841 170.926 114.927 170.575C113.96 170.202 113.115 169.876 112.593 170.268C112.122 170.619 112.389 171.189 111.861 171.817C111.45 172.309 110.975 172.331 109.951 172.66C108.396 173.159 108.421 173.45 107.247 173.827C106.304 174.128 105.472 174.15 103.804 174.194C103.125 174.212 101.441 174.231 99.255 173.949C98.0832 173.795 97.2162 173.686 96.0602 173.334C95.1994 173.074 95.4193 173.058 93.3554 172.29C90.8926 171.374 90.8423 171.494 90.2643 171.086C89.7366 170.713 89.4067 170.352 88.8067 170.327C88.2853 170.305 87.9366 170.556 87.4559 170.819C87.1575 170.982 87.3491 170.854 84.9366 171.738C83.036 172.434 82.3418 172.726 79.8978 173.642C75.6758 175.222 78.6695 174.093 75.1637 175.664C75.0192 175.73 73.7972 176.301 73.3197 176.42C72.6192 176.592 72.104 177.188 71.7428 177.216C70.1815 177.342 70.9668 188.148 68.837 194.852C68.6265 195.514 68.0328 197.245 68.0171 199.597C68.0077 201.193 68.2747 201.566 68.5071 203.686C68.8841 207.072 68.3878 207.769 68.6705 210.393C68.8653 212.187 69.2045 212.874 70.1469 215.956C72.2485 222.842 72.3459 227.831 72.0286 232.72C71.9093 234.567 71.5731 237.853 71.3721 240.246C71.0831 243.711 71.0202 246.148 71.0517 249.371H131.957" fill="#191919"/>
<path d="M131.957 249.378H133.728C133.76 249.199 133.788 249.008 133.82 248.801C134.495 244.175 134.165 226.681 134.231 221.855C134.266 219.29 134.083 218.098 134.394 215.473C134.815 211.936 135.532 210.873 136.361 207.292C136.93 204.837 137.803 201.064 137.508 196.658C137.124 190.907 135.205 190.863 135.541 186.351C135.846 182.24 137.614 179.935 136.198 178.17C135.896 177.793 135.513 177.524 132.428 176.533C128.922 175.407 126.689 174.357 126.689 174.357C121.204 173.002 121.414 172.149 119.354 172.149C119.313 172.149 118.659 172.064 118.289 171.823C116.749 170.816 115.841 170.926 114.927 170.575C113.96 170.202 113.115 169.876 112.593 170.268C112.122 170.619 112.389 171.189 111.861 171.817C111.45 172.309 110.975 172.331 109.951 172.66C108.396 173.159 108.421 173.45 107.247 173.827C106.304 174.128 105.472 174.15 103.804 174.194C103.125 174.212 101.441 174.231 99.255 173.949C98.0832 173.795 97.2162 173.686 96.0602 173.334C95.1994 173.074 95.4193 173.058 93.3554 172.29C90.8926 171.374 90.8423 171.494 90.2643 171.086C89.7366 170.713 89.4067 170.352 88.8067 170.327C88.2853 170.305 87.9366 170.556 87.4559 170.819C87.1575 170.982 87.3491 170.854 84.9366 171.738C83.036 172.434 82.3418 172.726 79.8978 173.642C75.6758 175.222 78.6695 174.093 75.1637 175.664C75.0192 175.73 73.7972 176.301 73.3197 176.42C72.6192 176.592 72.104 177.188 71.7428 177.216C70.1815 177.342 70.9668 188.148 68.837 194.852C68.6265 195.514 68.0328 197.245 68.0171 199.597C68.0077 201.193 68.2747 201.566 68.5071 203.686C68.8841 207.072 68.3878 207.769 68.6705 210.393C68.8653 212.187 69.2045 212.874 70.1469 215.956C72.2485 222.842 72.3459 227.831 72.0286 232.72C71.9093 234.567 71.5731 237.853 71.3721 240.246C71.0831 243.711 71.0202 246.148 71.0517 249.371H131.957" stroke="black" stroke-width="3" stroke-miterlimit="10" stroke-linejoin="round"/>
<path d="M84.8298 187.439C84.6256 187.521 84.5094 187.574 84.3461 187.722C84.2518 187.803 84.1701 187.913 84.1105 188.02C83.9817 188.239 83.9063 188.515 83.9188 188.769C83.9251 188.898 83.9408 189.036 83.9848 189.158C84.0602 189.368 84.1356 189.49 84.2738 189.66C84.4057 189.823 84.5848 189.958 84.7764 190.042C85.0372 190.158 85.301 190.237 85.59 190.221C85.8822 190.208 86.1712 190.136 86.4225 189.986C86.6581 189.845 86.878 189.635 87.0005 189.384C87.0602 189.265 87.1168 189.136 87.1419 189.004C87.1827 188.775 87.1859 188.615 87.145 188.386C87.1199 188.245 87.0634 188.104 86.988 187.985C86.8717 187.797 86.7461 187.681 86.5733 187.552C86.4602 187.468 86.3251 187.408 86.1901 187.37C85.967 187.305 85.7754 187.323 85.5524 187.355C85.3702 187.38 85.1722 187.565 85.0843 187.715C84.9869 187.885 84.9429 188.132 85.0058 188.321C85.0686 188.509 85.1848 188.694 85.367 188.788C85.4298 188.813 85.4927 188.841 85.5555 188.866C85.6937 188.904 85.8351 188.904 85.9733 188.866C85.9796 188.866 85.989 188.863 85.9953 188.863C85.9262 188.873 85.8571 188.882 85.788 188.891C85.8257 188.888 85.8602 188.888 85.8979 188.891C85.8288 188.882 85.7597 188.873 85.6906 188.863C85.744 188.869 85.7911 188.885 85.8414 188.904C85.7785 188.879 85.7157 188.851 85.6529 188.825C85.7 188.847 85.744 188.873 85.788 188.907C85.7346 188.866 85.6811 188.825 85.6277 188.785C85.6623 188.813 85.6937 188.844 85.722 188.879C85.6812 188.825 85.6403 188.772 85.5995 188.719C85.6309 188.76 85.6592 188.804 85.678 188.854C85.6529 188.791 85.6246 188.728 85.5995 188.666C85.6152 188.709 85.6277 188.753 85.6372 188.8C85.6277 188.731 85.6183 188.662 85.6089 188.593C85.6183 188.656 85.6152 188.719 85.6089 188.782C85.6183 188.713 85.6277 188.644 85.6372 188.575C85.6277 188.637 85.6089 188.697 85.5838 188.757C85.6089 188.694 85.6372 188.631 85.6623 188.568C85.634 188.628 85.6026 188.681 85.5649 188.731C85.6058 188.678 85.6466 188.625 85.6874 188.571C85.6497 188.615 85.6089 188.656 85.5649 188.694C85.6183 188.653 85.6717 188.612 85.7251 188.571C85.6654 188.619 85.5995 188.656 85.5272 188.684C85.5901 188.659 85.6529 188.631 85.7157 188.606C85.6372 188.637 85.5555 188.659 85.4707 188.672C85.5398 188.662 85.6089 188.653 85.678 188.644C85.5963 188.653 85.5115 188.653 85.4298 188.644C85.499 188.653 85.5681 188.662 85.6372 188.672C85.5523 188.659 85.4707 188.637 85.389 188.606C85.4518 188.631 85.5147 188.659 85.5775 188.684C85.5052 188.653 85.4393 188.615 85.3764 188.568C85.4298 188.609 85.4832 188.65 85.5366 188.691C85.4832 188.647 85.433 188.6 85.3921 188.546C85.433 188.6 85.4738 188.653 85.5147 188.706C85.4832 188.662 85.4581 188.619 85.433 188.568C85.4581 188.631 85.4864 188.694 85.5115 188.757C85.4895 188.706 85.477 188.653 85.4707 188.6C85.4801 188.669 85.4895 188.738 85.499 188.807C85.4927 188.75 85.4927 188.697 85.5021 188.644C85.4927 188.713 85.4832 188.782 85.4738 188.851C85.4832 188.797 85.4958 188.744 85.5178 188.694C85.4927 188.756 85.4644 188.819 85.4393 188.882C85.4613 188.832 85.4864 188.785 85.5209 188.744C85.4801 188.797 85.4393 188.851 85.3984 188.904C85.4236 188.873 85.4518 188.844 85.4832 188.819C85.4298 188.86 85.3764 188.901 85.323 188.942C85.3544 188.916 85.389 188.898 85.4267 188.879C85.3639 188.904 85.301 188.932 85.2382 188.957C85.2445 188.954 85.2508 188.951 85.2571 188.951C85.3607 188.926 85.4487 188.879 85.5241 188.81C85.6089 188.753 85.678 188.681 85.7251 188.59C85.8225 188.421 85.8665 188.173 85.8037 187.985C85.7408 187.797 85.6246 187.612 85.4424 187.518C85.2602 187.427 85.0215 187.361 84.8298 187.439Z" fill="black"/>
<path d="M86.0267 187.505C86.0141 187.492 85.9984 187.477 85.9858 187.464C85.9136 187.389 85.8319 187.333 85.7345 187.301C85.6403 187.251 85.5398 187.229 85.433 187.232C85.3262 187.229 85.2225 187.251 85.1314 187.301C85.034 187.333 84.9492 187.386 84.8801 187.464C84.8392 187.518 84.7984 187.571 84.7576 187.624C84.6853 187.746 84.6508 187.878 84.6508 188.019C84.6602 188.088 84.6696 188.157 84.679 188.226C84.7167 188.358 84.7827 188.474 84.8801 188.571C84.8926 188.584 84.9083 188.599 84.9209 188.612C84.9932 188.687 85.0748 188.744 85.1722 188.775C85.2665 188.825 85.367 188.847 85.4738 188.844C85.5806 188.847 85.6843 188.825 85.7754 188.775C85.8727 188.744 85.9576 188.69 86.0267 188.612C86.0675 188.559 86.1084 188.505 86.1492 188.452C86.2214 188.33 86.256 188.198 86.256 188.057C86.2466 187.988 86.2371 187.919 86.2277 187.85C86.19 187.718 86.1241 187.602 86.0267 187.505Z" fill="black"/>
<path d="M120.073 186.74C120.057 186.734 120.045 186.731 120.029 186.727C119.954 186.712 119.869 186.699 119.79 186.696C119.712 186.693 119.63 186.712 119.551 186.724C119.536 186.727 119.517 186.731 119.501 186.734C119.429 186.756 119.354 186.79 119.284 186.825C119.272 186.831 119.256 186.837 119.244 186.847C119.181 186.884 119.118 186.938 119.058 186.988C119.046 187 119.03 187.01 119.017 187.025C118.964 187.082 118.914 187.151 118.87 187.214C118.86 187.226 118.854 187.239 118.845 187.251C118.81 187.317 118.776 187.395 118.754 187.468C118.747 187.483 118.744 187.502 118.741 187.518C118.722 187.612 118.703 187.712 118.71 187.809C118.716 187.907 118.725 188.013 118.757 188.107C118.826 188.302 118.908 188.452 119.052 188.603C119.118 188.672 119.2 188.728 119.275 188.781C119.335 188.822 119.398 188.844 119.464 188.872C119.633 188.944 119.797 188.979 119.985 188.985C120.026 188.985 120.064 188.985 120.104 188.982C120.208 188.973 120.315 188.96 120.415 188.938C120.541 188.91 120.667 188.854 120.78 188.797C120.808 188.781 120.836 188.766 120.865 188.747C120.943 188.69 121.022 188.634 121.091 188.568C121.157 188.502 121.216 188.424 121.27 188.346C121.323 188.267 121.358 188.173 121.389 188.088C121.399 188.06 121.408 188.032 121.411 188.004C121.424 187.925 121.439 187.844 121.439 187.765C121.439 187.715 121.43 187.662 121.424 187.615C121.408 187.499 121.399 187.461 121.355 187.355C121.33 187.298 121.314 187.245 121.276 187.195C121.226 187.126 121.176 187.047 121.11 186.991C121.044 186.931 120.971 186.872 120.893 186.828C120.789 186.768 120.67 186.718 120.554 186.696C120.462 186.68 120.368 186.665 120.277 186.662C120.183 186.662 120.086 186.677 119.991 186.693C119.96 186.699 119.928 186.706 119.9 186.718C119.809 186.753 119.715 186.787 119.633 186.84C119.548 186.894 119.467 186.956 119.394 187.025C119.322 187.094 119.262 187.179 119.203 187.257C119.134 187.351 119.09 187.452 119.046 187.558C119.002 187.665 118.961 187.769 118.936 187.885C118.889 188.088 118.908 188.305 119.014 188.49C119.109 188.653 119.297 188.807 119.482 188.85C119.683 188.897 119.91 188.885 120.089 188.772C120.255 188.665 120.403 188.502 120.45 188.305C120.469 188.226 120.491 188.148 120.522 188.073C120.497 188.135 120.469 188.198 120.444 188.261C120.475 188.186 120.513 188.117 120.563 188.054C120.522 188.107 120.481 188.161 120.44 188.214C120.472 188.173 120.506 188.139 120.544 188.107C120.491 188.148 120.437 188.189 120.384 188.23C120.419 188.204 120.453 188.179 120.494 188.164C120.431 188.189 120.368 188.217 120.305 188.242C120.34 188.226 120.375 188.217 120.409 188.211C120.34 188.22 120.271 188.23 120.202 188.239C120.249 188.233 120.293 188.233 120.34 188.239C120.271 188.23 120.202 188.22 120.133 188.211C120.173 188.217 120.211 188.23 120.249 188.245C120.186 188.22 120.123 188.192 120.06 188.167C120.089 188.179 120.114 188.195 120.139 188.214C120.086 188.173 120.032 188.132 119.979 188.092C120.004 188.11 120.023 188.129 120.042 188.154C120.001 188.101 119.96 188.048 119.919 187.994C119.935 188.016 119.947 188.038 119.957 188.06C119.932 187.997 119.903 187.935 119.878 187.872C119.884 187.894 119.891 187.913 119.894 187.935C119.884 187.866 119.875 187.797 119.866 187.728C119.869 187.753 119.869 187.778 119.866 187.803C119.875 187.734 119.884 187.665 119.894 187.596C119.891 187.624 119.881 187.653 119.872 187.681C119.897 187.618 119.925 187.555 119.95 187.493C119.935 187.524 119.919 187.555 119.897 187.584C119.938 187.53 119.979 187.477 120.02 187.424C119.991 187.455 119.963 187.483 119.932 187.511C119.985 187.471 120.038 187.43 120.092 187.389C120.045 187.427 119.991 187.455 119.938 187.477C120.001 187.452 120.064 187.424 120.126 187.399C120.064 187.424 119.998 187.439 119.928 187.452C119.998 187.442 120.067 187.433 120.136 187.424C120.064 187.433 119.991 187.433 119.919 187.427C119.988 187.436 120.057 187.446 120.126 187.455C120.076 187.449 120.026 187.436 119.976 187.414C120.038 187.439 120.101 187.468 120.164 187.493C120.126 187.477 120.089 187.455 120.054 187.43C120.108 187.471 120.161 187.511 120.214 187.552C120.183 187.527 120.155 187.499 120.13 187.468C120.17 187.521 120.211 187.574 120.252 187.627C120.233 187.599 120.214 187.571 120.202 187.54C120.227 187.602 120.255 187.665 120.28 187.728C120.268 187.696 120.258 187.665 120.252 187.634C120.261 187.703 120.271 187.772 120.28 187.841C120.277 187.812 120.277 187.787 120.277 187.759C120.268 187.828 120.258 187.897 120.249 187.966C120.252 187.941 120.258 187.916 120.268 187.891C120.243 187.954 120.214 188.016 120.189 188.079C120.199 188.054 120.211 188.035 120.227 188.013C120.186 188.066 120.145 188.12 120.104 188.173C120.123 188.148 120.145 188.129 120.17 188.11C120.117 188.151 120.064 188.192 120.01 188.233C120.032 188.217 120.051 188.204 120.076 188.195C120.013 188.22 119.95 188.248 119.888 188.273C119.913 188.264 119.935 188.258 119.96 188.255C119.891 188.264 119.822 188.273 119.753 188.283C119.771 188.283 119.79 188.283 119.812 188.283C119.743 188.273 119.674 188.264 119.605 188.255C119.621 188.258 119.633 188.261 119.649 188.267C119.753 188.299 119.856 188.305 119.963 188.28C120.067 188.273 120.164 188.245 120.255 188.186C120.419 188.092 120.572 187.903 120.616 187.718C120.664 187.518 120.651 187.292 120.538 187.113C120.497 187.06 120.456 187.007 120.415 186.953C120.321 186.847 120.205 186.778 120.073 186.74Z" fill="black"/>
<path d="M119.083 194.056C118.185 193.968 117.745 193.777 117.177 194.025C116.765 194.206 116.533 194.514 116.438 194.639C116.303 194.821 116.121 195.135 116.008 196.417C115.917 197.468 115.955 198.211 115.977 198.534C116.036 199.399 116.071 199.841 116.316 200.19C116.646 200.66 117.133 200.848 117.516 200.986C118.235 201.249 118.556 201.13 119.85 201.199C121.128 201.268 121.081 201.397 122.338 201.444C123.56 201.488 123.418 201.359 124.245 201.444C124.911 201.513 125.467 201.645 126.302 201.535C126.682 201.485 126.899 201.416 127.1 201.29C127.553 201.005 127.735 200.55 127.838 200.277C127.964 199.945 128.024 199.619 128.024 198.559C128.021 197.421 128.021 196.853 127.87 196.198C127.697 195.442 127.609 195.062 127.317 194.755C126.896 194.313 126.397 194.326 124.521 194.235C122.159 194.119 122.052 194.053 120.742 194.05C119.555 194.053 119.599 194.106 119.083 194.056Z" fill="#191919" stroke="black" stroke-width="3" stroke-miterlimit="10" stroke-linejoin="round"/>
<path d="M122.159 195.972C123.255 195.984 124.505 196.094 125.702 196.52C126.013 196.63 126.302 196.803 126.594 196.959C126.689 197.01 126.77 197.091 126.846 197.166C127.21 197.536 127.21 197.95 126.843 198.317C126.522 198.637 126.117 198.819 125.699 198.966C124.678 199.324 123.62 199.459 122.548 199.496C121.169 199.546 119.806 199.452 118.487 199.026C118.106 198.904 117.729 198.731 117.396 198.515C116.69 198.057 116.693 197.449 117.384 196.963C117.931 196.577 118.562 196.398 119.203 196.254C120.117 196.05 121.05 195.975 122.159 195.972ZM122.002 199.133C122.759 199.114 123.513 199.035 124.213 198.706C124.465 198.587 124.71 198.424 124.904 198.229C125.212 197.922 125.206 197.514 124.889 197.21C124.691 197.022 124.455 196.853 124.204 196.749C122.897 196.207 121.562 196.201 120.214 196.586C119.809 196.702 119.423 196.875 119.124 197.188C118.801 197.524 118.785 197.944 119.121 198.261C119.332 198.458 119.589 198.618 119.853 198.737C120.532 199.042 121.26 199.117 122.002 199.133Z" fill="#B9B4B0"/>
<path d="M101.834 175.028C101.077 184.363 100.584 193.72 100.355 203.087C100.125 212.46 100.16 221.842 100.458 231.212C100.628 236.487 100.879 241.758 101.215 247.026C101.247 247.528 102.032 247.531 102.001 247.026C101.404 237.675 101.074 228.308 101.005 218.939C100.936 209.563 101.134 200.187 101.592 190.82C101.85 185.552 102.195 180.287 102.619 175.028C102.66 174.526 101.875 174.529 101.834 175.028Z" fill="black"/>
<path d="M103.304 175.175C102.956 184.507 102.736 193.846 102.651 203.184C102.566 212.498 102.613 221.811 102.789 231.124C102.89 236.367 103.031 241.61 103.213 246.85C103.232 247.352 104.017 247.355 103.999 246.85C103.672 237.515 103.477 228.177 103.414 218.838C103.351 209.525 103.42 200.212 103.622 190.898C103.735 185.655 103.889 180.415 104.086 175.175C104.108 174.67 103.323 174.674 103.304 175.175Z" fill="black"/>
<path d="M87.2706 222.585C86.9 227.305 86.5324 232.027 86.1617 236.747C85.9795 239.08 85.7973 241.416 85.612 243.749C85.568 244.32 85.5366 244.894 85.4769 245.461C85.4581 245.634 85.4486 245.891 85.3293 246.032C85.1628 246.226 84.8361 246.054 84.6287 246C83.4696 245.703 82.3135 245.402 81.1544 245.104C80.6015 244.959 80.0455 244.818 79.4926 244.674C79.1627 244.589 78.3491 244.545 78.2203 244.163C78.1449 243.94 78.2329 243.595 78.258 243.366C78.2894 243.109 78.3303 242.849 78.3743 242.595C78.4811 242.012 78.6161 241.435 78.7606 240.861C79.0905 239.531 79.4298 238.205 79.7376 236.869C80.3313 234.279 80.6895 231.66 80.7868 229.004C80.8654 226.844 80.8057 224.68 80.6894 222.526C80.6769 222.3 80.5795 221.899 80.6486 221.685C80.7052 221.513 80.7366 221.529 80.9188 221.532C81.0601 221.535 81.2109 221.582 81.3523 221.61C82.0183 221.736 82.6842 221.861 83.3502 221.987C84.6821 222.237 86.0141 222.488 87.3492 222.739C87.8424 222.833 88.056 222.077 87.5565 221.983C86.2748 221.742 84.9931 221.5 83.7115 221.259C83.0958 221.143 82.48 221.027 81.8675 220.911C81.3931 220.82 80.7994 220.613 80.3376 220.848C79.9261 221.058 79.8538 221.491 79.8696 221.911C79.8947 222.554 79.9418 223.197 79.9669 223.84C80.0109 224.922 80.036 226.007 80.036 227.088C80.0298 230.108 79.7596 233.094 79.1156 236.047C78.8203 237.396 78.4842 238.738 78.1481 240.077C77.8622 241.212 77.5763 242.347 77.457 243.514C77.4099 243.965 77.369 244.473 77.7114 244.831C78.0664 245.201 78.6601 245.27 79.1313 245.392C80.3408 245.706 81.547 246.016 82.7565 246.33C83.3596 246.487 83.9628 246.643 84.5691 246.797C85.0497 246.919 85.5272 246.988 85.8916 246.584C86.1397 246.308 86.2151 245.919 86.2528 245.561C86.3251 244.909 86.3565 244.251 86.4068 243.595C86.5073 242.297 86.6109 241.002 86.7115 239.704C87.1575 233.997 87.6036 228.293 88.0528 222.585C88.0968 222.081 87.3115 222.084 87.2706 222.585Z" fill="black"/>
<path d="M115.6 222.868C116.253 229.224 116.649 235.59 116.501 241.98C116.463 243.57 116.407 245.157 116.341 246.747C116.332 247.004 116.599 247.189 116.837 247.126C119.545 246.396 122.253 245.665 124.961 244.937C125.445 244.806 126.026 244.702 126.293 244.222C126.588 243.693 126.387 242.981 126.318 242.419C126.142 241.024 125.969 239.629 125.793 238.233C125.083 232.576 124.377 226.919 123.667 221.259C123.604 220.76 123.613 219.973 122.916 219.989C122.558 219.998 122.168 220.171 121.826 220.271C121.449 220.381 121.072 220.488 120.695 220.597C119.137 221.046 117.579 221.494 116.021 221.939C115.537 222.077 115.741 222.836 116.228 222.695C117.484 222.335 118.741 221.974 119.998 221.613C120.626 221.431 121.254 221.253 121.882 221.071C122.184 220.983 122.486 220.892 122.787 220.811C122.891 220.782 122.866 220.789 122.812 220.732C122.837 220.76 122.837 220.914 122.84 220.952C122.862 221.134 122.884 221.312 122.91 221.494C123.233 224.078 123.557 226.662 123.88 229.246C124.207 231.855 124.534 234.464 124.86 237.073C125.024 238.365 125.184 239.657 125.347 240.949C125.429 241.595 125.511 242.241 125.589 242.887C125.621 243.134 125.699 243.439 125.652 243.686C125.595 243.987 125.306 244.031 125.049 244.103C122.244 244.865 119.432 245.618 116.627 246.374C116.793 246.499 116.957 246.625 117.123 246.753C117.359 240.971 117.384 235.21 116.966 229.434C116.809 227.245 116.605 225.06 116.382 222.874C116.335 222.372 115.549 222.366 115.6 222.868Z" fill="black"/>
<path d="M84.2078 221.971C84.1983 228.02 83.1177 233.987 81.9617 239.905C81.6287 241.604 81.2957 243.304 80.9627 245.003C80.8653 245.496 81.6224 245.706 81.7198 245.21C82.8915 239.234 84.1983 233.254 84.7449 227.179C84.902 225.449 84.99 223.708 84.9931 221.971C84.9931 221.466 84.2078 221.466 84.2078 221.971Z" fill="black"/>
<path d="M119.275 221.472C119.545 227.64 120.89 233.692 121.317 239.845C121.439 241.604 121.483 243.366 121.408 245.129C121.386 245.634 122.171 245.634 122.193 245.129C122.454 238.951 121.226 232.861 120.506 226.756C120.299 225 120.136 223.238 120.06 221.472C120.038 220.97 119.253 220.967 119.275 221.472Z" fill="black"/>
<path d="M116.492 178.888C116.492 178.888 116.476 183.059 118.044 185.191C118.044 185.191 117.045 181.491 118.885 181.503C120.726 181.519 122.564 181.365 122.463 184.053L121.744 185.486C121.744 185.486 125.046 182.905 124.034 180.622L116.492 178.888Z" fill="#D1CFCD"/>
<path d="M87.1733 179.396C87.1733 179.396 87.8361 183.513 86.6204 185.862C86.6204 185.862 87.0319 182.052 85.2162 182.35C83.4005 182.651 81.5628 182.783 82.078 185.42L83.011 186.724C83.011 186.724 79.3481 184.686 79.9921 182.275L87.1733 179.396Z" fill="#D1CFCD"/>
<path d="M78.0225 174.282C77.9785 177.135 78.3931 179.986 79.2444 182.711C79.3198 182.952 79.5963 183.075 79.8225 182.946C81.1104 182.209 82.4549 181.576 83.8466 181.065C84.5597 180.804 85.2822 180.575 86.0141 180.375C86.5576 180.227 87.2801 180.18 87.5974 179.647C87.8832 179.164 87.7482 178.568 87.6099 178.064C87.4152 177.355 87.1482 176.671 86.8686 175.994C86.3251 174.683 85.7251 173.388 85.4487 171.99C85.3513 171.494 84.5942 171.704 84.6916 172.196C84.9523 173.504 85.4895 174.724 86.0047 175.947C86.2529 176.54 86.4979 177.135 86.6958 177.744C86.8152 178.111 87.2298 179.02 86.8403 179.327C86.6393 179.484 86.1869 179.515 85.945 179.578C85.6246 179.663 85.3042 179.754 84.9869 179.851C84.3523 180.045 83.7241 180.262 83.1052 180.503C81.8361 180.999 80.6078 181.585 79.4235 182.262C79.6151 182.341 79.8068 182.419 80.0015 182.498C79.1659 179.835 78.7638 177.07 78.8078 174.279C78.8172 173.777 78.0319 173.777 78.0225 174.282Z" fill="black"/>
<path d="M120.428 171.901C119.087 174.259 117.742 176.621 116.401 178.979C116.278 179.192 116.385 179.493 116.636 179.556C118 179.888 119.363 180.217 120.726 180.55C121.383 180.71 122.039 180.87 122.696 181.03C123.205 181.155 123.742 181.302 124.135 180.845C124.474 180.45 124.609 179.816 124.788 179.336C124.989 178.791 125.187 178.239 125.401 177.696C125.844 176.567 126.365 175.47 127.094 174.491C127.396 174.087 126.714 173.695 126.415 174.096C125.115 175.84 124.499 177.944 123.723 179.945C123.623 180.205 123.588 180.418 123.268 180.359C122.969 180.302 122.674 180.214 122.379 180.142C121.772 179.995 121.166 179.847 120.56 179.7C119.322 179.399 118.084 179.098 116.847 178.797C116.925 178.988 117.004 179.18 117.082 179.374C118.424 177.016 119.768 174.655 121.11 172.296C121.355 171.857 120.676 171.462 120.428 171.901Z" fill="black"/>
<path d="M82.6309 187.436C83.4193 187.188 84.211 186.941 84.9994 186.69C85.3953 186.564 85.7879 186.442 86.1838 186.317C86.3817 186.254 86.5796 186.191 86.7743 186.132C86.9503 186.075 87.1796 186.044 87.3398 185.956C87.3681 185.95 87.3963 185.943 87.4246 185.937C87.3963 185.89 87.3869 185.881 87.4026 185.915C87.4277 185.953 87.4246 186.006 87.4309 186.05C87.4623 186.27 87.4717 186.498 87.4906 186.721C87.5283 187.132 87.566 187.543 87.6005 187.954C87.6759 188.775 87.7482 189.597 87.8236 190.415C87.8675 190.914 88.6529 190.917 88.6089 190.415C88.5241 189.465 88.4361 188.512 88.3513 187.562C88.3105 187.094 88.2696 186.627 88.2256 186.163C88.1911 185.796 88.1408 185.398 87.7639 185.225C87.3806 185.047 86.9345 185.263 86.567 185.379C86.1178 185.52 85.6686 185.661 85.2225 185.802C84.2895 186.097 83.3565 186.389 82.4235 186.684C81.9429 186.831 82.1471 187.587 82.6309 187.436Z" fill="black"/>
<path d="M81.946 187.176C82.4612 188.904 82.9763 190.628 83.4915 192.356C83.5481 192.551 83.7711 192.698 83.9753 192.629C85.458 192.13 86.8434 191.393 88.323 190.898C88.8005 190.738 88.5963 189.979 88.1156 190.142C86.6329 190.641 85.2476 191.378 83.768 191.873C83.9282 191.964 84.0915 192.055 84.2518 192.146C83.7366 190.418 83.2214 188.694 82.7062 186.966C82.5585 186.486 81.8015 186.69 81.946 187.176Z" fill="black"/>
<path d="M122.256 184.915C121.307 184.896 120.359 184.878 119.407 184.859C118.933 184.849 118.458 184.84 117.984 184.831C117.607 184.824 117.126 184.74 116.79 184.956C116.445 185.179 116.445 185.574 116.507 185.934C116.595 186.427 116.702 186.913 116.8 187.402C116.988 188.346 117.173 189.29 117.362 190.234C117.459 190.729 118.216 190.519 118.119 190.027C117.956 189.205 117.792 188.383 117.629 187.562C117.55 187.161 117.469 186.759 117.39 186.355C117.349 186.145 117.299 185.934 117.264 185.724C117.261 185.696 117.236 185.605 117.252 185.571C117.224 185.64 117.224 185.608 117.33 185.605C118.119 185.564 118.933 185.636 119.724 185.652C120.569 185.668 121.411 185.687 122.256 185.702C122.762 185.709 122.762 184.925 122.256 184.915Z" fill="black"/>
<path d="M122.061 185.263C122.052 187.066 122.046 188.866 122.036 190.669C122.168 190.537 122.297 190.409 122.429 190.277C120.868 190.214 119.328 189.898 117.767 189.835C117.261 189.816 117.261 190.6 117.767 190.619C119.328 190.682 120.868 190.998 122.429 191.061C122.643 191.07 122.822 190.876 122.822 190.669C122.831 188.866 122.837 187.066 122.847 185.263C122.85 184.758 122.065 184.758 122.061 185.263Z" fill="black"/>
<defs>
<linearGradient id="paint0_linear_251_374" x1="63.3648" y1="105.035" x2="90.3032" y2="103.828" gradientUnits="userSpaceOnUse">
<stop stop-color="#10B1E7"/>
<stop offset="1" stop-color="#27A737"/>
</linearGradient>
<linearGradient id="paint1_linear_251_374" x1="102.513" y1="101.907" x2="128.754" y2="100.731" gradientUnits="userSpaceOnUse">
<stop stop-color="#10B1E7"/>
<stop offset="1" stop-color="#27A737"/>
</linearGradient>
</defs>
</svg>
