<svg width="33" height="32" viewBox="0 0 33 32" fill="none" xmlns="http://www.w3.org/2000/svg">
<g clip-path="url(#clip0_18_311)">
<path d="M28.9595 9L26.0376 20.3333H9.71239L6.79051 9H28.9595Z" stroke="url(#paint0_linear_18_311)" stroke-width="2"/>
<path d="M2.0625 4H4.46875L5.5 8L2.0625 4ZM5.5 8L8.9375 21.3333H26.8125L30.25 8H5.5Z" fill="url(#paint1_linear_18_311)" stroke="url(#paint2_linear_18_311)" stroke-width="2" stroke-linecap="round" stroke-linejoin="round"/>
<path d="M8.9375 28C10.0766 28 11 27.1046 11 26C11 24.8954 10.0766 24 8.9375 24C7.79841 24 6.875 24.8954 6.875 26C6.875 27.1046 7.79841 28 8.9375 28Z" stroke="url(#paint3_linear_18_311)" stroke-width="2" stroke-linecap="round" stroke-linejoin="round"/>
<path d="M26.8125 28C27.9516 28 28.875 27.1046 28.875 26C28.875 24.8954 27.9516 24 26.8125 24C25.6734 24 24.75 24.8954 24.75 26C24.75 27.1046 25.6734 28 26.8125 28Z" stroke="url(#paint4_linear_18_311)" stroke-width="2" stroke-linecap="round" stroke-linejoin="round"/>
</g>
<defs>
<linearGradient id="paint0_linear_18_311" x1="5.5" y1="14.6667" x2="30.25" y2="14.6667" gradientUnits="userSpaceOnUse">
<stop stop-color="#0CF2EF"/>
<stop offset="1" stop-color="#F306A5"/>
</linearGradient>
<linearGradient id="paint1_linear_18_311" x1="2" y1="24.5" x2="39.5" y2="4" gradientUnits="userSpaceOnUse">
<stop stop-color="#0CF2EF"/>
<stop offset="1" stop-color="#F306A5"/>
</linearGradient>
<linearGradient id="paint2_linear_18_311" x1="2" y1="21" x2="36.5" y2="2.50001" gradientUnits="userSpaceOnUse">
<stop stop-color="#0CF2EF"/>
<stop offset="1" stop-color="#F306A5"/>
</linearGradient>
<linearGradient id="paint3_linear_18_311" x1="5" y1="28" x2="19.5" y2="20.5" gradientUnits="userSpaceOnUse">
<stop stop-color="#0CF2EF"/>
<stop offset="1" stop-color="#F306A5"/>
</linearGradient>
<linearGradient id="paint4_linear_18_311" x1="21" y1="28" x2="32" y2="22" gradientUnits="userSpaceOnUse">
<stop stop-color="#0CF2EF"/>
<stop offset="1" stop-color="#F306A5"/>
</linearGradient>
<clipPath id="clip0_18_311">
<rect width="33" height="32" fill="white"/>
</clipPath>
</defs>
</svg>
